<svg viewBox="0 0 600 900" xmlns="http://www.w3.org/2000/svg">
    <defs>
        <style>
            @import url('https://fonts.googleapis.com/css2?family=Cinzel:wght@600;800;900&amp;family=Cormorant+Garamond:ital,wght@0,500;0,700;1,600&amp;family=JetBrains+Mono:wght@400;700&amp;display=swap');
        </style>

        <radialGradient id="space-bg" cx="50%" cy="40%" r="80%">
            <stop offset="0%" stop-color="#0F111A"/>
            <stop offset="60%" stop-color="#06070B"/>
            <stop offset="100%" stop-color="#020203"/>
        </radialGradient>

        <linearGradient id="pedestal-glass" x1="0%" y1="0%" x2="0%" y2="100%">
            <stop offset="0%" stop-color="rgba(0, 240, 255, 0.15)"/>
            <stop offset="40%" stop-color="rgba(4, 15, 30, 0.8)"/>
            <stop offset="100%" stop-color="rgba(0, 5, 15, 0.98)"/>
        </linearGradient>

        <linearGradient id="grad-gold" x1="0%" y1="0%" x2="100%" y2="100%">
            <stop offset="0%" stop-color="#FFE57F"/>
            <stop offset="40%" stop-color="#D4AF37"/>
            <stop offset="100%" stop-color="#8B6508"/>
        </linearGradient>
        <linearGradient id="grad-cyan" x1="0%" y1="0%" x2="100%" y2="100%">
            <stop offset="0%" stop-color="#E0FFFF"/>
            <stop offset="50%" stop-color="#00F0FF"/>
            <stop offset="100%" stop-color="#0066CC"/>
        </linearGradient>
        <linearGradient id="grad-purple" x1="0%" y1="0%" x2="100%" y2="100%">
            <stop offset="0%" stop-color="#E6E6FA"/>
            <stop offset="50%" stop-color="#9932CC"/>
            <stop offset="100%" stop-color="#4B0082"/>
        </linearGradient>
        <linearGradient id="grad-silver" x1="0%" y1="0%" x2="100%" y2="100%">
            <stop offset="0%" stop-color="#FFFFFF"/>
            <stop offset="50%" stop-color="#A9A9A9"/>
            <stop offset="100%" stop-color="#4F4F4F"/>
        </linearGradient>

        <filter id="glow-soft" x="-30%" y="-30%" width="160%" height="160%">
            <feGaussianBlur stdDeviation="3" result="blur"/>
            <feMerge><feMergeNode in="blur"/><feMergeNode in="SourceGraphic"/></feMerge>
        </filter>
        <filter id="glow-intense" x="-50%" y="-50%" width="200%" height="200%">
            <feGaussianBlur stdDeviation="6" result="blur"/>
            <feMerge><feMergeNode in="blur"/><feMergeNode in="SourceGraphic"/></feMerge>
        </filter>
        <filter id="drop-shadow-heavy" x="-20%" y="-20%" width="140%" height="140%">
            <feDropShadow dx="0" dy="10" stdDeviation="15" flood-color="#000" flood-opacity="0.9"/>
        </filter>

        <path id="outer-ring-top" d="M -240,0 A 240,240 0 0,1 240,0" fill="none" />
        <path id="outer-ring-bot" d="M 240,0 A 240,240 0 0,1 -240,0" fill="none" />
        
        <path id="inner-ring-top" d="M -150,0 A 150,150 0 0,1 150,0" fill="none" />
        <path id="inner-ring-bot" d="M 150,0 A 150,150 0 0,1 -150,0" fill="none" />
    </defs>
    
    <rect width="600" height="900" fill="url(#space-bg)"/>
    <line x1="0" y1="0" x2="0" y2="900" stroke="#FFFFFF" stroke-width="0.5" opacity="0.03"/>
<line x1="40" y1="0" x2="40" y2="900" stroke="#FFFFFF" stroke-width="0.5" opacity="0.03"/>
<line x1="80" y1="0" x2="80" y2="900" stroke="#FFFFFF" stroke-width="0.5" opacity="0.03"/>
<line x1="120" y1="0" x2="120" y2="900" stroke="#FFFFFF" stroke-width="0.5" opacity="0.03"/>
<line x1="160" y1="0" x2="160" y2="900" stroke="#FFFFFF" stroke-width="0.5" opacity="0.03"/>
<line x1="200" y1="0" x2="200" y2="900" stroke="#FFFFFF" stroke-width="0.5" opacity="0.03"/>
<line x1="240" y1="0" x2="240" y2="900" stroke="#FFFFFF" stroke-width="0.5" opacity="0.03"/>
<line x1="280" y1="0" x2="280" y2="900" stroke="#FFFFFF" stroke-width="0.5" opacity="0.03"/>
<line x1="320" y1="0" x2="320" y2="900" stroke="#FFFFFF" stroke-width="0.5" opacity="0.03"/>
<line x1="360" y1="0" x2="360" y2="900" stroke="#FFFFFF" stroke-width="0.5" opacity="0.03"/>
<line x1="400" y1="0" x2="400" y2="900" stroke="#FFFFFF" stroke-width="0.5" opacity="0.03"/>
<line x1="440" y1="0" x2="440" y2="900" stroke="#FFFFFF" stroke-width="0.5" opacity="0.03"/>
<line x1="480" y1="0" x2="480" y2="900" stroke="#FFFFFF" stroke-width="0.5" opacity="0.03"/>
<line x1="520" y1="0" x2="520" y2="900" stroke="#FFFFFF" stroke-width="0.5" opacity="0.03"/>
<line x1="560" y1="0" x2="560" y2="900" stroke="#FFFFFF" stroke-width="0.5" opacity="0.03"/>
<line x1="0" y1="0" x2="600" y2="0" stroke="#FFFFFF" stroke-width="0.5" opacity="0.03"/>
<line x1="0" y1="40" x2="600" y2="40" stroke="#FFFFFF" stroke-width="0.5" opacity="0.03"/>
<line x1="0" y1="80" x2="600" y2="80" stroke="#FFFFFF" stroke-width="0.5" opacity="0.03"/>
<line x1="0" y1="120" x2="600" y2="120" stroke="#FFFFFF" stroke-width="0.5" opacity="0.03"/>
<line x1="0" y1="160" x2="600" y2="160" stroke="#FFFFFF" stroke-width="0.5" opacity="0.03"/>
<line x1="0" y1="200" x2="600" y2="200" stroke="#FFFFFF" stroke-width="0.5" opacity="0.03"/>
<line x1="0" y1="240" x2="600" y2="240" stroke="#FFFFFF" stroke-width="0.5" opacity="0.03"/>
<line x1="0" y1="280" x2="600" y2="280" stroke="#FFFFFF" stroke-width="0.5" opacity="0.03"/>
<line x1="0" y1="320" x2="600" y2="320" stroke="#FFFFFF" stroke-width="0.5" opacity="0.03"/>
<line x1="0" y1="360" x2="600" y2="360" stroke="#FFFFFF" stroke-width="0.5" opacity="0.03"/>
<line x1="0" y1="400" x2="600" y2="400" stroke="#FFFFFF" stroke-width="0.5" opacity="0.03"/>
<line x1="0" y1="440" x2="600" y2="440" stroke="#FFFFFF" stroke-width="0.5" opacity="0.03"/>
<line x1="0" y1="480" x2="600" y2="480" stroke="#FFFFFF" stroke-width="0.5" opacity="0.03"/>
<line x1="0" y1="520" x2="600" y2="520" stroke="#FFFFFF" stroke-width="0.5" opacity="0.03"/>
<line x1="0" y1="560" x2="600" y2="560" stroke="#FFFFFF" stroke-width="0.5" opacity="0.03"/>
<line x1="0" y1="600" x2="600" y2="600" stroke="#FFFFFF" stroke-width="0.5" opacity="0.03"/>
<line x1="0" y1="640" x2="600" y2="640" stroke="#FFFFFF" stroke-width="0.5" opacity="0.03"/>
<line x1="0" y1="680" x2="600" y2="680" stroke="#FFFFFF" stroke-width="0.5" opacity="0.03"/>
<line x1="0" y1="720" x2="600" y2="720" stroke="#FFFFFF" stroke-width="0.5" opacity="0.03"/>
<line x1="0" y1="760" x2="600" y2="760" stroke="#FFFFFF" stroke-width="0.5" opacity="0.03"/>
<line x1="0" y1="800" x2="600" y2="800" stroke="#FFFFFF" stroke-width="0.5" opacity="0.03"/>
<line x1="0" y1="840" x2="600" y2="840" stroke="#FFFFFF" stroke-width="0.5" opacity="0.03"/>
<line x1="0" y1="880" x2="600" y2="880" stroke="#FFFFFF" stroke-width="0.5" opacity="0.03"/>

        <text x="423" y="413" transform="rotate(0, 423, 413)" font-family="monospace" font-size="8" fill="#00F0FF" letter-spacing="2" opacity="0">
            <animate attributeName="opacity" values="0; 0.3; 0" dur="2.3729523583691448s" begin="1.9027402486390121s" repeatCount="indefinite"/>
            A11FAF1101
        </text>

        <text x="22" y="510" transform="rotate(90, 22, 510)" font-family="monospace" font-size="8" fill="#00F0FF" letter-spacing="2" opacity="0">
            <animate attributeName="opacity" values="0; 0.3; 0" dur="5.734721392821969s" begin="1.4244986212570803s" repeatCount="indefinite"/>
            1A1A1F
        </text>

        <text x="237" y="889" transform="rotate(90, 237, 889)" font-family="monospace" font-size="8" fill="#00F0FF" letter-spacing="2" opacity="0">
            <animate attributeName="opacity" values="0; 0.3; 0" dur="3.872880227872578s" begin="1.3895885912785149s" repeatCount="indefinite"/>
            10FAA
        </text>

        <text x="60" y="775" transform="rotate(90, 60, 775)" font-family="monospace" font-size="8" fill="#00F0FF" letter-spacing="2" opacity="0">
            <animate attributeName="opacity" values="0; 0.3; 0" dur="3.342812095229124s" begin="1.2236291293838302s" repeatCount="indefinite"/>
            10FA
        </text>

        <text x="334" y="241" transform="rotate(90, 334, 241)" font-family="monospace" font-size="8" fill="#00F0FF" letter-spacing="2" opacity="0">
            <animate attributeName="opacity" values="0; 0.3; 0" dur="3.9108392577656184s" begin="0.16620879220410556s" repeatCount="indefinite"/>
            F0FAF0A11
        </text>

        <text x="458" y="717" transform="rotate(90, 458, 717)" font-family="monospace" font-size="8" fill="#00F0FF" letter-spacing="2" opacity="0">
            <animate attributeName="opacity" values="0; 0.3; 0" dur="3.755262987023179s" begin="0.3347321087302624s" repeatCount="indefinite"/>
            011AA
        </text>

        <text x="99" y="446" transform="rotate(0, 99, 446)" font-family="monospace" font-size="8" fill="#00F0FF" letter-spacing="2" opacity="0">
            <animate attributeName="opacity" values="0; 0.3; 0" dur="3.5857265901734627s" begin="4.730344153931019s" repeatCount="indefinite"/>
            AFA1F
        </text>

        <text x="451" y="538" transform="rotate(90, 451, 538)" font-family="monospace" font-size="8" fill="#00F0FF" letter-spacing="2" opacity="0">
            <animate attributeName="opacity" values="0; 0.3; 0" dur="4.277299103639736s" begin="4.979179913620805s" repeatCount="indefinite"/>
            FA1F00
        </text>

        <text x="323" y="337" transform="rotate(0, 323, 337)" font-family="monospace" font-size="8" fill="#00F0FF" letter-spacing="2" opacity="0">
            <animate attributeName="opacity" values="0; 0.3; 0" dur="4.441048247350956s" begin="1.3532814163805673s" repeatCount="indefinite"/>
            11FA
        </text>

        <text x="449" y="440" transform="rotate(0, 449, 440)" font-family="monospace" font-size="8" fill="#00F0FF" letter-spacing="2" opacity="0">
            <animate attributeName="opacity" values="0; 0.3; 0" dur="2.6671942731335436s" begin="0.24210237857113404s" repeatCount="indefinite"/>
            F0FFAA
        </text>

        <text x="570" y="71" transform="rotate(0, 570, 71)" font-family="monospace" font-size="8" fill="#00F0FF" letter-spacing="2" opacity="0">
            <animate attributeName="opacity" values="0; 0.3; 0" dur="3.594160328833075s" begin="4.211935343541962s" repeatCount="indefinite"/>
            11F1F00AA0
        </text>

        <text x="537" y="832" transform="rotate(0, 537, 832)" font-family="monospace" font-size="8" fill="#00F0FF" letter-spacing="2" opacity="0">
            <animate attributeName="opacity" values="0; 0.3; 0" dur="4.302308899282995s" begin="1.0618104282530383s" repeatCount="indefinite"/>
            0AAF0A0F10
        </text>

        <text x="325" y="731" transform="rotate(0, 325, 731)" font-family="monospace" font-size="8" fill="#00F0FF" letter-spacing="2" opacity="0">
            <animate attributeName="opacity" values="0; 0.3; 0" dur="2.813518976340621s" begin="1.7838701494807674s" repeatCount="indefinite"/>
            F1AF0F1FF1A
        </text>

        <text x="528" y="514" transform="rotate(90, 528, 514)" font-family="monospace" font-size="8" fill="#00F0FF" letter-spacing="2" opacity="0">
            <animate attributeName="opacity" values="0; 0.3; 0" dur="2.0869597342319914s" begin="0.25108638233195424s" repeatCount="indefinite"/>
            0FF1
        </text>

        <text x="550" y="303" transform="rotate(0, 550, 303)" font-family="monospace" font-size="8" fill="#00F0FF" letter-spacing="2" opacity="0">
            <animate attributeName="opacity" values="0; 0.3; 0" dur="4.806026433793841s" begin="0.7026823703943585s" repeatCount="indefinite"/>
            0AAF0FAA101A
        </text>

        <text x="585" y="556" transform="rotate(90, 585, 556)" font-family="monospace" font-size="8" fill="#00F0FF" letter-spacing="2" opacity="0">
            <animate attributeName="opacity" values="0; 0.3; 0" dur="5.797754855268513s" begin="1.6757919441492746s" repeatCount="indefinite"/>
            A110
        </text>

        <text x="213" y="562" transform="rotate(90, 213, 562)" font-family="monospace" font-size="8" fill="#00F0FF" letter-spacing="2" opacity="0">
            <animate attributeName="opacity" values="0; 0.3; 0" dur="4.821872589884928s" begin="0.45491121272713153s" repeatCount="indefinite"/>
            AAF1
        </text>

        <text x="522" y="827" transform="rotate(0, 522, 827)" font-family="monospace" font-size="8" fill="#00F0FF" letter-spacing="2" opacity="0">
            <animate attributeName="opacity" values="0; 0.3; 0" dur="5.443928915998185s" begin="3.566292821997437s" repeatCount="indefinite"/>
            0F1AFAA
        </text>

        <text x="173" y="420" transform="rotate(0, 173, 420)" font-family="monospace" font-size="8" fill="#00F0FF" letter-spacing="2" opacity="0">
            <animate attributeName="opacity" values="0; 0.3; 0" dur="3.956883312521386s" begin="0.20893243068421608s" repeatCount="indefinite"/>
            AA0FF0
        </text>

        <text x="246" y="731" transform="rotate(0, 246, 731)" font-family="monospace" font-size="8" fill="#00F0FF" letter-spacing="2" opacity="0">
            <animate attributeName="opacity" values="0; 0.3; 0" dur="5.72875670407034s" begin="0.7898817501503408s" repeatCount="indefinite"/>
            F11111A01AAA
        </text>

        <text x="402" y="602" transform="rotate(0, 402, 602)" font-family="monospace" font-size="8" fill="#00F0FF" letter-spacing="2" opacity="0">
            <animate attributeName="opacity" values="0; 0.3; 0" dur="2.0382196592568613s" begin="3.7251463978083725s" repeatCount="indefinite"/>
            A111AA1A
        </text>

        <text x="253" y="104" transform="rotate(90, 253, 104)" font-family="monospace" font-size="8" fill="#00F0FF" letter-spacing="2" opacity="0">
            <animate attributeName="opacity" values="0; 0.3; 0" dur="2.794733333825242s" begin="2.545174597067193s" repeatCount="indefinite"/>
            A01010F1
        </text>

        <text x="334" y="478" transform="rotate(90, 334, 478)" font-family="monospace" font-size="8" fill="#00F0FF" letter-spacing="2" opacity="0">
            <animate attributeName="opacity" values="0; 0.3; 0" dur="3.898766383574843s" begin="2.188699808995034s" repeatCount="indefinite"/>
            A0AF11A1F111
        </text>

        <text x="52" y="792" transform="rotate(0, 52, 792)" font-family="monospace" font-size="8" fill="#00F0FF" letter-spacing="2" opacity="0">
            <animate attributeName="opacity" values="0; 0.3; 0" dur="4.316317779008044s" begin="2.849350361352245s" repeatCount="indefinite"/>
            1AF0AAAF1A0F
        </text>

        <text x="436" y="164" transform="rotate(0, 436, 164)" font-family="monospace" font-size="8" fill="#00F0FF" letter-spacing="2" opacity="0">
            <animate attributeName="opacity" values="0; 0.3; 0" dur="2.3090955977435743s" begin="1.8170224105510209s" repeatCount="indefinite"/>
            F1001A
        </text>

        <text x="500" y="700" transform="rotate(90, 500, 700)" font-family="monospace" font-size="8" fill="#00F0FF" letter-spacing="2" opacity="0">
            <animate attributeName="opacity" values="0; 0.3; 0" dur="2.72273146515162s" begin="4.614942799603578s" repeatCount="indefinite"/>
            F1AA010A1F0A
        </text>

        <text x="87" y="620" transform="rotate(0, 87, 620)" font-family="monospace" font-size="8" fill="#00F0FF" letter-spacing="2" opacity="0">
            <animate attributeName="opacity" values="0; 0.3; 0" dur="2.2681663781248727s" begin="2.7263724902622792s" repeatCount="indefinite"/>
            1000FFAA1A
        </text>

        <text x="572" y="770" transform="rotate(90, 572, 770)" font-family="monospace" font-size="8" fill="#00F0FF" letter-spacing="2" opacity="0">
            <animate attributeName="opacity" values="0; 0.3; 0" dur="4.279355108041715s" begin="1.516206805035916s" repeatCount="indefinite"/>
            FA0A0F1FAAF
        </text>

        <text x="172" y="109" transform="rotate(0, 172, 109)" font-family="monospace" font-size="8" fill="#00F0FF" letter-spacing="2" opacity="0">
            <animate attributeName="opacity" values="0; 0.3; 0" dur="2.669623078685198s" begin="1.2660230818566394s" repeatCount="indefinite"/>
            FA0A11AF0FA
        </text>

        <text x="183" y="734" transform="rotate(90, 183, 734)" font-family="monospace" font-size="8" fill="#00F0FF" letter-spacing="2" opacity="0">
            <animate attributeName="opacity" values="0; 0.3; 0" dur="3.082527854429924s" begin="0.8532909869432803s" repeatCount="indefinite"/>
            AFAAA0A00F10
        </text>

        <text x="448" y="151" transform="rotate(0, 448, 151)" font-family="monospace" font-size="8" fill="#00F0FF" letter-spacing="2" opacity="0">
            <animate attributeName="opacity" values="0; 0.3; 0" dur="3.3732193880700105s" begin="4.806713133890895s" repeatCount="indefinite"/>
            0AA1FA0FF
        </text>

        <text x="172" y="671" transform="rotate(90, 172, 671)" font-family="monospace" font-size="8" fill="#00F0FF" letter-spacing="2" opacity="0">
            <animate attributeName="opacity" values="0; 0.3; 0" dur="3.998253447654653s" begin="3.068180223909109s" repeatCount="indefinite"/>
            FA1AF1AF100
        </text>

        <text x="394" y="62" transform="rotate(0, 394, 62)" font-family="monospace" font-size="8" fill="#00F0FF" letter-spacing="2" opacity="0">
            <animate attributeName="opacity" values="0; 0.3; 0" dur="4.161164471773041s" begin="4.50115363775735s" repeatCount="indefinite"/>
            F0A11AAAAFF1
        </text>

        <text x="217" y="802" transform="rotate(0, 217, 802)" font-family="monospace" font-size="8" fill="#00F0FF" letter-spacing="2" opacity="0">
            <animate attributeName="opacity" values="0; 0.3; 0" dur="4.019210009799454s" begin="0.0005759019051104763s" repeatCount="indefinite"/>
            001F0A1F1
        </text>

        <text x="174" y="803" transform="rotate(0, 174, 803)" font-family="monospace" font-size="8" fill="#00F0FF" letter-spacing="2" opacity="0">
            <animate attributeName="opacity" values="0; 0.3; 0" dur="2.6850695800153828s" begin="0.2557500840955418s" repeatCount="indefinite"/>
            F0A010AF
        </text>

        <text x="13" y="190" transform="rotate(90, 13, 190)" font-family="monospace" font-size="8" fill="#00F0FF" letter-spacing="2" opacity="0">
            <animate attributeName="opacity" values="0; 0.3; 0" dur="5.340367699393095s" begin="3.6942224734650524s" repeatCount="indefinite"/>
            00F0A1
        </text>

        <text x="372" y="585" transform="rotate(90, 372, 585)" font-family="monospace" font-size="8" fill="#00F0FF" letter-spacing="2" opacity="0">
            <animate attributeName="opacity" values="0; 0.3; 0" dur="5.485559298753815s" begin="4.014217242732377s" repeatCount="indefinite"/>
            0A110A01
        </text>

        <text x="262" y="106" transform="rotate(0, 262, 106)" font-family="monospace" font-size="8" fill="#00F0FF" letter-spacing="2" opacity="0">
            <animate attributeName="opacity" values="0; 0.3; 0" dur="4.447560470571478s" begin="2.251840402732927s" repeatCount="indefinite"/>
            000FFFAF1010
        </text>

        <text x="527" y="253" transform="rotate(0, 527, 253)" font-family="monospace" font-size="8" fill="#00F0FF" letter-spacing="2" opacity="0">
            <animate attributeName="opacity" values="0; 0.3; 0" dur="3.126039217739717s" begin="0.935720433814522s" repeatCount="indefinite"/>
            AA00
        </text>

        <text x="140" y="375" transform="rotate(90, 140, 375)" font-family="monospace" font-size="8" fill="#00F0FF" letter-spacing="2" opacity="0">
            <animate attributeName="opacity" values="0; 0.3; 0" dur="4.465916776726931s" begin="4.725604495670011s" repeatCount="indefinite"/>
            FF0AAAA1
        </text>

    <g transform="translate(40, 80)" fill="url(#grad-silver)" font-family="'Cormorant Garamond', serif" font-size="18" font-style="italic" filter="url(#glow-soft)" opacity="0.8">
        <animateTransform attributeName="transform" type="translate" values="40,80; 40,70; 40,80" dur="8s" repeatCount="indefinite"/>
        <text x="0" y="0">H(X) = - ∑ p(x) log<tspan dy="6" font-size="12">2</tspan><tspan dy="-6"> p(x)</tspan></text>
    </g>
    <g transform="translate(380, 650)" fill="url(#grad-silver)" font-family="'Cormorant Garamond', serif" font-size="18" font-style="italic" filter="url(#glow-soft)" opacity="0.8">
        <animateTransform attributeName="transform" type="translate" values="380,650; 380,640; 380,650" dur="9s" repeatCount="indefinite"/>
        <text x="0" y="0">C = B log<tspan dy="6" font-size="12">2</tspan><tspan dy="-6">(1 + S/N)</tspan></text>
    </g>
    
    <path d="M 190.0 270.0 L 190.4 270.1 L 190.9 270.4 L 191.3 271.0 L 191.5 271.8 L 191.3 272.7 L 190.9 273.6 L 190.1 274.5 L 189.1 275.3 L 187.6 275.7 L 185.9 275.7 L 184.2 275.1 L 182.4 274.3 L 181.0 272.6 L 179.6 270.7 L 178.9 268.3 L 178.6 265.4 L 179.2 262.8 L 180.6 259.6 L 182.2 257.0 L 184.9 254.7 L 188.5 253.2 L 192.1 252.3 L 196.4 252.2 L 200.4 253.0 L 204.5 255.3 L 208.2 258.1 L 211.8 262.4 L 213.9 266.8 L 214.7 272.3 L 214.5 277.8 L 213.5 283.8 L 210.5 288.9 L 206.6 294.3 L 200.9 298.3 L 194.6 300.6 L 187.8 302.2 L 180.7 302.2 L 173.7 300.1 L 166.2 297.0 L 160.1 291.9 L 155.2 284.6 L 151.7 277.0 L 150.3 268.4 L 150.1 259.9 L 152.1 251.1 L 156.3 242.4 L 163.1 234.8 L 170.7 228.4 L 179.5 224.3 L 190.0 222.6 L 200.6 221.8 L 211.0 224.1 L 221.1 229.1 L 231.0 236.8 L 237.4 246.1 L 243.2 255.8 L 245.7 268.3 L 245.8 281.0 L 243.6 292.8 L 238.5 304.6 L 230.2 315.6 L 219.6 324.0 L 208.0 330.1 L 193.8 334.1 L 179.6 335.0 L 165.6 332.7 L 152.2 326.1 L 139.1 316.8 L 129.3 306.0 L 122.2 292.6 L 118.0 276.3 L 115.8 261.2 L 119.1 244.8 L 124.8 228.8 L 135.5 214.2 L 148.0 203.7 L 163.5 194.5 L 179.7 189.1 L 198.5 186.7 L 216.1 190.7 L 233.6 197.2 L 249.0 206.3 L 262.8 220.0 L 272.8 237.3 L 279.3 255.3 L 282.1 275.3 L 279.1 295.4 L 272.9 315.8 L 262.6 333.9 L 246.3 348.8 L 228.7 359.9 L 208.5 368.3 L 187.5 371.4 L 165.4 369.5 L 143.7 361.7 L 122.5 350.8 L 106.4 334.3 L 92.7 316.4 L 83.0 293.0 " fill="none" stroke="url(#grad-gold)" stroke-width="1.5" opacity="0.3" filter="url(#glow-soft)"/>

            <g filter="url(#glow-intense)">
                <path d="M 190.0 270.0 L 190.4 270.1 L 190.9 270.4 L 191.3 271.0 L 191.5 271.8 L 191.3 272.7 L 190.9 273.6 L 190.1 274.5 L 189.1 275.3 L 187.6 275.7 L 185.9 275.7 L 184.2 275.1 L 182.4 274.3 L 181.0 272.6 L 179.6 270.7 L 178.9 268.3 L 178.6 265.4 L 179.2 262.8 L 180.6 259.6 L 182.2 257.0 L 184.9 254.7 L 188.5 253.2 L 192.1 252.3 L 196.4 252.2 L 200.4 253.0 L 204.5 255.3 L 208.2 258.1 L 211.8 262.4 L 213.9 266.8 L 214.7 272.3 L 214.5 277.8 L 213.5 283.8 L 210.5 288.9 L 206.6 294.3 L 200.9 298.3 L 194.6 300.6 L 187.8 302.2 L 180.7 302.2 L 173.7 300.1 L 166.2 297.0 L 160.1 291.9 L 155.2 284.6 L 151.7 277.0 L 150.3 268.4 L 150.1 259.9 L 152.1 251.1 L 156.3 242.4 L 163.1 234.8 L 170.7 228.4 L 179.5 224.3 L 190.0 222.6 L 200.6 221.8 L 211.0 224.1 L 221.1 229.1 L 231.0 236.8 L 237.4 246.1 L 243.2 255.8 L 245.7 268.3 L 245.8 281.0 L 243.6 292.8 L 238.5 304.6 L 230.2 315.6 L 219.6 324.0 L 208.0 330.1 L 193.8 334.1 L 179.6 335.0 L 165.6 332.7 L 152.2 326.1 L 139.1 316.8 L 129.3 306.0 L 122.2 292.6 L 118.0 276.3 L 115.8 261.2 L 119.1 244.8 L 124.8 228.8 L 135.5 214.2 L 148.0 203.7 L 163.5 194.5 L 179.7 189.1 L 198.5 186.7 L 216.1 190.7 L 233.6 197.2 L 249.0 206.3 L 262.8 220.0 L 272.8 237.3 L 279.3 255.3 L 282.1 275.3 L 279.1 295.4 L 272.9 315.8 L 262.6 333.9 L 246.3 348.8 L 228.7 359.9 L 208.5 368.3 L 187.5 371.4 L 165.4 369.5 L 143.7 361.7 L 122.5 350.8 L 106.4 334.3 L 92.7 316.4 L 83.0 293.0 " fill="none" stroke="url(#grad-gold)" stroke-width="2.5" stroke-dasharray="60 180" stroke-linecap="round" opacity="0.9">
                    <animate attributeName="stroke-dashoffset" from="1000" to="0" dur="11.660785634386166s" repeatCount="indefinite" direction="reverse"/>
                </path>
            </g>
            <path d="M 190.0 270.0 L 189.9 270.4 L 189.6 270.9 L 189.0 271.3 L 188.2 271.5 L 187.3 271.4 L 186.3 270.9 L 185.4 270.1 L 184.8 269.0 L 184.4 267.6 L 184.3 266.0 L 184.8 264.1 L 185.8 262.5 L 187.4 260.9 L 189.2 259.7 L 191.6 258.7 L 194.6 258.6 L 197.3 259.0 L 200.3 260.5 L 202.9 262.5 L 205.2 265.1 L 206.6 268.4 L 207.8 272.3 L 207.7 276.5 L 207.0 280.4 L 204.6 284.9 L 201.7 288.3 L 197.7 291.4 L 193.2 293.8 L 187.6 294.6 L 181.8 294.7 L 176.2 293.0 L 170.9 290.6 L 166.1 286.6 L 161.7 281.4 L 159.1 275.1 L 158.1 268.2 L 157.7 260.9 L 159.5 253.6 L 163.0 246.6 L 168.7 240.2 L 175.1 235.7 L 182.7 231.6 L 191.6 230.4 L 200.1 230.5 L 209.4 232.5 L 217.3 236.5 L 224.9 242.7 L 231.1 250.4 L 235.6 260.1 L 238.2 269.9 L 237.9 280.5 L 235.0 291.2 L 231.0 301.8 L 223.5 310.2 L 214.9 317.6 L 203.7 323.3 L 191.8 326.0 L 179.4 326.8 L 166.6 323.8 L 155.2 318.3 L 144.5 310.1 L 136.2 300.1 L 129.7 287.7 L 125.2 274.3 L 125.7 259.9 L 128.1 244.8 L 133.5 231.8 L 142.3 219.6 L 153.8 208.8 L 167.6 202.0 L 183.0 197.6 L 200.0 197.0 L 216.0 198.7 L 231.4 205.3 L 245.3 215.5 L 257.3 227.7 L 265.1 242.5 L 270.5 259.0 L 272.8 278.0 L 270.1 295.4 L 263.8 312.8 L 252.4 329.0 L 239.9 343.6 L 223.3 353.7 L 203.4 359.5 L 185.0 362.2 L 163.2 358.6 L 145.4 352.7 L 126.3 341.2 L 111.1 327.3 L 100.0 309.1 L 92.3 289.0 L 88.6 266.1 L 90.3 244.2 L 97.8 223.0 L 109.0 203.3 L 124.2 185.3 L 143.9 173.3 L 166.7 164.0 " fill="none" stroke="url(#grad-gold)" stroke-width="1.5" opacity="0.3" filter="url(#glow-soft)"/>

            <g filter="url(#glow-intense)">
                <path d="M 190.0 270.0 L 189.9 270.4 L 189.6 270.9 L 189.0 271.3 L 188.2 271.5 L 187.3 271.4 L 186.3 270.9 L 185.4 270.1 L 184.8 269.0 L 184.4 267.6 L 184.3 266.0 L 184.8 264.1 L 185.8 262.5 L 187.4 260.9 L 189.2 259.7 L 191.6 258.7 L 194.6 258.6 L 197.3 259.0 L 200.3 260.5 L 202.9 262.5 L 205.2 265.1 L 206.6 268.4 L 207.8 272.3 L 207.7 276.5 L 207.0 280.4 L 204.6 284.9 L 201.7 288.3 L 197.7 291.4 L 193.2 293.8 L 187.6 294.6 L 181.8 294.7 L 176.2 293.0 L 170.9 290.6 L 166.1 286.6 L 161.7 281.4 L 159.1 275.1 L 158.1 268.2 L 157.7 260.9 L 159.5 253.6 L 163.0 246.6 L 168.7 240.2 L 175.1 235.7 L 182.7 231.6 L 191.6 230.4 L 200.1 230.5 L 209.4 232.5 L 217.3 236.5 L 224.9 242.7 L 231.1 250.4 L 235.6 260.1 L 238.2 269.9 L 237.9 280.5 L 235.0 291.2 L 231.0 301.8 L 223.5 310.2 L 214.9 317.6 L 203.7 323.3 L 191.8 326.0 L 179.4 326.8 L 166.6 323.8 L 155.2 318.3 L 144.5 310.1 L 136.2 300.1 L 129.7 287.7 L 125.2 274.3 L 125.7 259.9 L 128.1 244.8 L 133.5 231.8 L 142.3 219.6 L 153.8 208.8 L 167.6 202.0 L 183.0 197.6 L 200.0 197.0 L 216.0 198.7 L 231.4 205.3 L 245.3 215.5 L 257.3 227.7 L 265.1 242.5 L 270.5 259.0 L 272.8 278.0 L 270.1 295.4 L 263.8 312.8 L 252.4 329.0 L 239.9 343.6 L 223.3 353.7 L 203.4 359.5 L 185.0 362.2 L 163.2 358.6 L 145.4 352.7 L 126.3 341.2 L 111.1 327.3 L 100.0 309.1 L 92.3 289.0 L 88.6 266.1 L 90.3 244.2 L 97.8 223.0 L 109.0 203.3 L 124.2 185.3 L 143.9 173.3 L 166.7 164.0 " fill="none" stroke="url(#grad-gold)" stroke-width="2.5" stroke-dasharray="60 180" stroke-linecap="round" opacity="0.9">
                    <animate attributeName="stroke-dashoffset" from="1000" to="0" dur="9.574214137474234s" repeatCount="indefinite" direction="normal"/>
                </path>
            </g>
            <path d="M 190.0 270.0 L 189.6 269.9 L 189.1 269.6 L 188.7 269.0 L 188.5 268.2 L 188.6 267.3 L 189.0 266.3 L 189.8 265.5 L 191.1 264.8 L 192.4 264.5 L 194.2 264.4 L 195.9 264.9 L 197.5 265.9 L 199.1 267.4 L 200.5 269.5 L 201.2 271.8 L 201.4 274.3 L 200.8 277.4 L 199.7 280.1 L 197.5 283.1 L 195.0 285.1 L 191.5 286.6 L 187.8 287.7 L 183.6 287.6 L 179.4 286.6 L 175.5 284.7 L 171.8 281.9 L 168.7 277.6 L 166.1 273.3 L 165.0 267.5 L 165.4 261.8 L 166.8 256.4 L 169.3 250.9 L 173.5 245.9 L 179.1 241.9 L 184.8 239.4 L 192.1 238.1 L 199.4 237.9 L 206.3 239.9 L 213.8 243.7 L 219.8 248.3 L 224.4 255.3 L 228.2 262.5 L 230.3 271.6 L 229.7 279.8 L 227.5 288.8 L 223.1 297.9 L 216.9 305.2 L 209.1 311.0 L 200.3 315.9 L 190.4 318.3 L 179.5 318.1 L 168.7 315.1 L 158.7 310.9 L 149.7 303.4 L 142.7 293.9 L 137.4 283.5 L 134.5 271.5 L 133.3 259.5 L 136.0 246.9 L 141.7 235.3 L 149.6 224.8 L 159.8 215.2 L 172.3 209.8 L 185.6 206.1 L 200.3 204.9 L 215.0 207.8 L 228.1 213.3 L 241.1 222.2 L 251.0 234.7 L 257.8 248.3 L 262.9 263.0 L 263.9 278.8 L 260.5 295.6 L 255.1 310.7 L 244.6 325.6 L 232.4 337.1 L 217.9 345.6 L 200.3 350.2 L 182.3 352.8 L 164.2 350.6 L 147.1 344.1 L 131.1 332.8 L 116.6 319.3 L 107.3 302.8 L 99.9 284.2 L 98.5 263.6 L 100.4 244.1 L 108.1 224.8 L 118.7 207.6 L 132.7 191.3 L 151.8 179.2 L 170.7 172.1 L 193.9 169.0 L 215.5 171.6 L 237.7 177.2 L 257.4 189.2 L 273.4 205.9 L 286.4 223.3 L 296.2 245.4 " fill="none" stroke="url(#grad-gold)" stroke-width="1.5" opacity="0.3" filter="url(#glow-soft)"/>

            <g filter="url(#glow-intense)">
                <path d="M 190.0 270.0 L 189.6 269.9 L 189.1 269.6 L 188.7 269.0 L 188.5 268.2 L 188.6 267.3 L 189.0 266.3 L 189.8 265.5 L 191.1 264.8 L 192.4 264.5 L 194.2 264.4 L 195.9 264.9 L 197.5 265.9 L 199.1 267.4 L 200.5 269.5 L 201.2 271.8 L 201.4 274.3 L 200.8 277.4 L 199.7 280.1 L 197.5 283.1 L 195.0 285.1 L 191.5 286.6 L 187.8 287.7 L 183.6 287.6 L 179.4 286.6 L 175.5 284.7 L 171.8 281.9 L 168.7 277.6 L 166.1 273.3 L 165.0 267.5 L 165.4 261.8 L 166.8 256.4 L 169.3 250.9 L 173.5 245.9 L 179.1 241.9 L 184.8 239.4 L 192.1 238.1 L 199.4 237.9 L 206.3 239.9 L 213.8 243.7 L 219.8 248.3 L 224.4 255.3 L 228.2 262.5 L 230.3 271.6 L 229.7 279.8 L 227.5 288.8 L 223.1 297.9 L 216.9 305.2 L 209.1 311.0 L 200.3 315.9 L 190.4 318.3 L 179.5 318.1 L 168.7 315.1 L 158.7 310.9 L 149.7 303.4 L 142.7 293.9 L 137.4 283.5 L 134.5 271.5 L 133.3 259.5 L 136.0 246.9 L 141.7 235.3 L 149.6 224.8 L 159.8 215.2 L 172.3 209.8 L 185.6 206.1 L 200.3 204.9 L 215.0 207.8 L 228.1 213.3 L 241.1 222.2 L 251.0 234.7 L 257.8 248.3 L 262.9 263.0 L 263.9 278.8 L 260.5 295.6 L 255.1 310.7 L 244.6 325.6 L 232.4 337.1 L 217.9 345.6 L 200.3 350.2 L 182.3 352.8 L 164.2 350.6 L 147.1 344.1 L 131.1 332.8 L 116.6 319.3 L 107.3 302.8 L 99.9 284.2 L 98.5 263.6 L 100.4 244.1 L 108.1 224.8 L 118.7 207.6 L 132.7 191.3 L 151.8 179.2 L 170.7 172.1 L 193.9 169.0 L 215.5 171.6 L 237.7 177.2 L 257.4 189.2 L 273.4 205.9 L 286.4 223.3 L 296.2 245.4 " fill="none" stroke="url(#grad-gold)" stroke-width="2.5" stroke-dasharray="60 180" stroke-linecap="round" opacity="0.9">
                    <animate attributeName="stroke-dashoffset" from="1000" to="0" dur="13.16298551650257s" repeatCount="indefinite" direction="reverse"/>
                </path>
            </g>
            <path d="M 190.0 270.0 L 190.1 269.6 L 190.4 269.1 L 191.0 268.7 L 191.8 268.5 L 192.6 268.6 L 193.7 269.0 L 194.5 269.8 L 195.2 271.0 L 195.6 272.5 L 195.7 274.1 L 195.1 275.9 L 194.2 277.6 L 192.6 279.0 L 190.7 280.4 L 188.3 281.2 L 185.5 281.5 L 182.6 280.9 L 179.6 279.7 L 177.1 277.7 L 174.6 275.0 L 173.2 271.7 L 172.4 267.6 L 172.1 263.6 L 173.5 259.2 L 175.2 255.3 L 178.5 251.3 L 182.5 248.7 L 187.2 246.4 L 192.4 245.3 L 198.0 245.0 L 203.5 246.8 L 209.1 249.3 L 214.1 253.3 L 217.7 259.1 L 221.1 265.4 L 222.6 272.2 L 222.3 279.0 L 220.4 286.2 L 216.3 293.4 L 211.3 299.7 L 204.9 304.7 L 197.0 307.9 L 188.3 310.3 L 179.9 310.1 L 170.6 307.9 L 162.4 303.5 L 155.1 297.1 L 148.8 289.7 L 144.2 280.0 L 142.6 270.4 L 142.3 259.2 L 144.5 248.7 L 149.9 238.5 L 157.1 229.9 L 165.5 221.8 L 176.3 217.0 L 188.4 214.0 L 200.4 214.2 L 213.7 216.1 L 225.0 221.2 L 235.0 230.3 L 244.8 239.7 L 250.7 251.9 L 254.8 265.6 L 254.4 280.3 L 252.4 294.8 L 246.3 307.8 L 236.8 320.7 L 226.2 330.8 L 212.6 338.8 L 197.0 342.2 L 180.1 343.8 L 164.3 340.4 L 148.8 334.2 L 134.6 324.6 L 123.2 311.7 L 114.8 297.6 L 109.8 279.5 L 107.9 262.5 L 109.8 243.2 L 116.2 225.9 L 127.5 211.2 L 141.3 197.0 L 157.8 187.4 L 175.1 180.3 L 195.7 178.3 L 215.3 179.8 L 236.0 186.5 L 254.1 198.8 L 267.8 213.2 L 279.7 230.6 L 287.2 252.0 L 290.8 272.9 L 288.2 294.7 L 282.8 317.5 L 270.3 337.2 L 254.2 354.7 L 234.9 367.4 L 214.6 376.1 " fill="none" stroke="url(#grad-gold)" stroke-width="1.5" opacity="0.3" filter="url(#glow-soft)"/>

            <g filter="url(#glow-intense)">
                <path d="M 190.0 270.0 L 190.1 269.6 L 190.4 269.1 L 191.0 268.7 L 191.8 268.5 L 192.6 268.6 L 193.7 269.0 L 194.5 269.8 L 195.2 271.0 L 195.6 272.5 L 195.7 274.1 L 195.1 275.9 L 194.2 277.6 L 192.6 279.0 L 190.7 280.4 L 188.3 281.2 L 185.5 281.5 L 182.6 280.9 L 179.6 279.7 L 177.1 277.7 L 174.6 275.0 L 173.2 271.7 L 172.4 267.6 L 172.1 263.6 L 173.5 259.2 L 175.2 255.3 L 178.5 251.3 L 182.5 248.7 L 187.2 246.4 L 192.4 245.3 L 198.0 245.0 L 203.5 246.8 L 209.1 249.3 L 214.1 253.3 L 217.7 259.1 L 221.1 265.4 L 222.6 272.2 L 222.3 279.0 L 220.4 286.2 L 216.3 293.4 L 211.3 299.7 L 204.9 304.7 L 197.0 307.9 L 188.3 310.3 L 179.9 310.1 L 170.6 307.9 L 162.4 303.5 L 155.1 297.1 L 148.8 289.7 L 144.2 280.0 L 142.6 270.4 L 142.3 259.2 L 144.5 248.7 L 149.9 238.5 L 157.1 229.9 L 165.5 221.8 L 176.3 217.0 L 188.4 214.0 L 200.4 214.2 L 213.7 216.1 L 225.0 221.2 L 235.0 230.3 L 244.8 239.7 L 250.7 251.9 L 254.8 265.6 L 254.4 280.3 L 252.4 294.8 L 246.3 307.8 L 236.8 320.7 L 226.2 330.8 L 212.6 338.8 L 197.0 342.2 L 180.1 343.8 L 164.3 340.4 L 148.8 334.2 L 134.6 324.6 L 123.2 311.7 L 114.8 297.6 L 109.8 279.5 L 107.9 262.5 L 109.8 243.2 L 116.2 225.9 L 127.5 211.2 L 141.3 197.0 L 157.8 187.4 L 175.1 180.3 L 195.7 178.3 L 215.3 179.8 L 236.0 186.5 L 254.1 198.8 L 267.8 213.2 L 279.7 230.6 L 287.2 252.0 L 290.8 272.9 L 288.2 294.7 L 282.8 317.5 L 270.3 337.2 L 254.2 354.7 L 234.9 367.4 L 214.6 376.1 " fill="none" stroke="url(#grad-gold)" stroke-width="2.5" stroke-dasharray="60 180" stroke-linecap="round" opacity="0.9">
                    <animate attributeName="stroke-dashoffset" from="1000" to="0" dur="12.087636469826597s" repeatCount="indefinite" direction="normal"/>
                </path>
            </g>
            <path d="M 410.0 270.0 L 410.2 270.4 L 410.3 270.9 L 410.2 271.6 L 409.8 272.3 L 409.0 272.9 L 408.1 273.2 L 406.9 273.3 L 405.7 273.0 L 404.3 272.2 L 403.2 271.0 L 402.2 269.5 L 401.8 267.6 L 401.7 265.5 L 402.1 263.1 L 403.3 261.0 L 405.0 258.8 L 407.7 257.2 L 410.6 255.9 L 413.6 255.7 L 417.3 255.7 L 420.8 257.1 L 424.1 259.2 L 427.3 262.0 L 429.1 265.8 L 430.9 269.8 L 431.1 274.5 L 430.6 279.9 L 428.8 284.8 L 425.7 289.4 L 421.5 293.0 L 416.7 296.4 L 411.2 297.9 L 404.7 298.4 L 398.1 297.8 L 391.3 295.2 L 385.5 291.4 L 380.6 285.8 L 376.9 279.9 L 374.6 272.3 L 373.4 264.4 L 374.6 256.3 L 377.9 247.8 L 383.0 241.1 L 388.8 234.7 L 396.5 229.5 L 405.7 226.9 L 415.4 225.7 L 425.7 227.1 L 434.8 230.8 L 443.5 236.4 L 451.0 243.5 L 457.6 252.6 L 461.1 264.0 L 462.5 275.3 L 461.5 286.5 L 456.9 297.8 L 450.5 308.7 L 442.2 317.8 L 432.0 324.1 L 419.6 329.3 L 405.8 330.6 L 392.4 330.0 L 380.1 325.2 L 368.0 318.0 L 356.6 308.5 L 348.8 297.0 L 343.5 283.0 L 340.4 268.1 L 341.4 252.6 L 345.8 236.9 L 353.9 222.9 L 364.7 211.8 L 377.8 201.2 L 393.5 195.0 L 409.4 191.4 L 427.7 193.4 L 444.7 196.9 L 460.4 206.3 L 473.2 216.8 L 484.7 232.0 L 493.0 248.9 L 496.4 267.9 L 496.8 286.7 L 492.7 305.0 L 482.8 323.4 L 470.9 338.4 L 454.0 352.2 L 436.6 361.4 L 416.9 365.5 L 394.4 366.3 L 374.2 362.2 L 354.1 352.4 L 336.2 338.4 L 323.0 321.1 L 311.1 302.8 L 305.9 280.0 L 305.2 256.7 L 309.7 233.2 L 317.7 210.8 " fill="none" stroke="url(#grad-cyan)" stroke-width="1.5" opacity="0.3" filter="url(#glow-soft)"/>

            <g filter="url(#glow-intense)">
                <path d="M 410.0 270.0 L 410.2 270.4 L 410.3 270.9 L 410.2 271.6 L 409.8 272.3 L 409.0 272.9 L 408.1 273.2 L 406.9 273.3 L 405.7 273.0 L 404.3 272.2 L 403.2 271.0 L 402.2 269.5 L 401.8 267.6 L 401.7 265.5 L 402.1 263.1 L 403.3 261.0 L 405.0 258.8 L 407.7 257.2 L 410.6 255.9 L 413.6 255.7 L 417.3 255.7 L 420.8 257.1 L 424.1 259.2 L 427.3 262.0 L 429.1 265.8 L 430.9 269.8 L 431.1 274.5 L 430.6 279.9 L 428.8 284.8 L 425.7 289.4 L 421.5 293.0 L 416.7 296.4 L 411.2 297.9 L 404.7 298.4 L 398.1 297.8 L 391.3 295.2 L 385.5 291.4 L 380.6 285.8 L 376.9 279.9 L 374.6 272.3 L 373.4 264.4 L 374.6 256.3 L 377.9 247.8 L 383.0 241.1 L 388.8 234.7 L 396.5 229.5 L 405.7 226.9 L 415.4 225.7 L 425.7 227.1 L 434.8 230.8 L 443.5 236.4 L 451.0 243.5 L 457.6 252.6 L 461.1 264.0 L 462.5 275.3 L 461.5 286.5 L 456.9 297.8 L 450.5 308.7 L 442.2 317.8 L 432.0 324.1 L 419.6 329.3 L 405.8 330.6 L 392.4 330.0 L 380.1 325.2 L 368.0 318.0 L 356.6 308.5 L 348.8 297.0 L 343.5 283.0 L 340.4 268.1 L 341.4 252.6 L 345.8 236.9 L 353.9 222.9 L 364.7 211.8 L 377.8 201.2 L 393.5 195.0 L 409.4 191.4 L 427.7 193.4 L 444.7 196.9 L 460.4 206.3 L 473.2 216.8 L 484.7 232.0 L 493.0 248.9 L 496.4 267.9 L 496.8 286.7 L 492.7 305.0 L 482.8 323.4 L 470.9 338.4 L 454.0 352.2 L 436.6 361.4 L 416.9 365.5 L 394.4 366.3 L 374.2 362.2 L 354.1 352.4 L 336.2 338.4 L 323.0 321.1 L 311.1 302.8 L 305.9 280.0 L 305.2 256.7 L 309.7 233.2 L 317.7 210.8 " fill="none" stroke="url(#grad-cyan)" stroke-width="2.5" stroke-dasharray="60 180" stroke-linecap="round" opacity="0.9">
                    <animate attributeName="stroke-dashoffset" from="1000" to="0" dur="9.893198269787428s" repeatCount="indefinite" direction="reverse"/>
                </path>
            </g>
            <path d="M 410.0 270.0 L 409.6 270.2 L 409.0 270.3 L 408.4 270.2 L 407.7 269.8 L 407.2 269.1 L 406.8 268.1 L 406.6 266.9 L 407.0 265.7 L 407.7 264.3 L 409.0 263.2 L 410.6 262.2 L 412.3 261.7 L 414.5 261.6 L 417.0 262.3 L 419.2 263.5 L 421.1 265.3 L 422.8 267.6 L 424.1 270.4 L 424.7 273.6 L 424.1 277.2 L 422.9 281.0 L 421.2 284.1 L 418.2 286.8 L 414.2 289.3 L 410.2 290.8 L 405.4 291.1 L 400.5 290.5 L 395.4 288.7 L 390.9 286.0 L 386.8 281.7 L 384.1 276.9 L 382.2 271.0 L 381.3 264.6 L 382.5 258.0 L 384.9 251.7 L 388.6 245.8 L 394.2 241.1 L 400.3 237.2 L 407.5 234.7 L 415.9 233.6 L 423.6 235.2 L 431.4 237.8 L 439.4 242.4 L 445.4 248.9 L 450.3 256.8 L 452.7 266.0 L 453.8 275.8 L 453.3 285.0 L 449.5 295.4 L 444.0 303.9 L 436.6 311.9 L 427.5 317.1 L 416.9 321.2 L 405.1 322.5 L 393.6 321.5 L 382.1 317.6 L 372.0 310.9 L 363.1 302.6 L 355.3 291.9 L 351.5 279.5 L 348.9 266.5 L 350.1 253.1 L 354.6 239.0 L 361.4 227.0 L 371.7 216.7 L 383.3 209.2 L 397.9 203.5 L 412.8 200.4 L 427.9 201.2 L 442.5 205.9 L 456.6 213.3 L 468.2 224.8 L 478.6 237.3 L 484.6 252.8 L 488.0 270.7 L 487.7 286.8 L 483.0 304.0 L 474.8 320.7 L 462.1 333.9 L 448.4 345.0 L 431.1 352.8 L 413.5 357.0 L 393.0 356.6 L 374.0 351.5 L 357.3 342.6 L 341.4 330.1 L 328.8 314.3 L 318.6 296.3 L 314.0 275.7 L 313.7 254.5 L 318.5 234.7 L 326.9 213.3 L 340.8 195.9 L 358.9 181.4 L 377.4 171.4 L 400.8 166.3 L 423.4 165.0 L 445.6 169.5 L 468.7 178.8 " fill="none" stroke="url(#grad-cyan)" stroke-width="1.5" opacity="0.3" filter="url(#glow-soft)"/>

            <g filter="url(#glow-intense)">
                <path d="M 410.0 270.0 L 409.6 270.2 L 409.0 270.3 L 408.4 270.2 L 407.7 269.8 L 407.2 269.1 L 406.8 268.1 L 406.6 266.9 L 407.0 265.7 L 407.7 264.3 L 409.0 263.2 L 410.6 262.2 L 412.3 261.7 L 414.5 261.6 L 417.0 262.3 L 419.2 263.5 L 421.1 265.3 L 422.8 267.6 L 424.1 270.4 L 424.7 273.6 L 424.1 277.2 L 422.9 281.0 L 421.2 284.1 L 418.2 286.8 L 414.2 289.3 L 410.2 290.8 L 405.4 291.1 L 400.5 290.5 L 395.4 288.7 L 390.9 286.0 L 386.8 281.7 L 384.1 276.9 L 382.2 271.0 L 381.3 264.6 L 382.5 258.0 L 384.9 251.7 L 388.6 245.8 L 394.2 241.1 L 400.3 237.2 L 407.5 234.7 L 415.9 233.6 L 423.6 235.2 L 431.4 237.8 L 439.4 242.4 L 445.4 248.9 L 450.3 256.8 L 452.7 266.0 L 453.8 275.8 L 453.3 285.0 L 449.5 295.4 L 444.0 303.9 L 436.6 311.9 L 427.5 317.1 L 416.9 321.2 L 405.1 322.5 L 393.6 321.5 L 382.1 317.6 L 372.0 310.9 L 363.1 302.6 L 355.3 291.9 L 351.5 279.5 L 348.9 266.5 L 350.1 253.1 L 354.6 239.0 L 361.4 227.0 L 371.7 216.7 L 383.3 209.2 L 397.9 203.5 L 412.8 200.4 L 427.9 201.2 L 442.5 205.9 L 456.6 213.3 L 468.2 224.8 L 478.6 237.3 L 484.6 252.8 L 488.0 270.7 L 487.7 286.8 L 483.0 304.0 L 474.8 320.7 L 462.1 333.9 L 448.4 345.0 L 431.1 352.8 L 413.5 357.0 L 393.0 356.6 L 374.0 351.5 L 357.3 342.6 L 341.4 330.1 L 328.8 314.3 L 318.6 296.3 L 314.0 275.7 L 313.7 254.5 L 318.5 234.7 L 326.9 213.3 L 340.8 195.9 L 358.9 181.4 L 377.4 171.4 L 400.8 166.3 L 423.4 165.0 L 445.6 169.5 L 468.7 178.8 " fill="none" stroke="url(#grad-cyan)" stroke-width="2.5" stroke-dasharray="60 180" stroke-linecap="round" opacity="0.9">
                    <animate attributeName="stroke-dashoffset" from="1000" to="0" dur="9.331785079620008s" repeatCount="indefinite" direction="normal"/>
                </path>
            </g>
            <path d="M 410.0 270.0 L 409.8 269.6 L 409.7 269.1 L 409.8 268.4 L 410.2 267.7 L 410.9 267.1 L 411.9 266.8 L 413.0 266.7 L 414.4 267.0 L 415.7 267.7 L 416.9 268.8 L 417.9 270.4 L 418.2 272.5 L 418.4 274.5 L 417.7 277.0 L 416.7 279.2 L 414.9 281.1 L 412.6 282.9 L 409.7 283.9 L 406.1 284.5 L 402.6 284.2 L 399.3 283.2 L 395.9 281.0 L 393.1 278.1 L 390.8 274.2 L 389.1 269.8 L 388.5 265.0 L 389.5 260.1 L 391.4 255.4 L 394.2 251.0 L 398.0 247.1 L 403.5 244.1 L 409.1 242.0 L 415.7 241.4 L 422.0 242.6 L 428.7 245.0 L 434.3 248.4 L 439.3 254.2 L 443.0 260.4 L 445.7 267.6 L 446.3 275.7 L 445.3 283.7 L 441.9 291.6 L 437.1 299.5 L 431.3 305.6 L 422.6 310.0 L 414.5 313.6 L 404.6 314.3 L 394.1 313.0 L 385.1 309.4 L 376.0 303.4 L 368.2 296.0 L 363.1 287.4 L 358.9 276.0 L 357.4 265.2 L 358.5 253.3 L 363.1 241.8 L 369.3 231.2 L 377.9 222.6 L 388.2 215.8 L 400.9 210.6 L 413.2 209.3 L 427.1 210.1 L 440.5 215.0 L 452.9 222.0 L 462.5 230.9 L 471.7 243.3 L 476.3 257.2 L 479.8 272.1 L 478.3 288.2 L 473.9 302.9 L 466.9 316.8 L 455.4 329.1 L 442.2 338.7 L 426.0 344.9 L 410.1 347.4 L 393.4 347.3 L 376.0 342.3 L 360.4 335.0 L 346.0 322.3 L 334.6 307.9 L 327.7 290.7 L 323.0 272.1 L 323.3 253.0 L 328.7 234.1 L 336.0 216.1 L 349.0 200.8 L 364.3 187.8 L 383.8 179.3 L 403.1 174.6 L 425.0 174.1 L 445.8 178.3 L 466.3 187.6 L 483.6 200.7 L 497.4 218.9 L 508.1 238.9 L 515.2 259.6 L 515.5 284.0 L 510.9 306.4 L 501.4 328.7 " fill="none" stroke="url(#grad-cyan)" stroke-width="1.5" opacity="0.3" filter="url(#glow-soft)"/>

            <g filter="url(#glow-intense)">
                <path d="M 410.0 270.0 L 409.8 269.6 L 409.7 269.1 L 409.8 268.4 L 410.2 267.7 L 410.9 267.1 L 411.9 266.8 L 413.0 266.7 L 414.4 267.0 L 415.7 267.7 L 416.9 268.8 L 417.9 270.4 L 418.2 272.5 L 418.4 274.5 L 417.7 277.0 L 416.7 279.2 L 414.9 281.1 L 412.6 282.9 L 409.7 283.9 L 406.1 284.5 L 402.6 284.2 L 399.3 283.2 L 395.9 281.0 L 393.1 278.1 L 390.8 274.2 L 389.1 269.8 L 388.5 265.0 L 389.5 260.1 L 391.4 255.4 L 394.2 251.0 L 398.0 247.1 L 403.5 244.1 L 409.1 242.0 L 415.7 241.4 L 422.0 242.6 L 428.7 245.0 L 434.3 248.4 L 439.3 254.2 L 443.0 260.4 L 445.7 267.6 L 446.3 275.7 L 445.3 283.7 L 441.9 291.6 L 437.1 299.5 L 431.3 305.6 L 422.6 310.0 L 414.5 313.6 L 404.6 314.3 L 394.1 313.0 L 385.1 309.4 L 376.0 303.4 L 368.2 296.0 L 363.1 287.4 L 358.9 276.0 L 357.4 265.2 L 358.5 253.3 L 363.1 241.8 L 369.3 231.2 L 377.9 222.6 L 388.2 215.8 L 400.9 210.6 L 413.2 209.3 L 427.1 210.1 L 440.5 215.0 L 452.9 222.0 L 462.5 230.9 L 471.7 243.3 L 476.3 257.2 L 479.8 272.1 L 478.3 288.2 L 473.9 302.9 L 466.9 316.8 L 455.4 329.1 L 442.2 338.7 L 426.0 344.9 L 410.1 347.4 L 393.4 347.3 L 376.0 342.3 L 360.4 335.0 L 346.0 322.3 L 334.6 307.9 L 327.7 290.7 L 323.0 272.1 L 323.3 253.0 L 328.7 234.1 L 336.0 216.1 L 349.0 200.8 L 364.3 187.8 L 383.8 179.3 L 403.1 174.6 L 425.0 174.1 L 445.8 178.3 L 466.3 187.6 L 483.6 200.7 L 497.4 218.9 L 508.1 238.9 L 515.2 259.6 L 515.5 284.0 L 510.9 306.4 L 501.4 328.7 " fill="none" stroke="url(#grad-cyan)" stroke-width="2.5" stroke-dasharray="60 180" stroke-linecap="round" opacity="0.9">
                    <animate attributeName="stroke-dashoffset" from="1000" to="0" dur="12.631486736040905s" repeatCount="indefinite" direction="reverse"/>
                </path>
            </g>
            <path d="M 410.0 270.0 L 410.4 269.8 L 410.9 269.7 L 411.6 269.8 L 412.3 270.2 L 412.8 270.9 L 413.2 272.0 L 413.3 273.1 L 413.1 274.5 L 412.2 275.7 L 411.0 276.8 L 409.6 277.8 L 407.7 278.3 L 405.3 278.4 L 403.0 277.9 L 401.0 276.5 L 398.8 274.8 L 397.3 272.5 L 395.8 269.4 L 395.5 266.1 L 395.7 262.7 L 396.8 259.4 L 399.0 255.9 L 402.2 252.8 L 405.8 250.5 L 410.1 249.2 L 414.8 248.9 L 419.8 249.2 L 424.6 251.1 L 429.0 254.1 L 433.3 258.2 L 435.8 263.4 L 438.0 269.4 L 438.9 275.6 L 437.9 281.8 L 435.4 288.2 L 431.1 294.0 L 426.4 299.5 L 419.6 302.9 L 412.2 305.5 L 404.6 306.1 L 396.5 305.4 L 387.9 302.1 L 380.6 297.8 L 374.9 291.3 L 369.7 282.7 L 366.9 274.0 L 366.0 264.9 L 367.0 254.3 L 370.3 244.5 L 376.3 236.6 L 383.3 228.2 L 393.5 222.7 L 403.2 218.9 L 415.2 217.7 L 426.2 218.7 L 438.2 223.1 L 448.1 229.1 L 457.1 237.9 L 463.8 248.6 L 469.0 260.3 L 470.7 274.1 L 469.0 287.4 L 465.0 300.2 L 458.3 312.9 L 448.8 323.1 L 437.2 331.5 L 422.4 336.3 L 407.6 338.7 L 392.6 337.7 L 377.6 333.3 L 363.4 325.5 L 351.4 315.4 L 341.8 301.6 L 334.7 286.9 L 331.6 270.4 L 332.7 253.0 L 337.7 235.2 L 344.8 219.9 L 357.3 206.0 L 371.6 195.7 L 389.6 186.9 L 407.3 183.1 L 427.1 184.2 L 445.2 188.6 L 462.6 196.1 L 479.6 208.8 L 491.0 224.3 L 501.0 243.4 L 504.9 263.8 L 505.6 284.6 L 501.9 305.9 L 492.6 326.7 L 479.7 344.1 L 462.5 357.0 L 441.4 368.6 L 420.3 373.4 L 395.9 376.2 L 373.8 371.1 L 352.3 362.2 " fill="none" stroke="url(#grad-cyan)" stroke-width="1.5" opacity="0.3" filter="url(#glow-soft)"/>

            <g filter="url(#glow-intense)">
                <path d="M 410.0 270.0 L 410.4 269.8 L 410.9 269.7 L 411.6 269.8 L 412.3 270.2 L 412.8 270.9 L 413.2 272.0 L 413.3 273.1 L 413.1 274.5 L 412.2 275.7 L 411.0 276.8 L 409.6 277.8 L 407.7 278.3 L 405.3 278.4 L 403.0 277.9 L 401.0 276.5 L 398.8 274.8 L 397.3 272.5 L 395.8 269.4 L 395.5 266.1 L 395.7 262.7 L 396.8 259.4 L 399.0 255.9 L 402.2 252.8 L 405.8 250.5 L 410.1 249.2 L 414.8 248.9 L 419.8 249.2 L 424.6 251.1 L 429.0 254.1 L 433.3 258.2 L 435.8 263.4 L 438.0 269.4 L 438.9 275.6 L 437.9 281.8 L 435.4 288.2 L 431.1 294.0 L 426.4 299.5 L 419.6 302.9 L 412.2 305.5 L 404.6 306.1 L 396.5 305.4 L 387.9 302.1 L 380.6 297.8 L 374.9 291.3 L 369.7 282.7 L 366.9 274.0 L 366.0 264.9 L 367.0 254.3 L 370.3 244.5 L 376.3 236.6 L 383.3 228.2 L 393.5 222.7 L 403.2 218.9 L 415.2 217.7 L 426.2 218.7 L 438.2 223.1 L 448.1 229.1 L 457.1 237.9 L 463.8 248.6 L 469.0 260.3 L 470.7 274.1 L 469.0 287.4 L 465.0 300.2 L 458.3 312.9 L 448.8 323.1 L 437.2 331.5 L 422.4 336.3 L 407.6 338.7 L 392.6 337.7 L 377.6 333.3 L 363.4 325.5 L 351.4 315.4 L 341.8 301.6 L 334.7 286.9 L 331.6 270.4 L 332.7 253.0 L 337.7 235.2 L 344.8 219.9 L 357.3 206.0 L 371.6 195.7 L 389.6 186.9 L 407.3 183.1 L 427.1 184.2 L 445.2 188.6 L 462.6 196.1 L 479.6 208.8 L 491.0 224.3 L 501.0 243.4 L 504.9 263.8 L 505.6 284.6 L 501.9 305.9 L 492.6 326.7 L 479.7 344.1 L 462.5 357.0 L 441.4 368.6 L 420.3 373.4 L 395.9 376.2 L 373.8 371.1 L 352.3 362.2 " fill="none" stroke="url(#grad-cyan)" stroke-width="2.5" stroke-dasharray="60 180" stroke-linecap="round" opacity="0.9">
                    <animate attributeName="stroke-dashoffset" from="1000" to="0" dur="8.349343830796373s" repeatCount="indefinite" direction="normal"/>
                </path>
            </g>
            <path d="M 190.0 490.0 L 189.9 490.4 L 189.6 490.9 L 189.0 491.3 L 188.2 491.5 L 187.3 491.4 L 186.4 491.0 L 185.5 490.2 L 184.7 488.9 L 184.4 487.6 L 184.4 485.9 L 184.9 484.1 L 185.9 482.5 L 187.3 480.8 L 189.3 479.5 L 191.8 478.9 L 194.4 478.6 L 197.4 479.2 L 200.4 480.4 L 202.9 482.5 L 205.1 485.0 L 206.8 488.2 L 207.7 492.1 L 207.9 496.6 L 206.8 500.8 L 204.6 504.5 L 201.6 508.6 L 197.9 511.3 L 193.1 513.6 L 187.8 514.6 L 182.3 514.5 L 176.1 513.5 L 170.7 510.2 L 165.8 506.5 L 162.1 501.3 L 158.9 495.1 L 157.8 488.0 L 157.8 480.8 L 159.5 473.7 L 163.7 466.6 L 168.2 460.6 L 175.0 455.6 L 182.5 452.1 L 191.1 450.5 L 200.3 450.0 L 209.0 452.2 L 217.6 456.4 L 225.4 462.7 L 230.8 471.0 L 235.6 480.1 L 238.2 489.8 L 237.8 500.8 L 235.4 511.1 L 230.3 521.6 L 224.0 530.5 L 214.1 537.7 L 203.8 543.5 L 192.2 546.2 L 179.3 546.7 L 166.8 543.6 L 154.9 538.1 L 144.9 530.5 L 136.0 519.7 L 128.8 507.4 L 125.5 494.5 L 125.0 480.0 L 127.4 464.8 L 134.0 451.6 L 142.1 438.9 L 153.8 429.7 L 168.0 421.8 L 182.5 417.8 L 199.9 416.4 L 215.9 419.5 L 231.6 425.5 L 245.1 434.3 L 257.4 448.0 L 265.3 462.3 L 271.0 480.0 L 272.3 497.3 L 269.2 515.6 L 263.4 533.0 L 253.3 549.9 L 239.6 562.3 L 222.4 573.4 L 204.5 578.6 L 184.1 582.4 L 164.1 578.7 L 145.4 572.1 L 126.7 562.5 L 111.0 546.3 L 99.6 529.1 L 91.9 509.2 L 88.7 486.5 L 90.6 464.5 L 98.1 443.3 L 110.0 422.8 L 124.4 406.6 L 144.4 393.5 L 165.5 383.8 " fill="none" stroke="url(#grad-silver)" stroke-width="1.5" opacity="0.3" filter="url(#glow-soft)"/>

            <g filter="url(#glow-intense)">
                <path d="M 190.0 490.0 L 189.9 490.4 L 189.6 490.9 L 189.0 491.3 L 188.2 491.5 L 187.3 491.4 L 186.4 491.0 L 185.5 490.2 L 184.7 488.9 L 184.4 487.6 L 184.4 485.9 L 184.9 484.1 L 185.9 482.5 L 187.3 480.8 L 189.3 479.5 L 191.8 478.9 L 194.4 478.6 L 197.4 479.2 L 200.4 480.4 L 202.9 482.5 L 205.1 485.0 L 206.8 488.2 L 207.7 492.1 L 207.9 496.6 L 206.8 500.8 L 204.6 504.5 L 201.6 508.6 L 197.9 511.3 L 193.1 513.6 L 187.8 514.6 L 182.3 514.5 L 176.1 513.5 L 170.7 510.2 L 165.8 506.5 L 162.1 501.3 L 158.9 495.1 L 157.8 488.0 L 157.8 480.8 L 159.5 473.7 L 163.7 466.6 L 168.2 460.6 L 175.0 455.6 L 182.5 452.1 L 191.1 450.5 L 200.3 450.0 L 209.0 452.2 L 217.6 456.4 L 225.4 462.7 L 230.8 471.0 L 235.6 480.1 L 238.2 489.8 L 237.8 500.8 L 235.4 511.1 L 230.3 521.6 L 224.0 530.5 L 214.1 537.7 L 203.8 543.5 L 192.2 546.2 L 179.3 546.7 L 166.8 543.6 L 154.9 538.1 L 144.9 530.5 L 136.0 519.7 L 128.8 507.4 L 125.5 494.5 L 125.0 480.0 L 127.4 464.8 L 134.0 451.6 L 142.1 438.9 L 153.8 429.7 L 168.0 421.8 L 182.5 417.8 L 199.9 416.4 L 215.9 419.5 L 231.6 425.5 L 245.1 434.3 L 257.4 448.0 L 265.3 462.3 L 271.0 480.0 L 272.3 497.3 L 269.2 515.6 L 263.4 533.0 L 253.3 549.9 L 239.6 562.3 L 222.4 573.4 L 204.5 578.6 L 184.1 582.4 L 164.1 578.7 L 145.4 572.1 L 126.7 562.5 L 111.0 546.3 L 99.6 529.1 L 91.9 509.2 L 88.7 486.5 L 90.6 464.5 L 98.1 443.3 L 110.0 422.8 L 124.4 406.6 L 144.4 393.5 L 165.5 383.8 " fill="none" stroke="url(#grad-silver)" stroke-width="2.5" stroke-dasharray="60 180" stroke-linecap="round" opacity="0.9">
                    <animate attributeName="stroke-dashoffset" from="1000" to="0" dur="10.884264517952154s" repeatCount="indefinite" direction="reverse"/>
                </path>
            </g>
            <path d="M 190.0 490.0 L 189.6 489.9 L 189.1 489.6 L 188.7 489.0 L 188.5 488.2 L 188.7 487.3 L 189.0 486.3 L 189.9 485.4 L 191.0 484.9 L 192.5 484.5 L 194.0 484.4 L 195.8 484.8 L 197.6 485.8 L 199.1 487.5 L 200.5 489.3 L 201.2 491.8 L 201.2 494.6 L 201.0 497.4 L 199.5 500.1 L 197.6 503.1 L 195.1 505.0 L 191.5 506.9 L 187.8 507.8 L 183.5 507.7 L 179.3 506.9 L 175.3 504.6 L 171.7 501.6 L 168.7 497.7 L 166.0 492.8 L 165.4 487.4 L 165.2 481.9 L 166.9 476.5 L 169.8 470.7 L 173.6 465.9 L 178.8 461.9 L 184.9 459.1 L 191.8 457.9 L 199.6 458.3 L 206.4 459.8 L 213.3 463.2 L 220.0 468.1 L 224.8 475.1 L 228.0 483.0 L 230.1 491.1 L 229.5 499.9 L 227.2 508.9 L 223.5 517.5 L 217.1 524.8 L 209.4 531.4 L 200.2 535.5 L 189.9 538.3 L 179.7 537.6 L 168.9 535.0 L 158.2 531.0 L 149.7 523.4 L 142.0 514.2 L 137.3 503.9 L 133.9 492.2 L 134.3 479.8 L 136.3 466.4 L 141.8 455.5 L 150.2 445.0 L 159.8 436.0 L 172.7 429.9 L 186.3 425.4 L 200.1 425.7 L 214.7 427.3 L 228.6 433.4 L 239.9 442.1 L 251.3 453.9 L 258.6 468.4 L 262.2 482.8 L 263.8 499.1 L 261.3 515.2 L 254.1 531.6 L 244.7 545.0 L 232.2 557.4 L 217.3 565.1 L 199.7 571.0 L 182.5 573.0 L 164.0 570.7 L 147.0 563.4 L 130.4 553.5 L 116.4 539.5 L 107.0 522.7 L 100.5 504.9 L 99.0 483.5 L 101.3 464.2 L 108.0 444.4 L 118.3 427.3 L 133.5 412.0 L 151.4 400.5 L 171.6 392.4 L 192.7 389.5 L 215.2 391.3 L 237.3 398.7 L 256.0 410.1 L 274.3 424.5 L 286.2 444.8 L 295.3 466.4 " fill="none" stroke="url(#grad-silver)" stroke-width="1.5" opacity="0.3" filter="url(#glow-soft)"/>

            <g filter="url(#glow-intense)">
                <path d="M 190.0 490.0 L 189.6 489.9 L 189.1 489.6 L 188.7 489.0 L 188.5 488.2 L 188.7 487.3 L 189.0 486.3 L 189.9 485.4 L 191.0 484.9 L 192.5 484.5 L 194.0 484.4 L 195.8 484.8 L 197.6 485.8 L 199.1 487.5 L 200.5 489.3 L 201.2 491.8 L 201.2 494.6 L 201.0 497.4 L 199.5 500.1 L 197.6 503.1 L 195.1 505.0 L 191.5 506.9 L 187.8 507.8 L 183.5 507.7 L 179.3 506.9 L 175.3 504.6 L 171.7 501.6 L 168.7 497.7 L 166.0 492.8 L 165.4 487.4 L 165.2 481.9 L 166.9 476.5 L 169.8 470.7 L 173.6 465.9 L 178.8 461.9 L 184.9 459.1 L 191.8 457.9 L 199.6 458.3 L 206.4 459.8 L 213.3 463.2 L 220.0 468.1 L 224.8 475.1 L 228.0 483.0 L 230.1 491.1 L 229.5 499.9 L 227.2 508.9 L 223.5 517.5 L 217.1 524.8 L 209.4 531.4 L 200.2 535.5 L 189.9 538.3 L 179.7 537.6 L 168.9 535.0 L 158.2 531.0 L 149.7 523.4 L 142.0 514.2 L 137.3 503.9 L 133.9 492.2 L 134.3 479.8 L 136.3 466.4 L 141.8 455.5 L 150.2 445.0 L 159.8 436.0 L 172.7 429.9 L 186.3 425.4 L 200.1 425.7 L 214.7 427.3 L 228.6 433.4 L 239.9 442.1 L 251.3 453.9 L 258.6 468.4 L 262.2 482.8 L 263.8 499.1 L 261.3 515.2 L 254.1 531.6 L 244.7 545.0 L 232.2 557.4 L 217.3 565.1 L 199.7 571.0 L 182.5 573.0 L 164.0 570.7 L 147.0 563.4 L 130.4 553.5 L 116.4 539.5 L 107.0 522.7 L 100.5 504.9 L 99.0 483.5 L 101.3 464.2 L 108.0 444.4 L 118.3 427.3 L 133.5 412.0 L 151.4 400.5 L 171.6 392.4 L 192.7 389.5 L 215.2 391.3 L 237.3 398.7 L 256.0 410.1 L 274.3 424.5 L 286.2 444.8 L 295.3 466.4 " fill="none" stroke="url(#grad-silver)" stroke-width="2.5" stroke-dasharray="60 180" stroke-linecap="round" opacity="0.9">
                    <animate attributeName="stroke-dashoffset" from="1000" to="0" dur="13.579817510544673s" repeatCount="indefinite" direction="normal"/>
                </path>
            </g>
            <path d="M 190.0 490.0 L 190.1 489.6 L 190.4 489.1 L 191.0 488.7 L 191.8 488.5 L 192.7 488.6 L 193.6 489.1 L 194.5 489.9 L 195.2 490.9 L 195.6 492.4 L 195.6 494.0 L 195.1 495.9 L 194.1 497.6 L 192.6 499.3 L 190.7 500.3 L 188.2 501.0 L 185.7 501.4 L 182.7 500.9 L 179.6 499.5 L 177.1 497.7 L 174.7 494.9 L 173.1 491.6 L 172.4 487.6 L 172.2 483.7 L 173.3 479.5 L 175.4 475.3 L 178.1 471.3 L 182.3 468.6 L 187.2 466.6 L 192.4 465.1 L 198.2 465.2 L 203.8 466.9 L 209.5 469.8 L 214.0 473.6 L 217.9 478.7 L 220.9 485.1 L 222.4 491.7 L 221.7 499.7 L 220.0 506.4 L 216.9 513.4 L 211.3 519.5 L 205.0 524.9 L 197.2 527.9 L 188.8 529.9 L 180.0 529.4 L 171.0 527.5 L 162.0 523.1 L 155.0 517.3 L 148.6 509.6 L 144.5 500.1 L 142.6 489.6 L 141.9 479.3 L 145.1 468.5 L 149.1 458.7 L 156.9 450.0 L 165.5 441.7 L 176.4 436.9 L 188.4 433.5 L 200.8 433.5 L 213.5 435.9 L 225.6 441.2 L 235.2 450.3 L 244.9 459.7 L 250.7 472.6 L 253.8 485.7 L 255.3 500.1 L 252.5 514.4 L 246.9 527.7 L 237.8 540.2 L 226.3 551.1 L 212.8 558.6 L 196.5 563.0 L 181.0 563.1 L 164.5 561.2 L 149.1 554.7 L 134.8 544.7 L 123.5 532.6 L 113.9 516.6 L 108.8 500.7 L 107.1 482.9 L 110.1 463.5 L 116.8 446.6 L 126.9 429.9 L 141.0 417.8 L 157.6 407.2 L 176.2 400.4 L 195.4 398.1 L 215.7 400.2 L 235.4 407.4 L 254.1 418.3 L 268.9 432.9 L 279.9 450.8 L 288.3 471.6 L 290.8 493.0 L 288.0 515.2 L 282.6 536.5 L 271.5 557.4 L 254.1 573.8 L 234.9 587.8 L 214.1 596.8 " fill="none" stroke="url(#grad-silver)" stroke-width="1.5" opacity="0.3" filter="url(#glow-soft)"/>

            <g filter="url(#glow-intense)">
                <path d="M 190.0 490.0 L 190.1 489.6 L 190.4 489.1 L 191.0 488.7 L 191.8 488.5 L 192.7 488.6 L 193.6 489.1 L 194.5 489.9 L 195.2 490.9 L 195.6 492.4 L 195.6 494.0 L 195.1 495.9 L 194.1 497.6 L 192.6 499.3 L 190.7 500.3 L 188.2 501.0 L 185.7 501.4 L 182.7 500.9 L 179.6 499.5 L 177.1 497.7 L 174.7 494.9 L 173.1 491.6 L 172.4 487.6 L 172.2 483.7 L 173.3 479.5 L 175.4 475.3 L 178.1 471.3 L 182.3 468.6 L 187.2 466.6 L 192.4 465.1 L 198.2 465.2 L 203.8 466.9 L 209.5 469.8 L 214.0 473.6 L 217.9 478.7 L 220.9 485.1 L 222.4 491.7 L 221.7 499.7 L 220.0 506.4 L 216.9 513.4 L 211.3 519.5 L 205.0 524.9 L 197.2 527.9 L 188.8 529.9 L 180.0 529.4 L 171.0 527.5 L 162.0 523.1 L 155.0 517.3 L 148.6 509.6 L 144.5 500.1 L 142.6 489.6 L 141.9 479.3 L 145.1 468.5 L 149.1 458.7 L 156.9 450.0 L 165.5 441.7 L 176.4 436.9 L 188.4 433.5 L 200.8 433.5 L 213.5 435.9 L 225.6 441.2 L 235.2 450.3 L 244.9 459.7 L 250.7 472.6 L 253.8 485.7 L 255.3 500.1 L 252.5 514.4 L 246.9 527.7 L 237.8 540.2 L 226.3 551.1 L 212.8 558.6 L 196.5 563.0 L 181.0 563.1 L 164.5 561.2 L 149.1 554.7 L 134.8 544.7 L 123.5 532.6 L 113.9 516.6 L 108.8 500.7 L 107.1 482.9 L 110.1 463.5 L 116.8 446.6 L 126.9 429.9 L 141.0 417.8 L 157.6 407.2 L 176.2 400.4 L 195.4 398.1 L 215.7 400.2 L 235.4 407.4 L 254.1 418.3 L 268.9 432.9 L 279.9 450.8 L 288.3 471.6 L 290.8 493.0 L 288.0 515.2 L 282.6 536.5 L 271.5 557.4 L 254.1 573.8 L 234.9 587.8 L 214.1 596.8 " fill="none" stroke="url(#grad-silver)" stroke-width="2.5" stroke-dasharray="60 180" stroke-linecap="round" opacity="0.9">
                    <animate attributeName="stroke-dashoffset" from="1000" to="0" dur="9.3604245940397s" repeatCount="indefinite" direction="reverse"/>
                </path>
            </g>
            <path d="M 190.0 490.0 L 190.4 490.1 L 190.9 490.4 L 191.3 491.0 L 191.5 491.8 L 191.4 492.7 L 190.9 493.7 L 190.1 494.5 L 189.0 495.2 L 187.6 495.7 L 185.9 495.5 L 184.3 495.3 L 182.5 494.2 L 180.9 492.6 L 179.5 490.6 L 178.8 488.4 L 178.6 485.4 L 179.0 482.6 L 180.3 479.8 L 182.2 477.2 L 185.1 474.9 L 188.5 473.3 L 192.1 472.1 L 196.4 472.2 L 200.6 473.1 L 204.6 475.4 L 208.6 478.2 L 211.8 482.0 L 213.5 487.3 L 214.9 492.3 L 214.6 498.3 L 213.2 504.0 L 210.3 509.0 L 206.3 513.9 L 201.2 517.9 L 194.6 520.7 L 188.2 522.2 L 181.0 521.8 L 173.1 520.2 L 166.8 516.6 L 160.3 511.6 L 155.6 505.1 L 152.2 497.1 L 150.2 488.9 L 150.3 480.0 L 152.6 470.7 L 156.9 462.7 L 162.8 455.2 L 171.0 448.6 L 180.3 444.4 L 190.2 442.2 L 201.0 442.0 L 211.5 444.6 L 221.6 449.4 L 230.1 456.8 L 238.0 465.8 L 243.2 476.6 L 246.1 487.9 L 245.7 501.1 L 244.1 513.2 L 238.5 524.7 L 230.0 535.7 L 219.3 543.8 L 207.4 550.4 L 194.3 554.0 L 180.3 554.1 L 165.5 551.6 L 151.3 545.8 L 139.0 537.6 L 129.0 525.6 L 121.4 511.8 L 118.0 497.4 L 116.3 480.2 L 119.6 464.0 L 125.6 448.6 L 134.8 435.5 L 148.2 423.9 L 162.2 413.8 L 179.3 409.4 L 198.2 408.0 L 216.4 410.2 L 233.2 416.7 L 249.6 426.8 L 262.4 439.8 L 272.6 457.0 L 279.3 476.4 L 281.2 495.4 L 278.8 515.5 L 272.8 534.7 L 262.0 553.0 L 246.7 569.2 L 229.0 580.2 L 209.3 587.6 L 187.7 590.1 L 164.2 588.6 L 142.7 581.7 L 123.2 571.3 L 105.3 554.9 L 92.2 536.1 L 84.1 514.3 " fill="none" stroke="url(#grad-silver)" stroke-width="1.5" opacity="0.3" filter="url(#glow-soft)"/>

            <g filter="url(#glow-intense)">
                <path d="M 190.0 490.0 L 190.4 490.1 L 190.9 490.4 L 191.3 491.0 L 191.5 491.8 L 191.4 492.7 L 190.9 493.7 L 190.1 494.5 L 189.0 495.2 L 187.6 495.7 L 185.9 495.5 L 184.3 495.3 L 182.5 494.2 L 180.9 492.6 L 179.5 490.6 L 178.8 488.4 L 178.6 485.4 L 179.0 482.6 L 180.3 479.8 L 182.2 477.2 L 185.1 474.9 L 188.5 473.3 L 192.1 472.1 L 196.4 472.2 L 200.6 473.1 L 204.6 475.4 L 208.6 478.2 L 211.8 482.0 L 213.5 487.3 L 214.9 492.3 L 214.6 498.3 L 213.2 504.0 L 210.3 509.0 L 206.3 513.9 L 201.2 517.9 L 194.6 520.7 L 188.2 522.2 L 181.0 521.8 L 173.1 520.2 L 166.8 516.6 L 160.3 511.6 L 155.6 505.1 L 152.2 497.1 L 150.2 488.9 L 150.3 480.0 L 152.6 470.7 L 156.9 462.7 L 162.8 455.2 L 171.0 448.6 L 180.3 444.4 L 190.2 442.2 L 201.0 442.0 L 211.5 444.6 L 221.6 449.4 L 230.1 456.8 L 238.0 465.8 L 243.2 476.6 L 246.1 487.9 L 245.7 501.1 L 244.1 513.2 L 238.5 524.7 L 230.0 535.7 L 219.3 543.8 L 207.4 550.4 L 194.3 554.0 L 180.3 554.1 L 165.5 551.6 L 151.3 545.8 L 139.0 537.6 L 129.0 525.6 L 121.4 511.8 L 118.0 497.4 L 116.3 480.2 L 119.6 464.0 L 125.6 448.6 L 134.8 435.5 L 148.2 423.9 L 162.2 413.8 L 179.3 409.4 L 198.2 408.0 L 216.4 410.2 L 233.2 416.7 L 249.6 426.8 L 262.4 439.8 L 272.6 457.0 L 279.3 476.4 L 281.2 495.4 L 278.8 515.5 L 272.8 534.7 L 262.0 553.0 L 246.7 569.2 L 229.0 580.2 L 209.3 587.6 L 187.7 590.1 L 164.2 588.6 L 142.7 581.7 L 123.2 571.3 L 105.3 554.9 L 92.2 536.1 L 84.1 514.3 " fill="none" stroke="url(#grad-silver)" stroke-width="2.5" stroke-dasharray="60 180" stroke-linecap="round" opacity="0.9">
                    <animate attributeName="stroke-dashoffset" from="1000" to="0" dur="9.047211409192775s" repeatCount="indefinite" direction="normal"/>
                </path>
            </g>
            <path d="M 410.0 490.0 L 409.6 489.9 L 409.1 489.6 L 408.7 489.0 L 408.6 488.2 L 408.6 487.3 L 409.1 486.4 L 409.8 485.5 L 411.0 484.7 L 412.4 484.4 L 414.2 484.4 L 415.8 484.9 L 417.5 485.8 L 419.2 487.2 L 420.2 489.3 L 421.3 491.8 L 421.2 494.5 L 420.9 497.3 L 419.7 500.2 L 417.7 502.9 L 414.8 505.2 L 411.4 506.8 L 407.9 507.7 L 403.5 507.6 L 399.4 506.9 L 395.0 504.8 L 391.6 501.5 L 388.6 497.7 L 386.1 493.2 L 385.4 487.7 L 385.6 482.2 L 386.9 476.1 L 389.3 470.8 L 393.6 466.0 L 399.2 461.9 L 404.8 459.4 L 412.0 457.8 L 419.3 458.2 L 426.7 460.0 L 433.3 463.2 L 439.7 468.7 L 444.6 475.2 L 447.9 482.6 L 450.3 491.3 L 449.5 500.0 L 447.4 509.6 L 443.4 517.3 L 437.5 525.1 L 429.8 531.7 L 420.4 535.2 L 409.9 538.1 L 399.7 538.2 L 388.8 535.9 L 378.0 530.9 L 369.2 523.4 L 361.6 514.6 L 356.7 503.9 L 354.2 491.6 L 354.0 479.2 L 356.9 466.9 L 361.6 455.4 L 369.9 444.0 L 380.0 435.8 L 392.8 428.9 L 406.0 425.2 L 420.0 425.8 L 434.7 427.9 L 447.6 433.5 L 461.0 441.9 L 470.3 454.4 L 477.7 467.7 L 482.6 483.1 L 483.5 499.6 L 480.7 515.8 L 474.0 531.3 L 465.2 544.6 L 452.1 556.1 L 437.0 566.3 L 420.5 571.0 L 402.7 573.0 L 384.4 569.8 L 366.3 562.9 L 350.0 553.4 L 337.6 539.6 L 327.3 522.3 L 319.8 504.2 L 317.7 484.4 L 320.4 463.5 L 327.8 444.0 L 337.8 427.3 L 352.9 411.4 L 370.4 400.2 L 391.1 391.5 L 412.7 390.1 L 436.2 390.5 L 456.4 397.6 L 476.6 409.3 L 493.8 425.5 L 506.3 444.2 L 515.2 465.5 " fill="none" stroke="url(#grad-purple)" stroke-width="1.5" opacity="0.3" filter="url(#glow-soft)"/>

            <g filter="url(#glow-intense)">
                <path d="M 410.0 490.0 L 409.6 489.9 L 409.1 489.6 L 408.7 489.0 L 408.6 488.2 L 408.6 487.3 L 409.1 486.4 L 409.8 485.5 L 411.0 484.7 L 412.4 484.4 L 414.2 484.4 L 415.8 484.9 L 417.5 485.8 L 419.2 487.2 L 420.2 489.3 L 421.3 491.8 L 421.2 494.5 L 420.9 497.3 L 419.7 500.2 L 417.7 502.9 L 414.8 505.2 L 411.4 506.8 L 407.9 507.7 L 403.5 507.6 L 399.4 506.9 L 395.0 504.8 L 391.6 501.5 L 388.6 497.7 L 386.1 493.2 L 385.4 487.7 L 385.6 482.2 L 386.9 476.1 L 389.3 470.8 L 393.6 466.0 L 399.2 461.9 L 404.8 459.4 L 412.0 457.8 L 419.3 458.2 L 426.7 460.0 L 433.3 463.2 L 439.7 468.7 L 444.6 475.2 L 447.9 482.6 L 450.3 491.3 L 449.5 500.0 L 447.4 509.6 L 443.4 517.3 L 437.5 525.1 L 429.8 531.7 L 420.4 535.2 L 409.9 538.1 L 399.7 538.2 L 388.8 535.9 L 378.0 530.9 L 369.2 523.4 L 361.6 514.6 L 356.7 503.9 L 354.2 491.6 L 354.0 479.2 L 356.9 466.9 L 361.6 455.4 L 369.9 444.0 L 380.0 435.8 L 392.8 428.9 L 406.0 425.2 L 420.0 425.8 L 434.7 427.9 L 447.6 433.5 L 461.0 441.9 L 470.3 454.4 L 477.7 467.7 L 482.6 483.1 L 483.5 499.6 L 480.7 515.8 L 474.0 531.3 L 465.2 544.6 L 452.1 556.1 L 437.0 566.3 L 420.5 571.0 L 402.7 573.0 L 384.4 569.8 L 366.3 562.9 L 350.0 553.4 L 337.6 539.6 L 327.3 522.3 L 319.8 504.2 L 317.7 484.4 L 320.4 463.5 L 327.8 444.0 L 337.8 427.3 L 352.9 411.4 L 370.4 400.2 L 391.1 391.5 L 412.7 390.1 L 436.2 390.5 L 456.4 397.6 L 476.6 409.3 L 493.8 425.5 L 506.3 444.2 L 515.2 465.5 " fill="none" stroke="url(#grad-purple)" stroke-width="2.5" stroke-dasharray="60 180" stroke-linecap="round" opacity="0.9">
                    <animate attributeName="stroke-dashoffset" from="1000" to="0" dur="10.641904834384107s" repeatCount="indefinite" direction="reverse"/>
                </path>
            </g>
            <path d="M 410.0 490.0 L 410.1 489.6 L 410.4 489.1 L 411.0 488.7 L 411.8 488.6 L 412.7 488.6 L 413.7 489.1 L 414.6 489.9 L 415.2 491.0 L 415.7 492.4 L 415.6 494.2 L 415.1 495.7 L 414.0 497.5 L 412.7 499.2 L 410.6 500.4 L 408.3 501.0 L 405.6 501.3 L 402.8 500.7 L 399.6 499.8 L 397.1 497.5 L 394.9 495.1 L 393.4 491.5 L 392.4 487.7 L 392.2 483.5 L 393.4 479.6 L 395.4 475.1 L 398.1 471.8 L 402.2 468.6 L 406.8 466.1 L 412.2 465.1 L 417.8 465.2 L 424.0 466.8 L 429.2 469.4 L 434.1 473.8 L 438.2 479.0 L 441.1 484.9 L 442.1 491.9 L 442.1 499.4 L 440.5 506.7 L 436.7 513.7 L 431.4 519.4 L 424.7 524.7 L 417.4 528.1 L 409.0 529.6 L 399.5 529.5 L 390.5 527.8 L 382.8 523.7 L 375.3 517.3 L 369.1 509.4 L 364.2 500.6 L 362.0 490.1 L 362.4 479.1 L 364.4 469.0 L 369.5 458.2 L 377.0 449.6 L 386.1 442.3 L 396.0 437.1 L 407.9 434.4 L 421.1 434.4 L 433.1 436.2 L 444.5 442.1 L 455.7 449.8 L 464.8 459.9 L 470.7 472.7 L 473.7 486.1 L 474.2 500.1 L 472.3 514.6 L 466.4 528.2 L 457.3 540.2 L 446.1 550.3 L 431.8 558.3 L 416.7 562.2 L 401.0 563.5 L 383.9 560.7 L 368.4 555.2 L 354.2 544.6 L 343.5 531.9 L 333.7 517.7 L 329.1 500.7 L 328.2 482.8 L 330.3 464.2 L 336.0 447.3 L 347.1 431.0 L 361.0 417.5 L 377.1 407.7 L 395.8 400.7 L 416.4 398.7 L 435.4 401.2 L 455.3 406.5 L 472.7 418.1 L 487.9 432.8 L 500.9 450.4 L 508.6 471.7 L 511.1 493.5 L 508.0 515.0 L 502.9 537.7 L 491.2 557.3 L 475.2 573.9 L 455.7 586.3 L 432.9 595.4 " fill="none" stroke="url(#grad-purple)" stroke-width="1.5" opacity="0.3" filter="url(#glow-soft)"/>

            <g filter="url(#glow-intense)">
                <path d="M 410.0 490.0 L 410.1 489.6 L 410.4 489.1 L 411.0 488.7 L 411.8 488.6 L 412.7 488.6 L 413.7 489.1 L 414.6 489.9 L 415.2 491.0 L 415.7 492.4 L 415.6 494.2 L 415.1 495.7 L 414.0 497.5 L 412.7 499.2 L 410.6 500.4 L 408.3 501.0 L 405.6 501.3 L 402.8 500.7 L 399.6 499.8 L 397.1 497.5 L 394.9 495.1 L 393.4 491.5 L 392.4 487.7 L 392.2 483.5 L 393.4 479.6 L 395.4 475.1 L 398.1 471.8 L 402.2 468.6 L 406.8 466.1 L 412.2 465.1 L 417.8 465.2 L 424.0 466.8 L 429.2 469.4 L 434.1 473.8 L 438.2 479.0 L 441.1 484.9 L 442.1 491.9 L 442.1 499.4 L 440.5 506.7 L 436.7 513.7 L 431.4 519.4 L 424.7 524.7 L 417.4 528.1 L 409.0 529.6 L 399.5 529.5 L 390.5 527.8 L 382.8 523.7 L 375.3 517.3 L 369.1 509.4 L 364.2 500.6 L 362.0 490.1 L 362.4 479.1 L 364.4 469.0 L 369.5 458.2 L 377.0 449.6 L 386.1 442.3 L 396.0 437.1 L 407.9 434.4 L 421.1 434.4 L 433.1 436.2 L 444.5 442.1 L 455.7 449.8 L 464.8 459.9 L 470.7 472.7 L 473.7 486.1 L 474.2 500.1 L 472.3 514.6 L 466.4 528.2 L 457.3 540.2 L 446.1 550.3 L 431.8 558.3 L 416.7 562.2 L 401.0 563.5 L 383.9 560.7 L 368.4 555.2 L 354.2 544.6 L 343.5 531.9 L 333.7 517.7 L 329.1 500.7 L 328.2 482.8 L 330.3 464.2 L 336.0 447.3 L 347.1 431.0 L 361.0 417.5 L 377.1 407.7 L 395.8 400.7 L 416.4 398.7 L 435.4 401.2 L 455.3 406.5 L 472.7 418.1 L 487.9 432.8 L 500.9 450.4 L 508.6 471.7 L 511.1 493.5 L 508.0 515.0 L 502.9 537.7 L 491.2 557.3 L 475.2 573.9 L 455.7 586.3 L 432.9 595.4 " fill="none" stroke="url(#grad-purple)" stroke-width="2.5" stroke-dasharray="60 180" stroke-linecap="round" opacity="0.9">
                    <animate attributeName="stroke-dashoffset" from="1000" to="0" dur="11.108968577760871s" repeatCount="indefinite" direction="normal"/>
                </path>
            </g>
            <path d="M 410.0 490.0 L 410.4 490.1 L 410.9 490.4 L 411.3 491.0 L 411.5 491.8 L 411.4 492.7 L 410.9 493.7 L 410.1 494.6 L 408.9 495.1 L 407.5 495.6 L 405.9 495.7 L 404.3 495.2 L 402.5 494.2 L 401.0 492.6 L 399.5 490.8 L 398.9 488.4 L 398.7 485.5 L 399.2 482.5 L 400.4 479.9 L 402.5 476.9 L 405.0 474.8 L 408.4 473.1 L 412.3 472.1 L 416.5 472.5 L 420.6 473.4 L 424.6 475.3 L 428.5 478.5 L 431.4 482.3 L 433.6 487.1 L 435.0 492.3 L 434.8 498.2 L 433.4 503.7 L 430.1 509.4 L 426.5 514.4 L 421.1 518.3 L 414.6 520.5 L 407.9 522.1 L 401.0 521.9 L 393.5 520.2 L 386.4 516.3 L 380.5 511.9 L 375.0 504.6 L 372.2 496.9 L 369.9 488.6 L 370.3 479.6 L 372.5 471.0 L 376.9 462.3 L 382.8 454.6 L 390.7 448.4 L 399.7 444.8 L 410.0 442.1 L 420.7 442.5 L 431.4 444.3 L 440.9 449.7 L 450.6 456.6 L 458.0 465.1 L 463.5 476.0 L 466.3 488.0 L 465.9 500.5 L 463.6 513.6 L 458.8 524.8 L 450.6 535.0 L 439.7 544.1 L 427.4 551.2 L 413.6 553.7 L 399.6 554.2 L 385.5 552.7 L 372.3 546.6 L 359.6 537.9 L 348.8 525.6 L 341.5 512.1 L 337.7 496.7 L 336.1 480.0 L 338.9 464.8 L 345.8 449.3 L 355.6 434.2 L 368.0 422.9 L 382.8 414.0 L 399.2 408.3 L 418.5 407.1 L 436.8 410.7 L 452.8 417.3 L 468.6 427.2 L 483.1 440.6 L 493.2 457.1 L 499.0 476.5 L 501.1 496.2 L 500.0 515.2 L 492.5 534.7 L 482.5 552.9 L 467.5 569.0 L 449.3 579.6 L 428.7 587.4 L 406.0 590.1 L 385.0 588.5 L 362.4 582.0 L 344.0 570.3 L 325.5 554.8 L 313.0 536.3 L 304.6 513.8 " fill="none" stroke="url(#grad-purple)" stroke-width="1.5" opacity="0.3" filter="url(#glow-soft)"/>

            <g filter="url(#glow-intense)">
                <path d="M 410.0 490.0 L 410.4 490.1 L 410.9 490.4 L 411.3 491.0 L 411.5 491.8 L 411.4 492.7 L 410.9 493.7 L 410.1 494.6 L 408.9 495.1 L 407.5 495.6 L 405.9 495.7 L 404.3 495.2 L 402.5 494.2 L 401.0 492.6 L 399.5 490.8 L 398.9 488.4 L 398.7 485.5 L 399.2 482.5 L 400.4 479.9 L 402.5 476.9 L 405.0 474.8 L 408.4 473.1 L 412.3 472.1 L 416.5 472.5 L 420.6 473.4 L 424.6 475.3 L 428.5 478.5 L 431.4 482.3 L 433.6 487.1 L 435.0 492.3 L 434.8 498.2 L 433.4 503.7 L 430.1 509.4 L 426.5 514.4 L 421.1 518.3 L 414.6 520.5 L 407.9 522.1 L 401.0 521.9 L 393.5 520.2 L 386.4 516.3 L 380.5 511.9 L 375.0 504.6 L 372.2 496.9 L 369.9 488.6 L 370.3 479.6 L 372.5 471.0 L 376.9 462.3 L 382.8 454.6 L 390.7 448.4 L 399.7 444.8 L 410.0 442.1 L 420.7 442.5 L 431.4 444.3 L 440.9 449.7 L 450.6 456.6 L 458.0 465.1 L 463.5 476.0 L 466.3 488.0 L 465.9 500.5 L 463.6 513.6 L 458.8 524.8 L 450.6 535.0 L 439.7 544.1 L 427.4 551.2 L 413.6 553.7 L 399.6 554.2 L 385.5 552.7 L 372.3 546.6 L 359.6 537.9 L 348.8 525.6 L 341.5 512.1 L 337.7 496.7 L 336.1 480.0 L 338.9 464.8 L 345.8 449.3 L 355.6 434.2 L 368.0 422.9 L 382.8 414.0 L 399.2 408.3 L 418.5 407.1 L 436.8 410.7 L 452.8 417.3 L 468.6 427.2 L 483.1 440.6 L 493.2 457.1 L 499.0 476.5 L 501.1 496.2 L 500.0 515.2 L 492.5 534.7 L 482.5 552.9 L 467.5 569.0 L 449.3 579.6 L 428.7 587.4 L 406.0 590.1 L 385.0 588.5 L 362.4 582.0 L 344.0 570.3 L 325.5 554.8 L 313.0 536.3 L 304.6 513.8 " fill="none" stroke="url(#grad-purple)" stroke-width="2.5" stroke-dasharray="60 180" stroke-linecap="round" opacity="0.9">
                    <animate attributeName="stroke-dashoffset" from="1000" to="0" dur="10.432770619062616s" repeatCount="indefinite" direction="reverse"/>
                </path>
            </g>
            <path d="M 410.0 490.0 L 409.9 490.4 L 409.6 490.9 L 409.0 491.3 L 408.2 491.5 L 407.3 491.4 L 406.3 490.9 L 405.4 490.2 L 404.8 489.1 L 404.5 487.6 L 404.3 485.9 L 404.9 484.2 L 405.8 482.4 L 407.3 480.9 L 409.5 479.7 L 411.7 478.8 L 414.4 478.6 L 417.4 479.1 L 420.1 480.5 L 422.9 482.2 L 425.1 485.2 L 426.9 488.4 L 427.8 492.3 L 427.7 496.6 L 426.7 500.8 L 424.7 504.8 L 421.6 508.7 L 417.8 511.8 L 413.0 513.7 L 407.5 515.0 L 402.0 514.4 L 396.0 513.1 L 390.5 510.7 L 386.2 506.2 L 381.9 501.2 L 379.3 495.2 L 377.7 488.0 L 378.2 481.0 L 379.6 473.7 L 383.3 466.5 L 388.7 460.3 L 395.3 455.4 L 403.0 452.0 L 410.8 450.1 L 420.0 450.2 L 428.7 452.8 L 437.5 456.9 L 444.7 462.3 L 450.8 470.4 L 456.0 479.5 L 457.7 489.5 L 458.1 501.1 L 455.8 511.8 L 450.1 521.2 L 443.1 530.6 L 434.8 537.5 L 423.3 543.3 L 412.3 545.8 L 399.1 546.0 L 387.2 544.0 L 374.9 538.0 L 364.7 529.7 L 355.8 519.4 L 349.0 508.2 L 345.8 494.2 L 345.3 479.8 L 348.2 465.9 L 354.0 451.8 L 362.9 439.5 L 374.6 429.8 L 387.7 421.4 L 403.5 417.0 L 419.7 416.9 L 436.0 418.4 L 450.5 424.9 L 464.6 435.5 L 477.5 448.3 L 485.9 462.8 L 491.2 479.3 L 492.7 497.9 L 490.2 515.3 L 484.1 532.7 L 473.3 548.7 L 459.2 563.2 L 442.8 572.6 L 424.2 579.5 L 404.0 582.1 L 384.0 579.0 L 364.3 573.2 L 346.5 561.4 L 332.0 546.8 L 319.6 529.0 L 312.8 508.5 L 308.5 487.4 L 310.2 464.0 L 317.7 443.0 L 329.8 422.5 L 344.6 406.8 L 364.2 393.7 L 386.2 383.6 " fill="none" stroke="url(#grad-purple)" stroke-width="1.5" opacity="0.3" filter="url(#glow-soft)"/>

            <g filter="url(#glow-intense)">
                <path d="M 410.0 490.0 L 409.9 490.4 L 409.6 490.9 L 409.0 491.3 L 408.2 491.5 L 407.3 491.4 L 406.3 490.9 L 405.4 490.2 L 404.8 489.1 L 404.5 487.6 L 404.3 485.9 L 404.9 484.2 L 405.8 482.4 L 407.3 480.9 L 409.5 479.7 L 411.7 478.8 L 414.4 478.6 L 417.4 479.1 L 420.1 480.5 L 422.9 482.2 L 425.1 485.2 L 426.9 488.4 L 427.8 492.3 L 427.7 496.6 L 426.7 500.8 L 424.7 504.8 L 421.6 508.7 L 417.8 511.8 L 413.0 513.7 L 407.5 515.0 L 402.0 514.4 L 396.0 513.1 L 390.5 510.7 L 386.2 506.2 L 381.9 501.2 L 379.3 495.2 L 377.7 488.0 L 378.2 481.0 L 379.6 473.7 L 383.3 466.5 L 388.7 460.3 L 395.3 455.4 L 403.0 452.0 L 410.8 450.1 L 420.0 450.2 L 428.7 452.8 L 437.5 456.9 L 444.7 462.3 L 450.8 470.4 L 456.0 479.5 L 457.7 489.5 L 458.1 501.1 L 455.8 511.8 L 450.1 521.2 L 443.1 530.6 L 434.8 537.5 L 423.3 543.3 L 412.3 545.8 L 399.1 546.0 L 387.2 544.0 L 374.9 538.0 L 364.7 529.7 L 355.8 519.4 L 349.0 508.2 L 345.8 494.2 L 345.3 479.8 L 348.2 465.9 L 354.0 451.8 L 362.9 439.5 L 374.6 429.8 L 387.7 421.4 L 403.5 417.0 L 419.7 416.9 L 436.0 418.4 L 450.5 424.9 L 464.6 435.5 L 477.5 448.3 L 485.9 462.8 L 491.2 479.3 L 492.7 497.9 L 490.2 515.3 L 484.1 532.7 L 473.3 548.7 L 459.2 563.2 L 442.8 572.6 L 424.2 579.5 L 404.0 582.1 L 384.0 579.0 L 364.3 573.2 L 346.5 561.4 L 332.0 546.8 L 319.6 529.0 L 312.8 508.5 L 308.5 487.4 L 310.2 464.0 L 317.7 443.0 L 329.8 422.5 L 344.6 406.8 L 364.2 393.7 L 386.2 383.6 " fill="none" stroke="url(#grad-purple)" stroke-width="2.5" stroke-dasharray="60 180" stroke-linecap="round" opacity="0.9">
                    <animate attributeName="stroke-dashoffset" from="1000" to="0" dur="10.252473922155042s" repeatCount="indefinite" direction="normal"/>
                </path>
            </g>
            
    
    <g transform="translate(300, 380)">
        <animateTransform attributeName="transform" type="translate" values="300,380"/>
        <animateTransform attributeName="transform" type="rotate" from="0 0 0" to="360 0 0" dur="80s" repeatCount="indefinite" additive="sum"/>
        
        <circle cx="0" cy="0" r="150" fill="none" stroke="url(#grad-gold)" stroke-width="4" opacity="0.8" filter="url(#drop-shadow-heavy)"/>
        <circle cx="0" cy="0" r="144" fill="none" stroke="url(#grad-cyan)" stroke-width="1" opacity="0.5"/>
        <circle cx="0" cy="0" r="90" fill="none" stroke="url(#grad-gold)" stroke-width="1.5" stroke-dasharray="10 5" opacity="0.6"/>
        
        <text font-family="'Cinzel', serif" font-size="14" font-weight="900" fill="url(#grad-silver)" letter-spacing="3" filter="url(#glow-soft)">
            <textPath href="#inner-ring-top" startOffset="50%" text-anchor="middle">BITSTREAM PRINCIPLES ✧ UNCERTAINTY QUANTIFIED</textPath>
        </text>
        <text font-family="'Cinzel', serif" font-size="14" font-weight="900" fill="url(#grad-silver)" letter-spacing="8" filter="url(#glow-soft)">
            <textPath href="#inner-ring-bot" startOffset="50%" text-anchor="middle">ENTROPY ✧ 01101001</textPath>
        </text>
    </g>

    <g transform="translate(300, 380)">
        <animateTransform attributeName="transform" type="translate" values="300,380"/>
        <animateTransform attributeName="transform" type="rotate" from="360 0 0" to="0 0 0" dur="120s" repeatCount="indefinite" additive="sum"/>
        
        <circle cx="0" cy="0" r="240" fill="none" stroke="url(#grad-gold)" stroke-width="6" opacity="0.9" filter="url(#drop-shadow-heavy)"/>
        <circle cx="0" cy="0" r="230" fill="none" stroke="url(#grad-gold)" stroke-width="1" opacity="0.4"/>
        <circle cx="0" cy="0" r="250" fill="none" stroke="url(#grad-silver)" stroke-width="0.5" stroke-dasharray="4 6" opacity="0.3"/>
        
        <text font-family="'Cinzel', serif" font-size="24" font-weight="900" fill="url(#grad-gold)" letter-spacing="4" filter="url(#drop-shadow-heavy)">
            <textPath href="#outer-ring-top" startOffset="50%" text-anchor="middle">ERROR CORRECTION CODE ✧ THEORETICAL LIMITS</textPath>
        </text>
        <text font-family="'Cinzel', serif" font-size="24" font-weight="900" fill="url(#grad-gold)" letter-spacing="4" filter="url(#drop-shadow-heavy)">
            <textPath href="#outer-ring-bot" startOffset="50%" text-anchor="middle">CLAUDE E. SHANNON ✧ SOLID FOUNDATIONS</textPath>
        </text>
    </g>

    
    <g transform="translate(300, 380)" filter="url(#glow-intense)">
        <animateTransform attributeName="transform" type="translate" values="300,380; 300,372; 300,380" dur="6s" repeatCount="indefinite" ease="ease-in-out"/>
        
        <polygon points="45.0,0.0 22.5,39.0 -22.5,39.0 -45.0,0.0 -22.5,-39.0 22.5,-39.0" fill="rgba(0, 240, 255, 0.1)" stroke="url(#grad-cyan)" stroke-width="2"/>
        <line x1="45.0" y1="0.0" x2="-45.0" y2="0.0" stroke="url(#grad-cyan)" stroke-width="1.5"/>
        <line x1="22.5" y1="39.0" x2="-22.5" y2="-39.0" stroke="url(#grad-cyan)" stroke-width="1.5"/>
        <line x1="-22.5" y1="39.0" x2="22.5" y2="-39.0" stroke="url(#grad-cyan)" stroke-width="1.5"/>
        
        <circle cx="0" cy="0" r="4" fill="#FFFFFF">
            <animate attributeName="opacity" values="0.4; 1; 0.4" dur="2s" repeatCount="indefinite"/>
            <animate attributeName="r" values="3; 6; 3" dur="2s" repeatCount="indefinite"/>
        </circle>
    </g>
    
    
    <g transform="translate(0, 680)" filter="url(#drop-shadow-heavy)">
        <polygon points="120,0 480,0 550,220 50,220" fill="url(#pedestal-glass)" opacity="0.9"/>
        <polygon points="120,0 480,0 550,220 50,220" fill="none" stroke="url(#grad-cyan)" stroke-width="3" filter="url(#glow-soft)"/>
        
        <polygon points="140,20 460,20 520,200 80,200" fill="none" stroke="url(#grad-cyan)" stroke-width="1" opacity="0.5"/>
        <line x1="300" y1="0" x2="300" y2="20" stroke="url(#grad-cyan)" stroke-width="2" opacity="0.8"/>
        
        <line x1="120" y1="0" x2="480" y2="0" stroke="#00F0FF" stroke-width="2" filter="url(#glow-intense)" opacity="0.6">
            <animate attributeName="y1" values="0; 220; 0" dur="4s" repeatCount="indefinite" ease="linear"/>
            <animate attributeName="y2" values="0; 220; 0" dur="4s" repeatCount="indefinite" ease="linear"/>
            <animate attributeName="x1" values="120; 50; 120" dur="4s" repeatCount="indefinite" ease="linear"/>
            <animate attributeName="x2" values="480; 550; 480" dur="4s" repeatCount="indefinite" ease="linear"/>
        </line>

        <polygon points="250,220 350,220 300,160" fill="none" stroke="url(#grad-cyan)" stroke-width="2" filter="url(#glow-intense)"/>
        
        <g transform="translate(90, 80)">
            <polygon points="0,-20 15,0 0,20 -15,0" fill="#0A0F1A" stroke="url(#grad-cyan)" stroke-width="2" filter="url(#glow-intense)"/>
            <polygon points="0,-10 7,0 0,10 -7,0" fill="url(#grad-cyan)">
                <animate attributeName="opacity" values="1; 0.2; 1" dur="1.5s" repeatCount="indefinite"/>
            </polygon>
        </g>
        <g transform="translate(510, 80)">
            <polygon points="0,-20 15,0 0,20 -15,0" fill="#0A0F1A" stroke="url(#grad-cyan)" stroke-width="2" filter="url(#glow-intense)"/>
            <polygon points="0,-10 7,0 0,10 -7,0" fill="url(#grad-cyan)">
                <animate attributeName="opacity" values="1; 0.2; 1" dur="1.5s" begin="0.75s" repeatCount="indefinite"/>
            </polygon>
        </g>

        <g transform="translate(300, 60)">
            <text x="0" y="3" text-anchor="middle" font-family="'Cinzel', serif" font-size="42" font-weight="900" fill="url(#grad-gold)" letter-spacing="6" filter="url(#glow-soft)">SHANNON</text>
            <text x="0" y="46" text-anchor="middle" font-family="'Cinzel', serif" font-size="42" font-weight="900" fill="url(#grad-gold)" letter-spacing="8" filter="url(#glow-soft)">AWARD</text>
            
            <text x="0" y="65" text-anchor="middle" font-family="'JetBrains Mono', monospace" font-size="12" font-weight="bold" fill="#00F0FF" letter-spacing="3" opacity="0.9">OUTSTANDING CONTRIBUTIONS IN</text>
            <text x="0" y="90" text-anchor="middle" font-family="'Cinzel', serif" font-size="18" font-weight="900" fill="#FFFFFF" letter-spacing="4" filter="url(#glow-soft)">INFORMATION THEORY</text>
        </g>
    </g>
    
</svg>