<svg viewBox="0 0 400 600" xmlns="http://www.w3.org/2000/svg">
    <defs>
        <radialGradient id="pcb-bg" cx="50%" cy="45%" r="70%">
            <stop offset="0%" stop-color="#1A1C23"/>
            <stop offset="60%" stop-color="#0B0D12"/>
            <stop offset="100%" stop-color="#050608"/>
        </radialGradient>

        <linearGradient id="gold-metal" x1="0%" y1="0%" x2="100%" y2="100%">
            <stop offset="0%" stop-color="#FFF8DC"/>
            <stop offset="30%" stop-color="#FFD700"/>
            <stop offset="70%" stop-color="#B8860B"/>
            <stop offset="100%" stop-color="#8B6508"/>
        </linearGradient>

        <linearGradient id="silicon-die" x1="0%" y1="0%" x2="100%" y2="100%">
            <stop offset="0%" stop-color="#4B0082"/>
            <stop offset="33%" stop-color="#00CED1"/>
            <stop offset="66%" stop-color="#8A2BE2"/>
            <stop offset="100%" stop-color="#2F4F4F"/>
        </linearGradient>

        <filter id="laser-glow" x="-50%" y="-50%" width="200%" height="200%">
            <feGaussianBlur stdDeviation="4" result="blur"/>
            <feMerge><feMergeNode in="blur"/><feMergeNode in="SourceGraphic"/></feMerge>
        </filter>
        <filter id="cyan-glow" x="-50%" y="-50%" width="200%" height="200%">
            <feGaussianBlur stdDeviation="3" result="blur"/>
            <feMerge><feMergeNode in="blur"/><feMergeNode in="SourceGraphic"/></feMerge>
        </filter>
        <filter id="chip-shadow" x="-20%" y="-20%" width="140%" height="140%">
            <feDropShadow dx="0" dy="15" stdDeviation="15" flood-color="#000" flood-opacity="0.9"/>
        </filter>
        
        <pattern id="logic-gates" x="0" y="0" width="12" height="12" patternUnits="userSpaceOnUse">
            <rect width="12" height="12" fill="none" stroke="#00FFFF" stroke-width="0.3" opacity="0.2"/>
            <circle cx="6" cy="6" r="1.5" fill="#00FFFF" opacity="0.3"/>
            <line x1="0" y1="6" x2="12" y2="6" stroke="#00FFFF" stroke-width="0.3" opacity="0.2"/>
            <line x1="6" y1="0" x2="6" y2="12" stroke="#00FFFF" stroke-width="0.3" opacity="0.2"/>
        </pattern>
    </defs>
    
    <rect width="400" height="600" fill="url(#pcb-bg)"/>
    
    <g stroke="rgba(255, 255, 255, 0.03)" stroke-width="1">
        <line x1="200" y1="0" x2="200" y2="600"/>
        <line x1="0" y1="240" x2="400" y2="240"/>
    </g>

    <g>
        <path d="M -50 150 L -50 145.5 L -48 148.6 L -46 153.1 L -44 151.6 L -42 159.3 L -40 150.1 L -38 156.6 L -36 149.6 L -34 146.1 L -32 153.5 L -30 141.3 L -28 152.3 L -26 145.0 L -24 132.8 L -22 130.6 L -20 127.8 L -18 157.7 L -16 167.3 L -14 151.4 L -12 155.4 L -10 155.8 L -8 150.5 L -6 150.2 L -4 151.1 L -2 147.0 L 0 148.6 L 2 148.6 L 4 139.5 L 6 140.9 L 8 147.8 L 10 142.8 L 12 140.7 L 14 146.3 L 16 142.7 L 18 148.3 L 20 173.9 L 22 174.8 L 24 159.2 L 26 151.5 L 28 159.0 L 30 152.7 L 32 147.1 L 34 145.7 L 36 143.4 L 38 143.1 L 40 149.6 L 42 149.0 L 44 147.8 L 46 142.6 L 48 146.4 L 50 155.5 L 52 148.9 L 54 149.3 L 56 152.9 L 58 163.3 L 60 176.6 L 62 155.0 L 64 141.8 L 66 140.7 L 68 139.9 L 70 149.4 L 72 138.1 L 74 145.6 L 76 147.1 L 78 145.3 L 80 158.2 L 82 153.3 L 84 150.9 L 86 155.7 L 88 148.8 L 90 149.0 L 92 151.4 L 94 146.0 L 96 153.5 L 98 168.3 L 100 151.1 L 102 130.2 L 104 137.9 L 106 151.3 L 108 154.2 L 110 156.8 L 112 156.9 L 114 148.8 L 116 159.3 L 118 148.2 L 120 149.5 L 122 147.7 L 124 150.8 L 126 150.8 L 128 146.1 L 130 140.3 L 132 138.8 L 134 149.6 L 136 152.1 L 138 154.4 L 140 127.3 L 142 133.5 L 144 156.1 L 146 159.0 L 148 153.2 L 150 153.5 L 152 151.0 L 154 157.5 L 156 151.3 L 158 147.4 L 160 146.5 L 162 150.9 L 164 141.9 L 166 140.0 L 168 147.5 L 170 152.0 L 172 146.2 L 174 152.7 L 176 153.8 L 178 141.8 L 180 133.1 L 182 149.7 L 184 165.3 L 186 163.4 L 188 149.2 L 190 146.3 L 192 149.7 L 194 138.9 L 196 144.3 L 198 141.1 L 200 140.7 L 202 152.0 L 204 152.7 L 206 152.7 L 208 155.3 L 210 152.7 L 212 161.1 L 214 149.1 L 216 139.2 L 218 139.1 L 220 146.3 L 222 171.9 L 224 153.4 L 226 148.1 L 228 139.1 L 230 148.7 L 232 146.3 L 234 147.0 L 236 152.0 L 238 157.7 L 240 148.5 L 242 154.7 L 244 156.8 L 246 152.3 L 248 158.9 L 250 155.3 L 252 155.7 L 254 139.1 L 256 142.2 L 258 148.6 L 260 161.9 L 262 161.2 L 264 152.5 L 266 140.0 L 268 143.3 L 270 152.7 L 272 152.8 L 274 152.8 L 276 152.8 L 278 154.1 L 280 159.9 L 282 156.0 L 284 141.6 L 286 140.7 L 288 143.4 L 290 143.2 L 292 137.7 L 294 140.1 L 296 158.6 L 298 165.1 L 300 174.5 L 302 145.3 L 304 141.8 L 306 148.5 L 308 150.3 L 310 154.4 L 312 147.5 L 314 147.6 L 316 144.4 L 318 153.7 L 320 146.5 L 322 140.6 L 324 151.4 L 326 151.5 L 328 144.9 L 330 143.9 L 332 149.6 L 334 150.3 L 336 171.1 L 338 171.9 L 340 152.1 L 342 132.5 L 344 137.4 L 346 149.3 L 348 152.4 L 350 140.1 L 352 151.8 L 354 149.1 L 356 141.3 L 358 149.5 L 360 148.0 L 362 151.1 L 364 157.2 L 366 160.4 L 368 149.6 L 370 152.4 L 372 156.9 L 374 155.7 L 376 163.4 L 378 132.5 L 380 119.5 L 382 126.8 L 384 155.7 L 386 148.4 L 388 152.5 L 390 145.1 L 392 150.8 L 394 154.6 L 396 152.1 L 398 157.6 L 400 152.1 L 402 162.2 L 404 148.6 L 406 155.3 L 408 152.3 L 410 144.5 L 412 150.4 L 414 143.1 L 416 144.8 L 418 121.0 L 420 141.3 L 422 154.1 L 424 156.6 L 426 152.4 L 428 154.7 L 430 159.3 L 432 155.0 L 434 152.0 L 436 158.2 L 438 158.2 L 440 154.5 L 442 140.9 L 444 144.2 L 446 141.0 L 448 150.2 " fill="none" stroke="#4A90E2" stroke-width="0.5" opacity="0.45000000000000007"/>
<path d="M -50 230 L -50 232.0 L -48 226.6 L -46 240.4 L -44 239.9 L -42 242.6 L -40 247.0 L -38 227.1 L -36 235.1 L -34 228.1 L -32 239.1 L -30 219.3 L -28 230.7 L -26 235.7 L -24 210.2 L -22 194.9 L -20 198.8 L -18 242.4 L -16 239.3 L -14 234.4 L -12 237.9 L -10 232.0 L -8 245.3 L -6 235.7 L -4 230.9 L -2 241.9 L 0 226.0 L 2 229.4 L 4 234.7 L 6 225.6 L 8 212.9 L 10 233.5 L 12 223.3 L 14 225.2 L 16 215.8 L 18 211.0 L 20 252.3 L 22 262.9 L 24 244.1 L 26 224.2 L 28 241.6 L 30 221.7 L 32 225.5 L 34 220.8 L 36 219.3 L 38 233.0 L 40 230.5 L 42 229.7 L 44 223.4 L 46 235.5 L 48 237.5 L 50 227.1 L 52 237.1 L 54 234.7 L 56 235.3 L 58 260.7 L 60 261.5 L 62 234.8 L 64 224.6 L 66 219.2 L 68 231.9 L 70 214.2 L 72 223.6 L 74 231.8 L 76 234.8 L 78 235.4 L 80 223.6 L 82 230.2 L 84 243.3 L 86 246.6 L 88 247.1 L 90 240.6 L 92 234.9 L 94 233.6 L 96 236.4 L 98 247.7 L 100 234.4 L 102 203.3 L 104 199.1 L 106 217.9 L 108 230.2 L 110 236.6 L 112 239.4 L 114 228.1 L 116 232.1 L 118 227.7 L 120 235.7 L 122 231.3 L 124 241.6 L 126 220.7 L 128 235.2 L 130 223.3 L 132 227.8 L 134 220.1 L 136 229.2 L 138 234.1 L 140 204.8 L 142 199.7 L 144 226.5 L 146 238.6 L 148 236.3 L 150 236.3 L 152 245.7 L 154 237.8 L 156 224.5 L 158 219.6 L 160 227.6 L 162 216.1 L 164 220.1 L 166 221.8 L 168 231.2 L 170 228.9 L 172 229.9 L 174 246.5 L 176 242.6 L 178 217.9 L 180 201.6 L 182 236.2 L 184 251.7 L 186 232.7 L 188 231.3 L 190 225.4 L 192 227.4 L 194 224.7 L 196 218.5 L 198 231.2 L 200 227.3 L 202 229.4 L 204 238.6 L 206 236.0 L 208 240.0 L 210 235.2 L 212 233.6 L 214 240.6 L 216 228.8 L 218 215.8 L 220 234.6 L 222 253.8 L 224 238.6 L 226 220.7 L 228 221.8 L 230 219.3 L 232 216.3 L 234 224.2 L 236 229.5 L 238 227.4 L 240 239.5 L 242 239.1 L 244 239.3 L 246 235.8 L 248 228.7 L 250 240.3 L 252 219.5 L 254 226.4 L 256 220.3 L 258 224.5 L 260 251.3 L 262 242.4 L 264 215.8 L 266 232.9 L 268 227.5 L 270 243.4 L 272 226.3 L 274 234.5 L 276 235.3 L 278 227.9 L 280 227.9 L 282 228.6 L 284 231.5 L 286 230.0 L 288 219.5 L 290 213.7 L 292 213.1 L 294 211.3 L 296 234.2 L 298 251.8 L 300 252.7 L 302 238.6 L 304 219.2 L 306 224.6 L 308 228.1 L 310 236.7 L 312 235.1 L 314 231.3 L 316 224.7 L 318 230.7 L 320 219.2 L 322 222.6 L 324 225.6 L 326 219.8 L 328 225.6 L 330 235.1 L 332 239.0 L 334 248.4 L 336 249.4 L 338 258.2 L 340 234.1 L 342 211.1 L 344 226.9 L 346 231.1 L 348 236.3 L 350 234.2 L 352 233.5 L 354 228.7 L 356 221.4 L 358 224.0 L 360 232.8 L 362 232.3 L 364 233.2 L 366 245.6 L 368 233.2 L 370 240.7 L 372 237.6 L 374 237.7 L 376 237.2 L 378 207.7 L 380 188.5 L 382 200.6 L 384 219.7 L 386 226.0 L 388 224.5 L 390 226.8 L 392 224.1 L 394 236.5 L 396 232.7 L 398 228.0 L 400 236.3 L 402 240.7 L 404 237.6 L 406 234.0 L 408 220.1 L 410 227.4 L 412 228.2 L 414 233.1 L 416 209.6 L 418 184.6 L 420 206.1 L 422 244.5 L 424 238.3 L 426 230.2 L 428 225.2 L 430 242.0 L 432 241.9 L 434 233.7 L 436 226.2 L 438 225.2 L 440 238.0 L 442 231.0 L 444 222.1 L 446 222.1 L 448 231.2 " fill="none" stroke="#4A90E2" stroke-width="0.5" opacity="0.35"/>
<path d="M -50 310 L -50 299.9 L -48 297.6 L -46 320.3 L -44 307.5 L -42 315.4 L -40 321.3 L -38 305.3 L -36 307.0 L -34 304.4 L -32 298.9 L -30 320.2 L -28 319.2 L -26 300.3 L -24 288.3 L -22 277.8 L -20 277.0 L -18 312.0 L -16 328.9 L -14 330.0 L -12 327.2 L -10 317.4 L -8 310.0 L -6 328.3 L -4 303.0 L -2 312.5 L 0 297.1 L 2 312.7 L 4 302.4 L 6 288.6 L 8 307.6 L 10 312.8 L 12 310.2 L 14 290.0 L 16 303.2 L 18 306.8 L 20 334.4 L 22 361.3 L 24 335.8 L 26 304.6 L 28 324.0 L 30 321.8 L 32 298.6 L 34 316.4 L 36 312.6 L 38 295.3 L 40 307.4 L 42 313.8 L 44 301.3 L 46 295.5 L 48 314.1 L 50 316.8 L 52 317.9 L 54 301.1 L 56 303.3 L 58 347.9 L 60 364.5 L 62 316.3 L 64 303.1 L 66 286.1 L 68 304.6 L 70 298.0 L 72 291.4 L 74 302.2 L 76 295.9 L 78 317.6 L 80 312.4 L 82 320.3 L 84 304.7 L 86 309.5 L 88 305.4 L 90 317.7 L 92 314.1 L 94 315.4 L 96 317.7 L 98 327.1 L 100 323.5 L 102 282.1 L 104 273.9 L 106 296.9 L 108 304.6 L 110 310.8 L 112 325.0 L 114 315.2 L 116 328.1 L 118 324.1 L 120 323.6 L 122 304.1 L 124 321.9 L 126 301.3 L 128 309.2 L 130 301.3 L 132 310.0 L 134 303.8 L 136 327.2 L 138 298.9 L 140 271.8 L 142 289.2 L 144 312.9 L 146 312.2 L 148 310.8 L 150 315.2 L 152 322.1 L 154 311.8 L 156 309.6 L 158 315.6 L 160 298.5 L 162 289.8 L 164 307.7 L 166 309.2 L 168 297.8 L 170 300.5 L 172 300.4 L 174 313.9 L 176 310.4 L 178 298.3 L 180 275.1 L 182 310.0 L 184 345.6 L 186 320.9 L 188 304.0 L 190 296.7 L 192 298.3 L 194 298.5 L 196 312.1 L 198 290.0 L 200 303.1 L 202 293.4 L 204 309.6 L 206 307.4 L 208 304.9 L 210 317.0 L 212 322.7 L 214 324.2 L 216 304.5 L 218 271.4 L 220 310.9 L 222 325.0 L 224 329.9 L 226 302.5 L 228 289.4 L 230 291.8 L 232 298.3 L 234 317.7 L 236 308.7 L 238 316.9 L 240 329.4 L 242 324.7 L 244 321.1 L 246 309.7 L 248 310.9 L 250 306.0 L 252 308.9 L 254 294.9 L 256 287.7 L 258 309.7 L 260 347.3 L 262 334.8 L 264 298.0 L 266 304.9 L 268 310.9 L 270 326.6 L 272 306.5 L 274 325.2 L 276 319.4 L 278 317.1 L 280 326.9 L 282 312.6 L 284 297.4 L 286 315.1 L 288 301.5 L 290 311.9 L 292 288.5 L 294 295.1 L 296 313.2 L 298 337.7 L 300 332.4 L 302 297.6 L 304 294.0 L 306 314.3 L 308 323.3 L 310 321.7 L 312 319.6 L 314 309.0 L 316 311.6 L 318 311.1 L 320 293.8 L 322 313.7 L 324 311.7 L 326 307.6 L 328 304.4 L 330 316.1 L 332 316.8 L 334 326.6 L 336 328.0 L 338 332.4 L 340 312.1 L 342 288.7 L 344 304.9 L 346 318.0 L 348 309.5 L 350 290.3 L 352 314.3 L 354 288.9 L 356 290.8 L 358 306.3 L 360 311.7 L 362 307.7 L 364 317.1 L 366 321.7 L 368 317.4 L 370 326.9 L 372 312.6 L 374 331.1 L 376 326.2 L 378 300.9 L 380 270.9 L 382 282.9 L 384 304.0 L 386 319.6 L 388 290.8 L 390 310.2 L 392 321.3 L 394 319.2 L 396 309.1 L 398 325.6 L 400 307.7 L 402 313.8 L 404 320.0 L 406 321.1 L 408 318.2 L 410 296.0 L 412 302.6 L 414 297.9 L 416 294.0 L 418 256.9 L 420 273.5 L 422 329.1 L 424 341.1 L 426 330.2 L 428 327.4 L 430 320.4 L 432 320.5 L 434 314.5 L 436 312.5 L 438 312.9 L 440 320.2 L 442 302.7 L 444 293.2 L 446 305.1 L 448 310.1 " fill="none" stroke="#00FFFF" stroke-width="1.5" opacity="0.25"/>
<path d="M -50 390 L -50 385.7 L -48 389.5 L -46 385.6 L -44 412.6 L -42 415.8 L -40 390.1 L -38 409.5 L -36 388.4 L -34 391.9 L -32 378.8 L -30 402.7 L -28 397.2 L -26 375.6 L -24 379.5 L -22 346.1 L -20 340.2 L -18 391.7 L -16 415.9 L -14 402.7 L -12 401.5 L -10 386.7 L -8 414.5 L -6 390.9 L -4 384.9 L -2 406.4 L 0 399.2 L 2 394.0 L 4 397.4 L 6 373.3 L 8 372.1 L 10 369.9 L 12 370.0 L 14 374.3 L 16 374.6 L 18 366.0 L 20 437.8 L 22 460.3 L 24 405.1 L 26 402.1 L 28 387.9 L 30 378.4 L 32 376.0 L 34 370.4 L 36 396.8 L 38 376.0 L 40 381.2 L 42 386.6 L 44 396.9 L 46 377.6 L 48 399.0 L 50 410.0 L 52 404.5 L 54 381.3 L 56 401.6 L 58 424.7 L 60 457.7 L 62 425.2 L 64 361.2 L 66 362.5 L 68 363.2 L 70 389.1 L 72 368.3 L 74 375.1 L 76 397.3 L 78 384.6 L 80 379.5 L 82 405.0 L 84 407.8 L 86 411.6 L 88 394.1 L 90 390.9 L 92 381.7 L 94 399.3 L 96 403.4 L 98 425.7 L 100 382.1 L 102 362.7 L 104 368.5 L 106 380.7 L 108 401.8 L 110 389.4 L 112 408.5 L 114 402.3 L 116 416.6 L 118 388.0 L 120 414.5 L 122 394.6 L 124 397.3 L 126 398.3 L 128 387.4 L 130 376.3 L 132 387.5 L 134 385.6 L 136 408.5 L 138 389.5 L 140 355.1 L 142 336.1 L 144 380.8 L 146 416.7 L 148 404.7 L 150 410.0 L 152 383.4 L 154 394.8 L 156 405.0 L 158 403.4 L 160 376.1 L 162 392.8 L 164 366.9 L 166 369.3 L 168 379.0 L 170 383.9 L 172 403.0 L 174 409.1 L 176 397.4 L 178 352.5 L 180 337.4 L 182 388.1 L 184 406.3 L 186 407.9 L 188 402.1 L 190 374.6 L 192 377.0 L 194 376.9 L 196 390.8 L 198 383.9 L 200 372.1 L 202 394.8 L 204 399.5 L 206 405.9 L 208 389.6 L 210 395.4 L 212 388.2 L 214 400.8 L 216 389.1 L 218 342.1 L 220 378.3 L 222 433.1 L 224 398.8 L 226 388.0 L 228 380.4 L 230 389.2 L 232 370.8 L 234 395.7 L 236 375.8 L 238 378.7 L 240 407.8 L 242 391.7 L 244 415.2 L 246 409.2 L 248 386.1 L 250 388.7 L 252 389.1 L 254 363.8 L 256 379.1 L 258 384.6 L 260 416.2 L 262 424.7 L 264 384.5 L 266 363.8 L 268 378.7 L 270 381.3 L 272 407.9 L 274 390.3 L 276 385.1 L 278 411.2 L 280 395.1 L 282 380.2 L 284 384.7 L 286 375.4 L 288 375.1 L 290 371.6 L 292 377.4 L 294 365.9 L 296 383.5 L 298 437.8 L 300 440.5 L 302 384.9 L 304 384.4 L 306 387.9 L 308 386.9 L 310 398.3 L 312 383.6 L 314 386.3 L 316 379.2 L 318 378.7 L 320 383.6 L 322 390.9 L 324 394.1 L 326 377.3 L 328 398.9 L 330 398.5 L 332 383.3 L 334 399.8 L 336 427.6 L 338 432.8 L 340 391.7 L 342 349.9 L 344 385.6 L 346 382.4 L 348 393.3 L 350 388.4 L 352 384.3 L 354 367.7 L 356 395.7 L 358 368.2 L 360 401.5 L 362 383.8 L 364 385.8 L 366 405.9 L 368 409.2 L 370 408.7 L 372 410.0 L 374 399.3 L 376 400.8 L 378 365.0 L 380 335.3 L 382 338.6 L 384 381.5 L 386 373.6 L 388 395.7 L 390 368.0 L 392 391.9 L 394 392.4 L 396 400.4 L 398 391.0 L 400 402.4 L 402 387.9 L 404 390.3 L 406 389.1 L 408 405.9 L 410 391.7 L 412 394.4 L 414 377.5 L 416 365.7 L 418 346.9 L 420 342.9 L 422 395.8 L 424 409.0 L 426 410.6 L 428 399.8 L 430 397.9 L 432 384.6 L 434 383.7 L 436 388.7 L 438 394.7 L 440 390.6 L 442 396.0 L 444 380.8 L 446 364.2 L 448 390.9 " fill="none" stroke="#4A90E2" stroke-width="0.5" opacity="0.15"/>

    </g>

    <g transform="translate(200, 240)">
        
        <path d="M -35 -90 L -35 -162 L -75 -162" fill="none" stroke="#B8860B" stroke-width="1.5" opacity="0.3"/>
<path d="M -35 -90 L -35 -162 L -75 -162" fill="none" stroke="#00FFFF" stroke-width="2" stroke-dasharray="15 100" opacity="0.8" filter="url(#cyan-glow)">
    <animate attributeName="stroke-dashoffset" values="115;0" dur="1.5329034210182053s" begin="1.9450089776438853s" repeatCount="indefinite"/>
</path>
<circle cx="-75" cy="-162" r="2.5" fill="none" stroke="#B8860B" stroke-width="1.5" opacity="0.6"/>
<path d="M 90 -35 L 144 -35 L 144 5" fill="none" stroke="#B8860B" stroke-width="1.5" opacity="0.3"/>
<path d="M 90 -35 L 144 -35 L 144 5" fill="none" stroke="#00FFFF" stroke-width="2" stroke-dasharray="15 100" opacity="0.8" filter="url(#cyan-glow)">
    <animate attributeName="stroke-dashoffset" values="115;0" dur="1.9533349359199548s" begin="0.1750994786624911s" repeatCount="indefinite"/>
</path>
<circle cx="144" cy="5" r="2.5" fill="none" stroke="#B8860B" stroke-width="1.5" opacity="0.6"/>
<path d="M -35 90 L -35 152 L -75 152" fill="none" stroke="#B8860B" stroke-width="1.5" opacity="0.3"/>
<path d="M -35 90 L -35 152 L -75 152" fill="none" stroke="#00FFFF" stroke-width="2" stroke-dasharray="15 100" opacity="0.8" filter="url(#cyan-glow)">
    <animate attributeName="stroke-dashoffset" values="115;0" dur="1.9805994135856613s" begin="1.6628443997399507s" repeatCount="indefinite"/>
</path>
<circle cx="-75" cy="152" r="2.5" fill="none" stroke="#B8860B" stroke-width="1.5" opacity="0.6"/>
<path d="M -90 -35 L -145 -35 L -145 5" fill="none" stroke="#B8860B" stroke-width="1.5" opacity="0.3"/>
<path d="M -90 -35 L -145 -35 L -145 5" fill="none" stroke="#00FFFF" stroke-width="2" stroke-dasharray="15 100" opacity="0.8" filter="url(#cyan-glow)">
    <animate attributeName="stroke-dashoffset" values="115;0" dur="2.680166695106042s" begin="1.610930287103836s" repeatCount="indefinite"/>
</path>
<circle cx="-145" cy="5" r="2.5" fill="none" stroke="#B8860B" stroke-width="1.5" opacity="0.6"/>
<path d="M -20 -90 L -20 -172 L 20 -172" fill="none" stroke="#B8860B" stroke-width="1.5" opacity="0.3"/>
<path d="M -20 -90 L -20 -172 L 20 -172" fill="none" stroke="#00FFFF" stroke-width="2" stroke-dasharray="15 100" opacity="0.8" filter="url(#cyan-glow)">
    <animate attributeName="stroke-dashoffset" values="115;0" dur="2.7096205032088205s" begin="1.251647414325367s" repeatCount="indefinite"/>
</path>
<circle cx="20" cy="-172" r="2.5" fill="none" stroke="#B8860B" stroke-width="1.5" opacity="0.6"/>
<path d="M 90 -20 L 168 -20 L 168 20" fill="none" stroke="#B8860B" stroke-width="1.5" opacity="0.3"/>
<path d="M 90 -20 L 168 -20 L 168 20" fill="none" stroke="#00FFFF" stroke-width="2" stroke-dasharray="15 100" opacity="0.8" filter="url(#cyan-glow)">
    <animate attributeName="stroke-dashoffset" values="115;0" dur="1.9956953843107803s" begin="0.8101756009362198s" repeatCount="indefinite"/>
</path>
<circle cx="168" cy="20" r="2.5" fill="none" stroke="#B8860B" stroke-width="1.5" opacity="0.6"/>
<path d="M -20 90 L -20 144 L -60 144" fill="none" stroke="#B8860B" stroke-width="1.5" opacity="0.3"/>
<path d="M -20 90 L -20 144 L -60 144" fill="none" stroke="#00FFFF" stroke-width="2" stroke-dasharray="15 100" opacity="0.8" filter="url(#cyan-glow)">
    <animate attributeName="stroke-dashoffset" values="115;0" dur="2.224401690110121s" begin="1.7967889754203354s" repeatCount="indefinite"/>
</path>
<circle cx="-60" cy="144" r="2.5" fill="none" stroke="#B8860B" stroke-width="1.5" opacity="0.6"/>
<path d="M -90 -20 L -151 -20 L -151 -60" fill="none" stroke="#B8860B" stroke-width="1.5" opacity="0.3"/>
<path d="M -90 -20 L -151 -20 L -151 -60" fill="none" stroke="#00FFFF" stroke-width="2" stroke-dasharray="15 100" opacity="0.8" filter="url(#cyan-glow)">
    <animate attributeName="stroke-dashoffset" values="115;0" dur="1.6876053534643893s" begin="0.38161006209580006s" repeatCount="indefinite"/>
</path>
<circle cx="-151" cy="-60" r="2.5" fill="none" stroke="#B8860B" stroke-width="1.5" opacity="0.6"/>
<path d="M -5 -90 L -5 -142 L -45 -142" fill="none" stroke="#B8860B" stroke-width="1.5" opacity="0.3"/>
<path d="M -5 -90 L -5 -142 L -45 -142" fill="none" stroke="#00FFFF" stroke-width="2" stroke-dasharray="15 100" opacity="0.8" filter="url(#cyan-glow)">
    <animate attributeName="stroke-dashoffset" values="115;0" dur="2.2443322304420428s" begin="0.5677979490507163s" repeatCount="indefinite"/>
</path>
<circle cx="-45" cy="-142" r="2.5" fill="none" stroke="#B8860B" stroke-width="1.5" opacity="0.6"/>
<path d="M 90 -5 L 180 -5 L 180 35" fill="none" stroke="#B8860B" stroke-width="1.5" opacity="0.3"/>
<path d="M 90 -5 L 180 -5 L 180 35" fill="none" stroke="#00FFFF" stroke-width="2" stroke-dasharray="15 100" opacity="0.8" filter="url(#cyan-glow)">
    <animate attributeName="stroke-dashoffset" values="115;0" dur="2.4193245419381357s" begin="1.7481123834044687s" repeatCount="indefinite"/>
</path>
<circle cx="180" cy="35" r="2.5" fill="none" stroke="#B8860B" stroke-width="1.5" opacity="0.6"/>
<path d="M -5 90 L -5 149 L -45 149" fill="none" stroke="#B8860B" stroke-width="1.5" opacity="0.3"/>
<path d="M -5 90 L -5 149 L -45 149" fill="none" stroke="#00FFFF" stroke-width="2" stroke-dasharray="15 100" opacity="0.8" filter="url(#cyan-glow)">
    <animate attributeName="stroke-dashoffset" values="115;0" dur="1.5236127053485697s" begin="1.6470912879746038s" repeatCount="indefinite"/>
</path>
<circle cx="-45" cy="149" r="2.5" fill="none" stroke="#B8860B" stroke-width="1.5" opacity="0.6"/>
<path d="M -90 -5 L -150 -5 L -150 -45" fill="none" stroke="#B8860B" stroke-width="1.5" opacity="0.3"/>
<path d="M -90 -5 L -150 -5 L -150 -45" fill="none" stroke="#00FFFF" stroke-width="2" stroke-dasharray="15 100" opacity="0.8" filter="url(#cyan-glow)">
    <animate attributeName="stroke-dashoffset" values="115;0" dur="2.4205231136611545s" begin="0.9798296805677564s" repeatCount="indefinite"/>
</path>
<circle cx="-150" cy="-45" r="2.5" fill="none" stroke="#B8860B" stroke-width="1.5" opacity="0.6"/>
<path d="M 10 -90 L 10 -145 L 50 -145" fill="none" stroke="#B8860B" stroke-width="1.5" opacity="0.3"/>
<path d="M 10 -90 L 10 -145 L 50 -145" fill="none" stroke="#00FFFF" stroke-width="2" stroke-dasharray="15 100" opacity="0.8" filter="url(#cyan-glow)">
    <animate attributeName="stroke-dashoffset" values="115;0" dur="2.855711250482705s" begin="0.31921488675054377s" repeatCount="indefinite"/>
</path>
<circle cx="50" cy="-145" r="2.5" fill="none" stroke="#B8860B" stroke-width="1.5" opacity="0.6"/>
<path d="M 90 10 L 144 10 L 144 50" fill="none" stroke="#B8860B" stroke-width="1.5" opacity="0.3"/>
<path d="M 90 10 L 144 10 L 144 50" fill="none" stroke="#00FFFF" stroke-width="2" stroke-dasharray="15 100" opacity="0.8" filter="url(#cyan-glow)">
    <animate attributeName="stroke-dashoffset" values="115;0" dur="2.5683811088117423s" begin="0.778478565771964s" repeatCount="indefinite"/>
</path>
<circle cx="144" cy="50" r="2.5" fill="none" stroke="#B8860B" stroke-width="1.5" opacity="0.6"/>
<path d="M 10 90 L 10 152 L 50 152" fill="none" stroke="#B8860B" stroke-width="1.5" opacity="0.3"/>
<path d="M 10 90 L 10 152 L 50 152" fill="none" stroke="#00FFFF" stroke-width="2" stroke-dasharray="15 100" opacity="0.8" filter="url(#cyan-glow)">
    <animate attributeName="stroke-dashoffset" values="115;0" dur="1.9776143982367294s" begin="1.4676023722589182s" repeatCount="indefinite"/>
</path>
<circle cx="50" cy="152" r="2.5" fill="none" stroke="#B8860B" stroke-width="1.5" opacity="0.6"/>
<path d="M -90 10 L -176 10 L -176 50" fill="none" stroke="#B8860B" stroke-width="1.5" opacity="0.3"/>
<path d="M -90 10 L -176 10 L -176 50" fill="none" stroke="#00FFFF" stroke-width="2" stroke-dasharray="15 100" opacity="0.8" filter="url(#cyan-glow)">
    <animate attributeName="stroke-dashoffset" values="115;0" dur="2.646505177561218s" begin="0.3723073547817737s" repeatCount="indefinite"/>
</path>
<circle cx="-176" cy="50" r="2.5" fill="none" stroke="#B8860B" stroke-width="1.5" opacity="0.6"/>
<path d="M 25 -90 L 25 -163 L 65 -163" fill="none" stroke="#B8860B" stroke-width="1.5" opacity="0.3"/>
<path d="M 25 -90 L 25 -163 L 65 -163" fill="none" stroke="#00FFFF" stroke-width="2" stroke-dasharray="15 100" opacity="0.8" filter="url(#cyan-glow)">
    <animate attributeName="stroke-dashoffset" values="115;0" dur="2.764191608245363s" begin="1.2398762611589265s" repeatCount="indefinite"/>
</path>
<circle cx="65" cy="-163" r="2.5" fill="none" stroke="#B8860B" stroke-width="1.5" opacity="0.6"/>
<path d="M 90 25 L 150 25 L 150 65" fill="none" stroke="#B8860B" stroke-width="1.5" opacity="0.3"/>
<path d="M 90 25 L 150 25 L 150 65" fill="none" stroke="#00FFFF" stroke-width="2" stroke-dasharray="15 100" opacity="0.8" filter="url(#cyan-glow)">
    <animate attributeName="stroke-dashoffset" values="115;0" dur="2.7923631224374557s" begin="1.2110107901490004s" repeatCount="indefinite"/>
</path>
<circle cx="150" cy="65" r="2.5" fill="none" stroke="#B8860B" stroke-width="1.5" opacity="0.6"/>
<path d="M 25 90 L 25 173 L -15 173" fill="none" stroke="#B8860B" stroke-width="1.5" opacity="0.3"/>
<path d="M 25 90 L 25 173 L -15 173" fill="none" stroke="#00FFFF" stroke-width="2" stroke-dasharray="15 100" opacity="0.8" filter="url(#cyan-glow)">
    <animate attributeName="stroke-dashoffset" values="115;0" dur="2.1006184381384108s" begin="0.05313227897121964s" repeatCount="indefinite"/>
</path>
<circle cx="-15" cy="173" r="2.5" fill="none" stroke="#B8860B" stroke-width="1.5" opacity="0.6"/>
<path d="M -90 25 L -157 25 L -157 -15" fill="none" stroke="#B8860B" stroke-width="1.5" opacity="0.3"/>
<path d="M -90 25 L -157 25 L -157 -15" fill="none" stroke="#00FFFF" stroke-width="2" stroke-dasharray="15 100" opacity="0.8" filter="url(#cyan-glow)">
    <animate attributeName="stroke-dashoffset" values="115;0" dur="2.5544554005977735s" begin="0.25392587095020924s" repeatCount="indefinite"/>
</path>
<circle cx="-157" cy="-15" r="2.5" fill="none" stroke="#B8860B" stroke-width="1.5" opacity="0.6"/>
<path d="M 40 -90 L 40 -170 L 80 -170" fill="none" stroke="#B8860B" stroke-width="1.5" opacity="0.3"/>
<path d="M 40 -90 L 40 -170 L 80 -170" fill="none" stroke="#00FFFF" stroke-width="2" stroke-dasharray="15 100" opacity="0.8" filter="url(#cyan-glow)">
    <animate attributeName="stroke-dashoffset" values="115;0" dur="2.1316162194929364s" begin="0.6063335734689064s" repeatCount="indefinite"/>
</path>
<circle cx="80" cy="-170" r="2.5" fill="none" stroke="#B8860B" stroke-width="1.5" opacity="0.6"/>
<path d="M 90 40 L 148 40 L 148 80" fill="none" stroke="#B8860B" stroke-width="1.5" opacity="0.3"/>
<path d="M 90 40 L 148 40 L 148 80" fill="none" stroke="#00FFFF" stroke-width="2" stroke-dasharray="15 100" opacity="0.8" filter="url(#cyan-glow)">
    <animate attributeName="stroke-dashoffset" values="115;0" dur="1.5455304653202189s" begin="0.7659897834484992s" repeatCount="indefinite"/>
</path>
<circle cx="148" cy="80" r="2.5" fill="none" stroke="#B8860B" stroke-width="1.5" opacity="0.6"/>
<path d="M 40 90 L 40 146 L 80 146" fill="none" stroke="#B8860B" stroke-width="1.5" opacity="0.3"/>
<path d="M 40 90 L 40 146 L 80 146" fill="none" stroke="#00FFFF" stroke-width="2" stroke-dasharray="15 100" opacity="0.8" filter="url(#cyan-glow)">
    <animate attributeName="stroke-dashoffset" values="115;0" dur="2.967492600001976s" begin="0.11528907091366292s" repeatCount="indefinite"/>
</path>
<circle cx="80" cy="146" r="2.5" fill="none" stroke="#B8860B" stroke-width="1.5" opacity="0.6"/>
<path d="M -90 40 L -158 40 L -158 0" fill="none" stroke="#B8860B" stroke-width="1.5" opacity="0.3"/>
<path d="M -90 40 L -158 40 L -158 0" fill="none" stroke="#00FFFF" stroke-width="2" stroke-dasharray="15 100" opacity="0.8" filter="url(#cyan-glow)">
    <animate attributeName="stroke-dashoffset" values="115;0" dur="2.2488742576648835s" begin="1.6028171317643305s" repeatCount="indefinite"/>
</path>
<circle cx="-158" cy="0" r="2.5" fill="none" stroke="#B8860B" stroke-width="1.5" opacity="0.6"/>


        <g filter="url(#chip-shadow)">
            <rect x="-67.0" y="-85" width="4" height="10" fill="url(#gold-metal)"/>
<rect x="-67.0" y="75" width="4" height="10" fill="url(#gold-metal)"/>
<rect x="-85" y="-67.0" width="10" height="4" fill="url(#gold-metal)"/>
<rect x="75" y="-67.0" width="10" height="4" fill="url(#gold-metal)"/>
<rect x="-57.0" y="-85" width="4" height="10" fill="url(#gold-metal)"/>
<rect x="-57.0" y="75" width="4" height="10" fill="url(#gold-metal)"/>
<rect x="-85" y="-57.0" width="10" height="4" fill="url(#gold-metal)"/>
<rect x="75" y="-57.0" width="10" height="4" fill="url(#gold-metal)"/>
<rect x="-47.0" y="-85" width="4" height="10" fill="url(#gold-metal)"/>
<rect x="-47.0" y="75" width="4" height="10" fill="url(#gold-metal)"/>
<rect x="-85" y="-47.0" width="10" height="4" fill="url(#gold-metal)"/>
<rect x="75" y="-47.0" width="10" height="4" fill="url(#gold-metal)"/>
<rect x="-37.0" y="-85" width="4" height="10" fill="url(#gold-metal)"/>
<rect x="-37.0" y="75" width="4" height="10" fill="url(#gold-metal)"/>
<rect x="-85" y="-37.0" width="10" height="4" fill="url(#gold-metal)"/>
<rect x="75" y="-37.0" width="10" height="4" fill="url(#gold-metal)"/>
<rect x="-27.0" y="-85" width="4" height="10" fill="url(#gold-metal)"/>
<rect x="-27.0" y="75" width="4" height="10" fill="url(#gold-metal)"/>
<rect x="-85" y="-27.0" width="10" height="4" fill="url(#gold-metal)"/>
<rect x="75" y="-27.0" width="10" height="4" fill="url(#gold-metal)"/>
<rect x="-17.0" y="-85" width="4" height="10" fill="url(#gold-metal)"/>
<rect x="-17.0" y="75" width="4" height="10" fill="url(#gold-metal)"/>
<rect x="-85" y="-17.0" width="10" height="4" fill="url(#gold-metal)"/>
<rect x="75" y="-17.0" width="10" height="4" fill="url(#gold-metal)"/>
<rect x="-7.0" y="-85" width="4" height="10" fill="url(#gold-metal)"/>
<rect x="-7.0" y="75" width="4" height="10" fill="url(#gold-metal)"/>
<rect x="-85" y="-7.0" width="10" height="4" fill="url(#gold-metal)"/>
<rect x="75" y="-7.0" width="10" height="4" fill="url(#gold-metal)"/>
<rect x="3.0" y="-85" width="4" height="10" fill="url(#gold-metal)"/>
<rect x="3.0" y="75" width="4" height="10" fill="url(#gold-metal)"/>
<rect x="-85" y="3.0" width="10" height="4" fill="url(#gold-metal)"/>
<rect x="75" y="3.0" width="10" height="4" fill="url(#gold-metal)"/>
<rect x="13.0" y="-85" width="4" height="10" fill="url(#gold-metal)"/>
<rect x="13.0" y="75" width="4" height="10" fill="url(#gold-metal)"/>
<rect x="-85" y="13.0" width="10" height="4" fill="url(#gold-metal)"/>
<rect x="75" y="13.0" width="10" height="4" fill="url(#gold-metal)"/>
<rect x="23.0" y="-85" width="4" height="10" fill="url(#gold-metal)"/>
<rect x="23.0" y="75" width="4" height="10" fill="url(#gold-metal)"/>
<rect x="-85" y="23.0" width="10" height="4" fill="url(#gold-metal)"/>
<rect x="75" y="23.0" width="10" height="4" fill="url(#gold-metal)"/>
<rect x="33.0" y="-85" width="4" height="10" fill="url(#gold-metal)"/>
<rect x="33.0" y="75" width="4" height="10" fill="url(#gold-metal)"/>
<rect x="-85" y="33.0" width="10" height="4" fill="url(#gold-metal)"/>
<rect x="75" y="33.0" width="10" height="4" fill="url(#gold-metal)"/>
<rect x="43.0" y="-85" width="4" height="10" fill="url(#gold-metal)"/>
<rect x="43.0" y="75" width="4" height="10" fill="url(#gold-metal)"/>
<rect x="-85" y="43.0" width="10" height="4" fill="url(#gold-metal)"/>
<rect x="75" y="43.0" width="10" height="4" fill="url(#gold-metal)"/>
<rect x="53.0" y="-85" width="4" height="10" fill="url(#gold-metal)"/>
<rect x="53.0" y="75" width="4" height="10" fill="url(#gold-metal)"/>
<rect x="-85" y="53.0" width="10" height="4" fill="url(#gold-metal)"/>
<rect x="75" y="53.0" width="10" height="4" fill="url(#gold-metal)"/>
<rect x="63.0" y="-85" width="4" height="10" fill="url(#gold-metal)"/>
<rect x="63.0" y="75" width="4" height="10" fill="url(#gold-metal)"/>
<rect x="-85" y="63.0" width="10" height="4" fill="url(#gold-metal)"/>
<rect x="75" y="63.0" width="10" height="4" fill="url(#gold-metal)"/>

            
            <rect x="-80" y="-80" width="160" height="160" rx="8" fill="#15171C" stroke="#2C303A" stroke-width="2"/>
            
            <rect x="-60" y="-60" width="120" height="120" rx="2" fill="#0F1015"/>
            
            <path d="M-60 -40 L-45 -35 M-60 -20 L-45 -20 M-60 0 L-45 0 M-60 20 L-45 20 M-60 40 L-45 35" stroke="url(#gold-metal)" stroke-width="0.8" fill="none" opacity="0.6"/>
            <path d="M60 -40 L45 -35 M60 -20 L45 -20 M60 0 L45 0 M60 20 L45 20 M60 40 L45 35" stroke="url(#gold-metal)" stroke-width="0.8" fill="none" opacity="0.6"/>
            <path d="M-40 -60 L-35 -45 M-20 -60 L-20 -45 M0 -60 L0 -45 M20 -60 L20 -45 M40 -60 L35 -45" stroke="url(#gold-metal)" stroke-width="0.8" fill="none" opacity="0.6"/>
            <path d="M-40 60 L-35 45 M-20 60 L-20 45 M0 60 L0 45 M20 60 L20 45 M40 60 L35 45" stroke="url(#gold-metal)" stroke-width="0.8" fill="none" opacity="0.6"/>

            <rect x="-45" y="-45" width="90" height="90" fill="url(#silicon-die)" stroke="#B8860B" stroke-width="1.5"/>
            <rect x="-45" y="-45" width="90" height="90" fill="url(#logic-gates)"/>
            
            <rect x="-45" y="-45" width="90" height="90" fill="none" stroke="#00FFFF" stroke-width="2" opacity="0.5" filter="url(#cyan-glow)">
                <animate attributeName="opacity" values="0.1;0.8;0.1" dur="1s" repeatCount="indefinite"/>
            </rect>
        </g>

        <g>
            <line x1="-200" y1="-240" x2="20" y2="-20" stroke="#FF1493" stroke-width="2" filter="url(#laser-glow)">
                <animate attributeName="opacity" values="0;1;0" dur="0.8s" begin="0.2s" repeatCount="indefinite"/>
            </line>
            <line x1="-200" y1="-240" x2="20" y2="-20" stroke="#FFFFFF" stroke-width="0.8" filter="url(#laser-glow)">
                <animate attributeName="opacity" values="0;1;0" dur="0.8s" begin="0.2s" repeatCount="indefinite"/>
            </line>
            
            <circle cx="20" cy="-20" r="6" fill="#FFFFFF" filter="url(#laser-glow)">
                <animate attributeName="opacity" values="0;1;0" dur="0.8s" begin="0.2s" repeatCount="indefinite"/>
                <animate attributeName="r" values="2;8;2" dur="0.8s" begin="0.2s" repeatCount="indefinite"/>
            </circle>
            
            
        <circle cx="20" cy="-20" r="1.1" fill="#FF1493" filter="url(#laser-glow)" opacity="0">
            <animateTransform attributeName="transform" type="translate" values="0,0; 23.2,60.4" dur="0.5899266835864376s" begin="0.03239871224274371s" repeatCount="indefinite"/>
            <animate attributeName="opacity" values="1;0" dur="0.5899266835864376s" begin="0.03239871224274371s" repeatCount="indefinite"/>
        </circle>
        
        <circle cx="20" cy="-20" r="2.7" fill="#FF1493" filter="url(#laser-glow)" opacity="0">
            <animateTransform attributeName="transform" type="translate" values="0,0; -46.2,18.6" dur="1.095246318922094s" begin="0.005696338954566282s" repeatCount="indefinite"/>
            <animate attributeName="opacity" values="1;0" dur="1.095246318922094s" begin="0.005696338954566282s" repeatCount="indefinite"/>
        </circle>
        
        <circle cx="20" cy="-20" r="2.7" fill="#FF1493" filter="url(#laser-glow)" opacity="0">
            <animateTransform attributeName="transform" type="translate" values="0,0; -4.2,58.4" dur="1.1567843357681389s" begin="0.3974918563136855s" repeatCount="indefinite"/>
            <animate attributeName="opacity" values="1;0" dur="1.1567843357681389s" begin="0.3974918563136855s" repeatCount="indefinite"/>
        </circle>
        
        <circle cx="20" cy="-20" r="2.1" fill="#FF1493" filter="url(#laser-glow)" opacity="0">
            <animateTransform attributeName="transform" type="translate" values="0,0; -54.8,-29.5" dur="0.5881873027870874s" begin="0.28295961907540323s" repeatCount="indefinite"/>
            <animate attributeName="opacity" values="1;0" dur="0.5881873027870874s" begin="0.28295961907540323s" repeatCount="indefinite"/>
        </circle>
        
        <circle cx="20" cy="-20" r="1.5" fill="#FF1493" filter="url(#laser-glow)" opacity="0">
            <animateTransform attributeName="transform" type="translate" values="0,0; 45.0,11.6" dur="0.7115599048488974s" begin="0.07858191291385358s" repeatCount="indefinite"/>
            <animate attributeName="opacity" values="1;0" dur="0.7115599048488974s" begin="0.07858191291385358s" repeatCount="indefinite"/>
        </circle>
        
        <circle cx="20" cy="-20" r="1.2" fill="#FF1493" filter="url(#laser-glow)" opacity="0">
            <animateTransform attributeName="transform" type="translate" values="0,0; 14.8,34.6" dur="0.6167559227576973s" begin="0.47606752268442004s" repeatCount="indefinite"/>
            <animate attributeName="opacity" values="1;0" dur="0.6167559227576973s" begin="0.47606752268442004s" repeatCount="indefinite"/>
        </circle>
        
        <circle cx="20" cy="-20" r="2.9" fill="#FF1493" filter="url(#laser-glow)" opacity="0">
            <animateTransform attributeName="transform" type="translate" values="0,0; -32.5,-7.1" dur="0.8928174095827756s" begin="0.3519204127081541s" repeatCount="indefinite"/>
            <animate attributeName="opacity" values="1;0" dur="0.8928174095827756s" begin="0.3519204127081541s" repeatCount="indefinite"/>
        </circle>
        
        <circle cx="20" cy="-20" r="1.5" fill="#FF1493" filter="url(#laser-glow)" opacity="0">
            <animateTransform attributeName="transform" type="translate" values="0,0; 13.2,-16.1" dur="0.9053568254993412s" begin="0.45129533979013015s" repeatCount="indefinite"/>
            <animate attributeName="opacity" values="1;0" dur="0.9053568254993412s" begin="0.45129533979013015s" repeatCount="indefinite"/>
        </circle>
        
        <circle cx="20" cy="-20" r="1.5" fill="#FF1493" filter="url(#laser-glow)" opacity="0">
            <animateTransform attributeName="transform" type="translate" values="0,0; 48.1,-41.1" dur="1.0389647722422954s" begin="0.44047277346788755s" repeatCount="indefinite"/>
            <animate attributeName="opacity" values="1;0" dur="1.0389647722422954s" begin="0.44047277346788755s" repeatCount="indefinite"/>
        </circle>
        
        <circle cx="20" cy="-20" r="2.6" fill="#FF1493" filter="url(#laser-glow)" opacity="0">
            <animateTransform attributeName="transform" type="translate" values="0,0; -20.6,-8.7" dur="0.7475861817391889s" begin="0.17765960637270595s" repeatCount="indefinite"/>
            <animate attributeName="opacity" values="1;0" dur="0.7475861817391889s" begin="0.17765960637270595s" repeatCount="indefinite"/>
        </circle>
        
        <circle cx="20" cy="-20" r="1.7" fill="#FF1493" filter="url(#laser-glow)" opacity="0">
            <animateTransform attributeName="transform" type="translate" values="0,0; -58.9,5.1" dur="0.8796073904205339s" begin="0.433164948054734s" repeatCount="indefinite"/>
            <animate attributeName="opacity" values="1;0" dur="0.8796073904205339s" begin="0.433164948054734s" repeatCount="indefinite"/>
        </circle>
        
        <circle cx="20" cy="-20" r="1.6" fill="#FF1493" filter="url(#laser-glow)" opacity="0">
            <animateTransform attributeName="transform" type="translate" values="0,0; -2.9,-75.0" dur="0.9155045426147683s" begin="0.46548072483614655s" repeatCount="indefinite"/>
            <animate attributeName="opacity" values="1;0" dur="0.9155045426147683s" begin="0.46548072483614655s" repeatCount="indefinite"/>
        </circle>
        
        <circle cx="20" cy="-20" r="1.2" fill="#FF1493" filter="url(#laser-glow)" opacity="0">
            <animateTransform attributeName="transform" type="translate" values="0,0; 3.7,28.4" dur="0.5812544627515086s" begin="0.4364073453007859s" repeatCount="indefinite"/>
            <animate attributeName="opacity" values="1;0" dur="0.5812544627515086s" begin="0.4364073453007859s" repeatCount="indefinite"/>
        </circle>
        
        <circle cx="20" cy="-20" r="1.6" fill="#FF1493" filter="url(#laser-glow)" opacity="0">
            <animateTransform attributeName="transform" type="translate" values="0,0; 48.7,-21.5" dur="1.0085324663039301s" begin="0.3134605615601457s" repeatCount="indefinite"/>
            <animate attributeName="opacity" values="1;0" dur="1.0085324663039301s" begin="0.3134605615601457s" repeatCount="indefinite"/>
        </circle>
        
        <circle cx="20" cy="-20" r="1.9" fill="#FF1493" filter="url(#laser-glow)" opacity="0">
            <animateTransform attributeName="transform" type="translate" values="0,0; -21.2,-34.8" dur="0.8929313964428596s" begin="0.37017274365480035s" repeatCount="indefinite"/>
            <animate attributeName="opacity" values="1;0" dur="0.8929313964428596s" begin="0.37017274365480035s" repeatCount="indefinite"/>
        </circle>
        
        <circle cx="20" cy="-20" r="2.1" fill="#FF1493" filter="url(#laser-glow)" opacity="0">
            <animateTransform attributeName="transform" type="translate" values="0,0; 60.1,18.6" dur="0.8016674254159945s" begin="0.4130279626454873s" repeatCount="indefinite"/>
            <animate attributeName="opacity" values="1;0" dur="0.8016674254159945s" begin="0.4130279626454873s" repeatCount="indefinite"/>
        </circle>
        
        <circle cx="20" cy="-20" r="1.1" fill="#FF1493" filter="url(#laser-glow)" opacity="0">
            <animateTransform attributeName="transform" type="translate" values="0,0; 5.0,-57.6" dur="0.5771724069343969s" begin="0.27778872243025843s" repeatCount="indefinite"/>
            <animate attributeName="opacity" values="1;0" dur="0.5771724069343969s" begin="0.27778872243025843s" repeatCount="indefinite"/>
        </circle>
        
        <circle cx="20" cy="-20" r="2.4" fill="#FF1493" filter="url(#laser-glow)" opacity="0">
            <animateTransform attributeName="transform" type="translate" values="0,0; 54.5,-30.2" dur="0.7141513860393113s" begin="0.4247130956671967s" repeatCount="indefinite"/>
            <animate attributeName="opacity" values="1;0" dur="0.7141513860393113s" begin="0.4247130956671967s" repeatCount="indefinite"/>
        </circle>
        
        <circle cx="20" cy="-20" r="1.3" fill="#FF1493" filter="url(#laser-glow)" opacity="0">
            <animateTransform attributeName="transform" type="translate" values="0,0; 49.6,-16.4" dur="1.0819649890751082s" begin="0.33793474080871566s" repeatCount="indefinite"/>
            <animate attributeName="opacity" values="1;0" dur="1.0819649890751082s" begin="0.33793474080871566s" repeatCount="indefinite"/>
        </circle>
        
        <circle cx="20" cy="-20" r="1.8" fill="#FF1493" filter="url(#laser-glow)" opacity="0">
            <animateTransform attributeName="transform" type="translate" values="0,0; 4.8,-53.4" dur="0.6412092862255537s" begin="0.34889873578693237s" repeatCount="indefinite"/>
            <animate attributeName="opacity" values="1;0" dur="0.6412092862255537s" begin="0.34889873578693237s" repeatCount="indefinite"/>
        </circle>
        
        <circle cx="20" cy="-20" r="2.3" fill="#FF1493" filter="url(#laser-glow)" opacity="0">
            <animateTransform attributeName="transform" type="translate" values="0,0; 5.1,47.4" dur="0.7428260691970501s" begin="0.24355475631888823s" repeatCount="indefinite"/>
            <animate attributeName="opacity" values="1;0" dur="0.7428260691970501s" begin="0.24355475631888823s" repeatCount="indefinite"/>
        </circle>
        
        <circle cx="20" cy="-20" r="1.7" fill="#FF1493" filter="url(#laser-glow)" opacity="0">
            <animateTransform attributeName="transform" type="translate" values="0,0; -24.4,22.2" dur="0.7004039484519291s" begin="0.31207782013855634s" repeatCount="indefinite"/>
            <animate attributeName="opacity" values="1;0" dur="0.7004039484519291s" begin="0.31207782013855634s" repeatCount="indefinite"/>
        </circle>
        
        <circle cx="20" cy="-20" r="2.2" fill="#FF1493" filter="url(#laser-glow)" opacity="0">
            <animateTransform attributeName="transform" type="translate" values="0,0; -27.1,13.0" dur="0.6943251385725187s" begin="0.4978414402472673s" repeatCount="indefinite"/>
            <animate attributeName="opacity" values="1;0" dur="0.6943251385725187s" begin="0.4978414402472673s" repeatCount="indefinite"/>
        </circle>
        
        <circle cx="20" cy="-20" r="2.9" fill="#FF1493" filter="url(#laser-glow)" opacity="0">
            <animateTransform attributeName="transform" type="translate" values="0,0; 25.8,59.9" dur="0.5298388457607408s" begin="0.11875933176754389s" repeatCount="indefinite"/>
            <animate attributeName="opacity" values="1;0" dur="0.5298388457607408s" begin="0.11875933176754389s" repeatCount="indefinite"/>
        </circle>
        
        <circle cx="20" cy="-20" r="1.5" fill="#FF1493" filter="url(#laser-glow)" opacity="0">
            <animateTransform attributeName="transform" type="translate" values="0,0; -21.4,-24.7" dur="0.7430451771380345s" begin="0.4426834881417562s" repeatCount="indefinite"/>
            <animate attributeName="opacity" values="1;0" dur="0.7430451771380345s" begin="0.4426834881417562s" repeatCount="indefinite"/>
        </circle>
        
        <circle cx="20" cy="-20" r="1.9" fill="#FF1493" filter="url(#laser-glow)" opacity="0">
            <animateTransform attributeName="transform" type="translate" values="0,0; -32.0,-69.7" dur="0.8030348861173431s" begin="0.15406245743228064s" repeatCount="indefinite"/>
            <animate attributeName="opacity" values="1;0" dur="0.8030348861173431s" begin="0.15406245743228064s" repeatCount="indefinite"/>
        </circle>
        
        <circle cx="20" cy="-20" r="1.9" fill="#FF1493" filter="url(#laser-glow)" opacity="0">
            <animateTransform attributeName="transform" type="translate" values="0,0; 16.1,14.9" dur="1.1504515600984453s" begin="0.4701728093530277s" repeatCount="indefinite"/>
            <animate attributeName="opacity" values="1;0" dur="1.1504515600984453s" begin="0.4701728093530277s" repeatCount="indefinite"/>
        </circle>
        
        <circle cx="20" cy="-20" r="2.0" fill="#FF1493" filter="url(#laser-glow)" opacity="0">
            <animateTransform attributeName="transform" type="translate" values="0,0; 24.4,-7.9" dur="1.0930926136210175s" begin="0.4764612738887727s" repeatCount="indefinite"/>
            <animate attributeName="opacity" values="1;0" dur="1.0930926136210175s" begin="0.4764612738887727s" repeatCount="indefinite"/>
        </circle>
        
        <circle cx="20" cy="-20" r="1.2" fill="#FF1493" filter="url(#laser-glow)" opacity="0">
            <animateTransform attributeName="transform" type="translate" values="0,0; 11.9,-47.6" dur="0.6335973707002251s" begin="0.009274555489382552s" repeatCount="indefinite"/>
            <animate attributeName="opacity" values="1;0" dur="0.6335973707002251s" begin="0.009274555489382552s" repeatCount="indefinite"/>
        </circle>
        
        <circle cx="20" cy="-20" r="1.5" fill="#FF1493" filter="url(#laser-glow)" opacity="0">
            <animateTransform attributeName="transform" type="translate" values="0,0; 22.3,15.7" dur="1.1675235741548753s" begin="0.41204778573886197s" repeatCount="indefinite"/>
            <animate attributeName="opacity" values="1;0" dur="1.1675235741548753s" begin="0.41204778573886197s" repeatCount="indefinite"/>
        </circle>
        
            
            <text x="35" y="-30" font-family="'JetBrains Mono', monospace" font-size="8" fill="#FF1493" filter="url(#laser-glow)" font-weight="bold">
                <animate attributeName="opacity" values="0;1;0" dur="0.8s" begin="0.3s" repeatCount="indefinite"/>
                ERR: SKIP_INST
            </text>
        </g>
    </g>

    <g transform="translate(200, 490)" filter="url(#chip-shadow)">
        <polygon points="-160,-35 160,-35 175,0 160,35 -160,35 -175,0" fill="#1A1A24" stroke="url(#gold-metal)" stroke-width="2"/>
        
        <line x1="-150" y1="2" x2="150" y2="2" stroke="#3A3F4C" stroke-width="1"/>
        <line x1="-150" y1="18" x2="150" y2="18" stroke="#3A3F4C" stroke-width="1"/>
        
        <text x="0" y="-6" text-anchor="middle" font-family="'JetBrains Mono', serif" font-size="28" font-weight="900" fill="url(#gold-metal)" letter-spacing="12">CHES</text>
        
        <text x="0" y="12" text-anchor="middle" font-family="'JetBrains Mono', monospace" font-size="8.5" fill="#FFFFFF" letter-spacing="3" opacity="0.9">CRYPTOGRAPHIC HARDWARE &amp; EMBEDDED SYSTEMS</text>
        <text x="0" y="28" text-anchor="middle" font-family="'JetBrains Mono', monospace" font-size="6.5" fill="#00FFFF" letter-spacing="5" opacity="0.8" filter="url(#cyan-glow)">HIGHLIGHTED TALK // IACR</text>
        
        <circle cx="-160" cy="0" r="3" fill="#0A0B10" stroke="url(#gold-metal)" stroke-width="1.5"/>
        <circle cx="160" cy="0" r="3" fill="#0A0B10" stroke="url(#gold-metal)" stroke-width="1.5"/>
    </g>
</svg>