<svg viewBox="0 0 400 600" xmlns="http://www.w3.org/2000/svg">
    <defs>
        <style>
            @import url('https://fonts.googleapis.com/css2?family=Cinzel:wght@600;800;900&amp;family=JetBrains+Mono:wght@200;400;700&amp;display=swap');
            
            .ccs-title { font-family: 'Cinzel', serif; font-weight: 900; letter-spacing: 0.2em; }
            .acm-text { font-family: 'Cinzel', serif; font-weight: 600; letter-spacing: 0.45em; }
            .full-name { font-family: 'JetBrains Mono', monospace; font-weight: 400; letter-spacing: 0.25em; }
            .tagline { font-family: 'JetBrains Mono', monospace; font-weight: 200; letter-spacing: 0.35em; }
        </style>

        <radialGradient id="obsidian-bg" cx="50%" cy="45%" r="70%">
            <stop offset="0%" stop-color="#0B101E"/>
            <stop offset="60%" stop-color="#04070D"/>
            <stop offset="100%" stop-color="#010203"/>
        </radialGradient>

        <linearGradient id="cyber-cyan" x1="0%" y1="0%" x2="100%" y2="100%">
            <stop offset="0%" stop-color="#E0FFFF"/>
            <stop offset="40%" stop-color="#00F0FF">
                <animate attributeName="stop-color" values="#00F0FF;#00A8FF;#00F0FF" dur="4s" repeatCount="indefinite"/>
            </stop>
            <stop offset="80%" stop-color="#0077B6"/>
            <stop offset="100%" stop-color="#023E8A"/>
        </linearGradient>

        <linearGradient id="platinum" x1="0%" y1="0%" x2="100%" y2="100%">
            <stop offset="0%" stop-color="#FFFFFF"/>
            <stop offset="30%" stop-color="#E2E8F0"/>
            <stop offset="70%" stop-color="#94A3B8"/>
            <stop offset="100%" stop-color="#475569"/>
        </linearGradient>

        <filter id="glow-cyan" x="-50%" y="-50%" width="200%" height="200%">
            <feGaussianBlur stdDeviation="5" result="blur"/>
            <feMerge><feMergeNode in="blur"/><feMergeNode in="SourceGraphic"/></feMerge>
        </filter>
        <filter id="shield-shadow" x="-30%" y="-30%" width="160%" height="160%">
            <feDropShadow dx="0" dy="12" stdDeviation="10" flood-color="#000" flood-opacity="0.95"/>
        </filter>

        <path id="data-ring" d="M 0 -145 A 145 145 0 1 1 -0.1 -145" />
    </defs>
    
    <rect width="400" height="600" fill="url(#obsidian-bg)"/>
    
    <g>
        <animateTransform attributeName="transform" type="translate" values="0,8; 0,-8; 0,8" dur="10s" ease="ease-in-out" repeatCount="indefinite"/>
        <polygon points="-60.0,-69.28 -70.0,-51.95949192431123 -90.0,-51.95949192431122 -100.0,-69.28 -90.00000000000001,-86.60050807568877 -70.0,-86.60050807568877" fill="none" stroke="#00F0FF" stroke-width="0.5" opacity="0.06"/>
<polygon points="-20.0,-69.28 -30.0,-51.95949192431123 -50.0,-51.95949192431122 -60.0,-69.28 -50.00000000000001,-86.60050807568877 -30.0,-86.60050807568877" fill="none" stroke="#00F0FF" stroke-width="0.5" opacity="0.06"/>
<polygon points="20.0,-69.28 10.000000000000002,-51.95949192431123 -9.999999999999996,-51.95949192431122 -20.0,-69.28 -10.000000000000009,-86.60050807568877 10.000000000000002,-86.60050807568877" fill="none" stroke="#00F0FF" stroke-width="0.5" opacity="0.06"/>
<polygon points="60.0,-69.28 50.0,-51.95949192431123 30.000000000000004,-51.95949192431122 20.0,-69.28 29.999999999999993,-86.60050807568877 50.0,-86.60050807568877" fill="none" stroke="#00F0FF" stroke-width="0.5" opacity="0.06"/>
<polygon points="100.0,-69.28 90.0,-51.95949192431123 70.0,-51.95949192431122 60.0,-69.28 69.99999999999999,-86.60050807568877 90.0,-86.60050807568877" fill="none" stroke="#00F0FF" stroke-width="0.5" opacity="0.06"/>
<polygon points="140.0,-69.28 130.0,-51.95949192431123 110.0,-51.95949192431122 100.0,-69.28 109.99999999999999,-86.60050807568877 130.0,-86.60050807568877" fill="none" stroke="#00F0FF" stroke-width="0.5" opacity="0.06"/>
<polygon points="180.0,-69.28 170.0,-51.95949192431123 150.0,-51.95949192431122 140.0,-69.28 150.0,-86.60050807568877 170.0,-86.60050807568877" fill="none" stroke="#00F0FF" stroke-width="0.5" opacity="0.06"/>
<polygon points="220.0,-69.28 210.0,-51.95949192431123 190.0,-51.95949192431122 180.0,-69.28 190.0,-86.60050807568877 210.0,-86.60050807568877" fill="none" stroke="#00F0FF" stroke-width="0.5" opacity="0.06"/>
<polygon points="260.0,-69.28 250.0,-51.95949192431123 230.0,-51.95949192431122 220.0,-69.28 230.0,-86.60050807568877 250.0,-86.60050807568877" fill="none" stroke="#00F0FF" stroke-width="0.5" opacity="0.06"/>
<polygon points="300.0,-69.28 290.0,-51.95949192431123 270.0,-51.95949192431122 260.0,-69.28 270.0,-86.60050807568877 290.0,-86.60050807568877" fill="none" stroke="#00F0FF" stroke-width="0.5" opacity="0.06"/>
<polygon points="340.0,-69.28 330.0,-51.95949192431123 310.0,-51.95949192431122 300.0,-69.28 310.0,-86.60050807568877 330.0,-86.60050807568877" fill="none" stroke="#00F0FF" stroke-width="0.5" opacity="0.06"/>
<polygon points="380.0,-69.28 370.0,-51.95949192431123 350.0,-51.95949192431122 340.0,-69.28 350.0,-86.60050807568877 370.0,-86.60050807568877" fill="none" stroke="#00F0FF" stroke-width="0.5" opacity="0.06"/>
<polygon points="420.0,-69.28 410.0,-51.95949192431123 390.0,-51.95949192431122 380.0,-69.28 390.0,-86.60050807568877 410.0,-86.60050807568877" fill="none" stroke="#00F0FF" stroke-width="0.5" opacity="0.06"/>
<polygon points="460.0,-69.28 450.0,-51.95949192431123 430.0,-51.95949192431122 420.0,-69.28 430.0,-86.60050807568877 450.0,-86.60050807568877" fill="none" stroke="#00F0FF" stroke-width="0.5" opacity="0.06"/>
<polygon points="-40.0,-34.64 -50.0,-17.31949192431123 -70.0,-17.319491924311226 -80.0,-34.64 -70.00000000000001,-51.96050807568877 -50.0,-51.96050807568877" fill="none" stroke="#00F0FF" stroke-width="0.5" opacity="0.06"/>
<polygon points="0.0,-34.64 -9.999999999999998,-17.31949192431123 -29.999999999999996,-17.319491924311226 -40.0,-34.64 -30.000000000000007,-51.96050807568877 -9.999999999999998,-51.96050807568877" fill="none" stroke="#00F0FF" stroke-width="0.5" opacity="0.06"/>
<polygon points="40.0,-34.64 30.0,-17.31949192431123 10.000000000000004,-17.319491924311226 0.0,-34.64 9.999999999999991,-51.96050807568877 30.0,-51.96050807568877" fill="none" stroke="#00F0FF" stroke-width="0.5" opacity="0.06"/>
<polygon points="80.0,-34.64 70.0,-17.31949192431123 50.0,-17.319491924311226 40.0,-34.64 49.99999999999999,-51.96050807568877 70.0,-51.96050807568877" fill="none" stroke="#00F0FF" stroke-width="0.5" opacity="0.06"/>
<polygon points="120.0,-34.64 110.0,-17.31949192431123 90.0,-17.319491924311226 80.0,-34.64 89.99999999999999,-51.96050807568877 110.0,-51.96050807568877" fill="none" stroke="#00F0FF" stroke-width="0.5" opacity="0.06"/>
<polygon points="160.0,-34.64 150.0,-17.31949192431123 130.0,-17.319491924311226 120.0,-34.64 130.0,-51.96050807568877 150.0,-51.96050807568877" fill="none" stroke="#00F0FF" stroke-width="0.5" opacity="0.06"/>
<polygon points="200.0,-34.64 190.0,-17.31949192431123 170.0,-17.319491924311226 160.0,-34.64 170.0,-51.96050807568877 190.0,-51.96050807568877" fill="none" stroke="#00F0FF" stroke-width="0.5" opacity="0.06"/>
<polygon points="240.0,-34.64 230.0,-17.31949192431123 210.0,-17.319491924311226 200.0,-34.64 210.0,-51.96050807568877 230.0,-51.96050807568877" fill="none" stroke="#00F0FF" stroke-width="0.5" opacity="0.06"/>
<polygon points="280.0,-34.64 270.0,-17.31949192431123 250.0,-17.319491924311226 240.0,-34.64 250.0,-51.96050807568877 270.0,-51.96050807568877" fill="none" stroke="#00F0FF" stroke-width="0.5" opacity="0.06"/>
<polygon points="320.0,-34.64 310.0,-17.31949192431123 290.0,-17.319491924311226 280.0,-34.64 290.0,-51.96050807568877 310.0,-51.96050807568877" fill="none" stroke="#00F0FF" stroke-width="0.5" opacity="0.06"/>
<polygon points="360.0,-34.64 350.0,-17.31949192431123 330.0,-17.319491924311226 320.0,-34.64 330.0,-51.96050807568877 350.0,-51.96050807568877" fill="none" stroke="#00F0FF" stroke-width="0.5" opacity="0.06"/>
<polygon points="400.0,-34.64 390.0,-17.31949192431123 370.0,-17.319491924311226 360.0,-34.64 370.0,-51.96050807568877 390.0,-51.96050807568877" fill="none" stroke="#00F0FF" stroke-width="0.5" opacity="0.06"/>
<polygon points="440.0,-34.64 430.0,-17.31949192431123 410.0,-17.319491924311226 400.0,-34.64 410.0,-51.96050807568877 430.0,-51.96050807568877" fill="none" stroke="#00F0FF" stroke-width="0.5" opacity="0.06"/>
<polygon points="480.0,-34.64 470.0,-17.31949192431123 450.0,-17.319491924311226 440.0,-34.64 450.0,-51.96050807568877 470.0,-51.96050807568877" fill="none" stroke="#00F0FF" stroke-width="0.5" opacity="0.06"/>
<polygon points="-60.0,0.0 -70.0,17.32050807568877 -90.0,17.320508075688775 -100.0,2.4492935982947065e-15 -90.00000000000001,-17.32050807568877 -70.0,-17.32050807568877" fill="none" stroke="#00F0FF" stroke-width="0.5" opacity="0.06"/>
<polygon points="-20.0,0.0 -30.0,17.32050807568877 -50.0,17.320508075688775 -60.0,2.4492935982947065e-15 -50.00000000000001,-17.32050807568877 -30.0,-17.32050807568877" fill="none" stroke="#00F0FF" stroke-width="0.5" opacity="0.06"/>
<polygon points="20.0,0.0 10.000000000000002,17.32050807568877 -9.999999999999996,17.320508075688775 -20.0,2.4492935982947065e-15 -10.000000000000009,-17.32050807568877 10.000000000000002,-17.32050807568877" fill="none" stroke="#00F0FF" stroke-width="0.5" opacity="0.06"/>
<polygon points="60.0,0.0 50.0,17.32050807568877 30.000000000000004,17.320508075688775 20.0,2.4492935982947065e-15 29.999999999999993,-17.32050807568877 50.0,-17.32050807568877" fill="none" stroke="#00F0FF" stroke-width="0.5" opacity="0.06"/>
<polygon points="100.0,0.0 90.0,17.32050807568877 70.0,17.320508075688775 60.0,2.4492935982947065e-15 69.99999999999999,-17.32050807568877 90.0,-17.32050807568877" fill="none" stroke="#00F0FF" stroke-width="0.5" opacity="0.06"/>
<polygon points="140.0,0.0 130.0,17.32050807568877 110.0,17.320508075688775 100.0,2.4492935982947065e-15 109.99999999999999,-17.32050807568877 130.0,-17.32050807568877" fill="none" stroke="#00F0FF" stroke-width="0.5" opacity="0.06"/>
<polygon points="180.0,0.0 170.0,17.32050807568877 150.0,17.320508075688775 140.0,2.4492935982947065e-15 150.0,-17.32050807568877 170.0,-17.32050807568877" fill="none" stroke="#00F0FF" stroke-width="0.5" opacity="0.06"/>
<polygon points="220.0,0.0 210.0,17.32050807568877 190.0,17.320508075688775 180.0,2.4492935982947065e-15 190.0,-17.32050807568877 210.0,-17.32050807568877" fill="none" stroke="#00F0FF" stroke-width="0.5" opacity="0.06"/>
<polygon points="260.0,0.0 250.0,17.32050807568877 230.0,17.320508075688775 220.0,2.4492935982947065e-15 230.0,-17.32050807568877 250.0,-17.32050807568877" fill="none" stroke="#00F0FF" stroke-width="0.5" opacity="0.06"/>
<polygon points="300.0,0.0 290.0,17.32050807568877 270.0,17.320508075688775 260.0,2.4492935982947065e-15 270.0,-17.32050807568877 290.0,-17.32050807568877" fill="none" stroke="#00F0FF" stroke-width="0.5" opacity="0.06"/>
<polygon points="340.0,0.0 330.0,17.32050807568877 310.0,17.320508075688775 300.0,2.4492935982947065e-15 310.0,-17.32050807568877 330.0,-17.32050807568877" fill="none" stroke="#00F0FF" stroke-width="0.5" opacity="0.06"/>
<polygon points="380.0,0.0 370.0,17.32050807568877 350.0,17.320508075688775 340.0,2.4492935982947065e-15 350.0,-17.32050807568877 370.0,-17.32050807568877" fill="none" stroke="#00F0FF" stroke-width="0.5" opacity="0.06"/>
<polygon points="420.0,0.0 410.0,17.32050807568877 390.0,17.320508075688775 380.0,2.4492935982947065e-15 390.0,-17.32050807568877 410.0,-17.32050807568877" fill="none" stroke="#00F0FF" stroke-width="0.5" opacity="0.06"/>
<polygon points="460.0,0.0 450.0,17.32050807568877 430.0,17.320508075688775 420.0,2.4492935982947065e-15 430.0,-17.32050807568877 450.0,-17.32050807568877" fill="none" stroke="#00F0FF" stroke-width="0.5" opacity="0.06"/>
<polygon points="-40.0,34.64 -50.0,51.96050807568877 -70.0,51.96050807568878 -80.0,34.64 -70.00000000000001,17.31949192431123 -50.0,17.31949192431123" fill="none" stroke="#00F0FF" stroke-width="0.5" opacity="0.06"/>
<polygon points="0.0,34.64 -9.999999999999998,51.96050807568877 -29.999999999999996,51.96050807568878 -40.0,34.64 -30.000000000000007,17.31949192431123 -9.999999999999998,17.31949192431123" fill="none" stroke="#00F0FF" stroke-width="0.5" opacity="0.06"/>
<polygon points="40.0,34.64 30.0,51.96050807568877 10.000000000000004,51.96050807568878 0.0,34.64 9.999999999999991,17.31949192431123 30.0,17.31949192431123" fill="none" stroke="#00F0FF" stroke-width="0.5" opacity="0.06"/>
<polygon points="80.0,34.64 70.0,51.96050807568877 50.0,51.96050807568878 40.0,34.64 49.99999999999999,17.31949192431123 70.0,17.31949192431123" fill="none" stroke="#00F0FF" stroke-width="0.5" opacity="0.06"/>
<polygon points="120.0,34.64 110.0,51.96050807568877 90.0,51.96050807568878 80.0,34.64 89.99999999999999,17.31949192431123 110.0,17.31949192431123" fill="none" stroke="#00F0FF" stroke-width="0.5" opacity="0.06"/>
<polygon points="160.0,34.64 150.0,51.96050807568877 130.0,51.96050807568878 120.0,34.64 130.0,17.31949192431123 150.0,17.31949192431123" fill="none" stroke="#00F0FF" stroke-width="0.5" opacity="0.06"/>
<polygon points="200.0,34.64 190.0,51.96050807568877 170.0,51.96050807568878 160.0,34.64 170.0,17.31949192431123 190.0,17.31949192431123" fill="none" stroke="#00F0FF" stroke-width="0.5" opacity="0.06"/>
<polygon points="240.0,34.64 230.0,51.96050807568877 210.0,51.96050807568878 200.0,34.64 210.0,17.31949192431123 230.0,17.31949192431123" fill="none" stroke="#00F0FF" stroke-width="0.5" opacity="0.06"/>
<polygon points="280.0,34.64 270.0,51.96050807568877 250.0,51.96050807568878 240.0,34.64 250.0,17.31949192431123 270.0,17.31949192431123" fill="none" stroke="#00F0FF" stroke-width="0.5" opacity="0.06"/>
<polygon points="320.0,34.64 310.0,51.96050807568877 290.0,51.96050807568878 280.0,34.64 290.0,17.31949192431123 310.0,17.31949192431123" fill="none" stroke="#00F0FF" stroke-width="0.5" opacity="0.06"/>
<polygon points="360.0,34.64 350.0,51.96050807568877 330.0,51.96050807568878 320.0,34.64 330.0,17.31949192431123 350.0,17.31949192431123" fill="none" stroke="#00F0FF" stroke-width="0.5" opacity="0.06"/>
<polygon points="400.0,34.64 390.0,51.96050807568877 370.0,51.96050807568878 360.0,34.64 370.0,17.31949192431123 390.0,17.31949192431123" fill="none" stroke="#00F0FF" stroke-width="0.5" opacity="0.06"/>
<polygon points="440.0,34.64 430.0,51.96050807568877 410.0,51.96050807568878 400.0,34.64 410.0,17.31949192431123 430.0,17.31949192431123" fill="none" stroke="#00F0FF" stroke-width="0.5" opacity="0.06"/>
<polygon points="480.0,34.64 470.0,51.96050807568877 450.0,51.96050807568878 440.0,34.64 450.0,17.31949192431123 470.0,17.31949192431123" fill="none" stroke="#00F0FF" stroke-width="0.5" opacity="0.06"/>
<polygon points="-60.0,69.28 -70.0,86.60050807568877 -90.0,86.60050807568878 -100.0,69.28 -90.00000000000001,51.95949192431123 -70.0,51.95949192431123" fill="none" stroke="#00F0FF" stroke-width="0.5" opacity="0.06"/>
<polygon points="-20.0,69.28 -30.0,86.60050807568877 -50.0,86.60050807568878 -60.0,69.28 -50.00000000000001,51.95949192431123 -30.0,51.95949192431123" fill="none" stroke="#00F0FF" stroke-width="0.5" opacity="0.06"/>
<polygon points="20.0,69.28 10.000000000000002,86.60050807568877 -9.999999999999996,86.60050807568878 -20.0,69.28 -10.000000000000009,51.95949192431123 10.000000000000002,51.95949192431123" fill="none" stroke="#00F0FF" stroke-width="0.5" opacity="0.06"/>
<polygon points="60.0,69.28 50.0,86.60050807568877 30.000000000000004,86.60050807568878 20.0,69.28 29.999999999999993,51.95949192431123 50.0,51.95949192431123" fill="none" stroke="#00F0FF" stroke-width="0.5" opacity="0.06"/>
<polygon points="100.0,69.28 90.0,86.60050807568877 70.0,86.60050807568878 60.0,69.28 69.99999999999999,51.95949192431123 90.0,51.95949192431123" fill="none" stroke="#00F0FF" stroke-width="0.5" opacity="0.06"/>
<polygon points="140.0,69.28 130.0,86.60050807568877 110.0,86.60050807568878 100.0,69.28 109.99999999999999,51.95949192431123 130.0,51.95949192431123" fill="none" stroke="#00F0FF" stroke-width="0.5" opacity="0.06"/>
<polygon points="180.0,69.28 170.0,86.60050807568877 150.0,86.60050807568878 140.0,69.28 150.0,51.95949192431123 170.0,51.95949192431123" fill="none" stroke="#00F0FF" stroke-width="0.5" opacity="0.06"/>
<polygon points="220.0,69.28 210.0,86.60050807568877 190.0,86.60050807568878 180.0,69.28 190.0,51.95949192431123 210.0,51.95949192431123" fill="none" stroke="#00F0FF" stroke-width="0.5" opacity="0.06"/>
<polygon points="260.0,69.28 250.0,86.60050807568877 230.0,86.60050807568878 220.0,69.28 230.0,51.95949192431123 250.0,51.95949192431123" fill="none" stroke="#00F0FF" stroke-width="0.5" opacity="0.06"/>
<polygon points="300.0,69.28 290.0,86.60050807568877 270.0,86.60050807568878 260.0,69.28 270.0,51.95949192431123 290.0,51.95949192431123" fill="none" stroke="#00F0FF" stroke-width="0.5" opacity="0.06"/>
<polygon points="340.0,69.28 330.0,86.60050807568877 310.0,86.60050807568878 300.0,69.28 310.0,51.95949192431123 330.0,51.95949192431123" fill="none" stroke="#00F0FF" stroke-width="0.5" opacity="0.06"/>
<polygon points="380.0,69.28 370.0,86.60050807568877 350.0,86.60050807568878 340.0,69.28 350.0,51.95949192431123 370.0,51.95949192431123" fill="none" stroke="#00F0FF" stroke-width="0.5" opacity="0.06"/>
<polygon points="420.0,69.28 410.0,86.60050807568877 390.0,86.60050807568878 380.0,69.28 390.0,51.95949192431123 410.0,51.95949192431123" fill="none" stroke="#00F0FF" stroke-width="0.5" opacity="0.06"/>
<polygon points="460.0,69.28 450.0,86.60050807568877 430.0,86.60050807568878 420.0,69.28 430.0,51.95949192431123 450.0,51.95949192431123" fill="none" stroke="#00F0FF" stroke-width="0.5" opacity="0.06"/>
<polygon points="-40.0,103.92 -50.0,121.24050807568878 -70.0,121.24050807568878 -80.0,103.92 -70.00000000000001,86.59949192431122 -50.0,86.59949192431122" fill="none" stroke="#00F0FF" stroke-width="0.5" opacity="0.06"/>
<polygon points="0.0,103.92 -9.999999999999998,121.24050807568878 -29.999999999999996,121.24050807568878 -40.0,103.92 -30.000000000000007,86.59949192431122 -9.999999999999998,86.59949192431122" fill="none" stroke="#00F0FF" stroke-width="0.5" opacity="0.06"/>
<polygon points="40.0,103.92 30.0,121.24050807568878 10.000000000000004,121.24050807568878 0.0,103.92 9.999999999999991,86.59949192431122 30.0,86.59949192431122" fill="none" stroke="#00F0FF" stroke-width="0.5" opacity="0.06"/>
<polygon points="80.0,103.92 70.0,121.24050807568878 50.0,121.24050807568878 40.0,103.92 49.99999999999999,86.59949192431122 70.0,86.59949192431122" fill="none" stroke="#00F0FF" stroke-width="0.5" opacity="0.06"/>
<polygon points="120.0,103.92 110.0,121.24050807568878 90.0,121.24050807568878 80.0,103.92 89.99999999999999,86.59949192431122 110.0,86.59949192431122" fill="none" stroke="#00F0FF" stroke-width="0.5" opacity="0.06"/>
<polygon points="160.0,103.92 150.0,121.24050807568878 130.0,121.24050807568878 120.0,103.92 130.0,86.59949192431122 150.0,86.59949192431122" fill="none" stroke="#00F0FF" stroke-width="0.5" opacity="0.06"/>
<polygon points="200.0,103.92 190.0,121.24050807568878 170.0,121.24050807568878 160.0,103.92 170.0,86.59949192431122 190.0,86.59949192431122" fill="none" stroke="#00F0FF" stroke-width="0.5" opacity="0.06"/>
<polygon points="240.0,103.92 230.0,121.24050807568878 210.0,121.24050807568878 200.0,103.92 210.0,86.59949192431122 230.0,86.59949192431122" fill="none" stroke="#00F0FF" stroke-width="0.5" opacity="0.06"/>
<polygon points="280.0,103.92 270.0,121.24050807568878 250.0,121.24050807568878 240.0,103.92 250.0,86.59949192431122 270.0,86.59949192431122" fill="none" stroke="#00F0FF" stroke-width="0.5" opacity="0.06"/>
<polygon points="320.0,103.92 310.0,121.24050807568878 290.0,121.24050807568878 280.0,103.92 290.0,86.59949192431122 310.0,86.59949192431122" fill="none" stroke="#00F0FF" stroke-width="0.5" opacity="0.06"/>
<polygon points="360.0,103.92 350.0,121.24050807568878 330.0,121.24050807568878 320.0,103.92 330.0,86.59949192431122 350.0,86.59949192431122" fill="none" stroke="#00F0FF" stroke-width="0.5" opacity="0.06"/>
<polygon points="400.0,103.92 390.0,121.24050807568878 370.0,121.24050807568878 360.0,103.92 370.0,86.59949192431122 390.0,86.59949192431122" fill="none" stroke="#00F0FF" stroke-width="0.5" opacity="0.06"/>
<polygon points="440.0,103.92 430.0,121.24050807568878 410.0,121.24050807568878 400.0,103.92 410.0,86.59949192431122 430.0,86.59949192431122" fill="none" stroke="#00F0FF" stroke-width="0.5" opacity="0.06"/>
<polygon points="480.0,103.92 470.0,121.24050807568878 450.0,121.24050807568878 440.0,103.92 450.0,86.59949192431122 470.0,86.59949192431122" fill="none" stroke="#00F0FF" stroke-width="0.5" opacity="0.06"/>
<polygon points="-60.0,138.56 -70.0,155.88050807568877 -90.0,155.88050807568877 -100.0,138.56 -90.00000000000001,121.23949192431124 -70.0,121.23949192431124" fill="none" stroke="#00F0FF" stroke-width="0.5" opacity="0.06"/>
<polygon points="-20.0,138.56 -30.0,155.88050807568877 -50.0,155.88050807568877 -60.0,138.56 -50.00000000000001,121.23949192431124 -30.0,121.23949192431124" fill="none" stroke="#00F0FF" stroke-width="0.5" opacity="0.06"/>
<polygon points="20.0,138.56 10.000000000000002,155.88050807568877 -9.999999999999996,155.88050807568877 -20.0,138.56 -10.000000000000009,121.23949192431124 10.000000000000002,121.23949192431124" fill="none" stroke="#00F0FF" stroke-width="0.5" opacity="0.06"/>
<polygon points="60.0,138.56 50.0,155.88050807568877 30.000000000000004,155.88050807568877 20.0,138.56 29.999999999999993,121.23949192431124 50.0,121.23949192431124" fill="none" stroke="#00F0FF" stroke-width="0.5" opacity="0.06"/>
<polygon points="100.0,138.56 90.0,155.88050807568877 70.0,155.88050807568877 60.0,138.56 69.99999999999999,121.23949192431124 90.0,121.23949192431124" fill="none" stroke="#00F0FF" stroke-width="0.5" opacity="0.06"/>
<polygon points="140.0,138.56 130.0,155.88050807568877 110.0,155.88050807568877 100.0,138.56 109.99999999999999,121.23949192431124 130.0,121.23949192431124" fill="none" stroke="#00F0FF" stroke-width="0.5" opacity="0.06"/>
<polygon points="180.0,138.56 170.0,155.88050807568877 150.0,155.88050807568877 140.0,138.56 150.0,121.23949192431124 170.0,121.23949192431124" fill="none" stroke="#00F0FF" stroke-width="0.5" opacity="0.06"/>
<polygon points="220.0,138.56 210.0,155.88050807568877 190.0,155.88050807568877 180.0,138.56 190.0,121.23949192431124 210.0,121.23949192431124" fill="none" stroke="#00F0FF" stroke-width="0.5" opacity="0.06"/>
<polygon points="260.0,138.56 250.0,155.88050807568877 230.0,155.88050807568877 220.0,138.56 230.0,121.23949192431124 250.0,121.23949192431124" fill="none" stroke="#00F0FF" stroke-width="0.5" opacity="0.06"/>
<polygon points="300.0,138.56 290.0,155.88050807568877 270.0,155.88050807568877 260.0,138.56 270.0,121.23949192431124 290.0,121.23949192431124" fill="none" stroke="#00F0FF" stroke-width="0.5" opacity="0.06"/>
<polygon points="340.0,138.56 330.0,155.88050807568877 310.0,155.88050807568877 300.0,138.56 310.0,121.23949192431124 330.0,121.23949192431124" fill="none" stroke="#00F0FF" stroke-width="0.5" opacity="0.06"/>
<polygon points="380.0,138.56 370.0,155.88050807568877 350.0,155.88050807568877 340.0,138.56 350.0,121.23949192431124 370.0,121.23949192431124" fill="none" stroke="#00F0FF" stroke-width="0.5" opacity="0.06"/>
<polygon points="420.0,138.56 410.0,155.88050807568877 390.0,155.88050807568877 380.0,138.56 390.0,121.23949192431124 410.0,121.23949192431124" fill="none" stroke="#00F0FF" stroke-width="0.5" opacity="0.06"/>
<polygon points="460.0,138.56 450.0,155.88050807568877 430.0,155.88050807568877 420.0,138.56 430.0,121.23949192431124 450.0,121.23949192431124" fill="none" stroke="#00F0FF" stroke-width="0.5" opacity="0.06"/>
<polygon points="-40.0,173.2 -50.0,190.52050807568875 -70.0,190.52050807568875 -80.0,173.2 -70.00000000000001,155.87949192431122 -50.0,155.87949192431122" fill="none" stroke="#00F0FF" stroke-width="0.5" opacity="0.06"/>
<polygon points="0.0,173.2 -9.999999999999998,190.52050807568875 -29.999999999999996,190.52050807568875 -40.0,173.2 -30.000000000000007,155.87949192431122 -9.999999999999998,155.87949192431122" fill="none" stroke="#00F0FF" stroke-width="0.5" opacity="0.06"/>
<polygon points="40.0,173.2 30.0,190.52050807568875 10.000000000000004,190.52050807568875 0.0,173.2 9.999999999999991,155.87949192431122 30.0,155.87949192431122" fill="none" stroke="#00F0FF" stroke-width="0.5" opacity="0.06"/>
<polygon points="80.0,173.2 70.0,190.52050807568875 50.0,190.52050807568875 40.0,173.2 49.99999999999999,155.87949192431122 70.0,155.87949192431122" fill="none" stroke="#00F0FF" stroke-width="0.5" opacity="0.06"/>
<polygon points="120.0,173.2 110.0,190.52050807568875 90.0,190.52050807568875 80.0,173.2 89.99999999999999,155.87949192431122 110.0,155.87949192431122" fill="none" stroke="#00F0FF" stroke-width="0.5" opacity="0.06"/>
<polygon points="160.0,173.2 150.0,190.52050807568875 130.0,190.52050807568875 120.0,173.2 130.0,155.87949192431122 150.0,155.87949192431122" fill="none" stroke="#00F0FF" stroke-width="0.5" opacity="0.06"/>
<polygon points="200.0,173.2 190.0,190.52050807568875 170.0,190.52050807568875 160.0,173.2 170.0,155.87949192431122 190.0,155.87949192431122" fill="none" stroke="#00F0FF" stroke-width="0.5" opacity="0.06"/>
<polygon points="240.0,173.2 230.0,190.52050807568875 210.0,190.52050807568875 200.0,173.2 210.0,155.87949192431122 230.0,155.87949192431122" fill="none" stroke="#00F0FF" stroke-width="0.5" opacity="0.06"/>
<polygon points="280.0,173.2 270.0,190.52050807568875 250.0,190.52050807568875 240.0,173.2 250.0,155.87949192431122 270.0,155.87949192431122" fill="none" stroke="#00F0FF" stroke-width="0.5" opacity="0.06"/>
<polygon points="320.0,173.2 310.0,190.52050807568875 290.0,190.52050807568875 280.0,173.2 290.0,155.87949192431122 310.0,155.87949192431122" fill="none" stroke="#00F0FF" stroke-width="0.5" opacity="0.06"/>
<polygon points="360.0,173.2 350.0,190.52050807568875 330.0,190.52050807568875 320.0,173.2 330.0,155.87949192431122 350.0,155.87949192431122" fill="none" stroke="#00F0FF" stroke-width="0.5" opacity="0.06"/>
<polygon points="400.0,173.2 390.0,190.52050807568875 370.0,190.52050807568875 360.0,173.2 370.0,155.87949192431122 390.0,155.87949192431122" fill="none" stroke="#00F0FF" stroke-width="0.5" opacity="0.06"/>
<polygon points="440.0,173.2 430.0,190.52050807568875 410.0,190.52050807568875 400.0,173.2 410.0,155.87949192431122 430.0,155.87949192431122" fill="none" stroke="#00F0FF" stroke-width="0.5" opacity="0.06"/>
<polygon points="480.0,173.2 470.0,190.52050807568875 450.0,190.52050807568875 440.0,173.2 450.0,155.87949192431122 470.0,155.87949192431122" fill="none" stroke="#00F0FF" stroke-width="0.5" opacity="0.06"/>
<polygon points="-60.0,207.84 -70.0,225.16050807568877 -90.0,225.16050807568877 -100.0,207.84 -90.00000000000001,190.51949192431124 -70.0,190.51949192431124" fill="none" stroke="#00F0FF" stroke-width="0.5" opacity="0.06"/>
<polygon points="-20.0,207.84 -30.0,225.16050807568877 -50.0,225.16050807568877 -60.0,207.84 -50.00000000000001,190.51949192431124 -30.0,190.51949192431124" fill="none" stroke="#00F0FF" stroke-width="0.5" opacity="0.06"/>
<polygon points="20.0,207.84 10.000000000000002,225.16050807568877 -9.999999999999996,225.16050807568877 -20.0,207.84 -10.000000000000009,190.51949192431124 10.000000000000002,190.51949192431124" fill="none" stroke="#00F0FF" stroke-width="0.5" opacity="0.06"/>
<polygon points="60.0,207.84 50.0,225.16050807568877 30.000000000000004,225.16050807568877 20.0,207.84 29.999999999999993,190.51949192431124 50.0,190.51949192431124" fill="none" stroke="#00F0FF" stroke-width="0.5" opacity="0.06"/>
<polygon points="100.0,207.84 90.0,225.16050807568877 70.0,225.16050807568877 60.0,207.84 69.99999999999999,190.51949192431124 90.0,190.51949192431124" fill="none" stroke="#00F0FF" stroke-width="0.5" opacity="0.06"/>
<polygon points="140.0,207.84 130.0,225.16050807568877 110.0,225.16050807568877 100.0,207.84 109.99999999999999,190.51949192431124 130.0,190.51949192431124" fill="none" stroke="#00F0FF" stroke-width="0.5" opacity="0.06"/>
<polygon points="180.0,207.84 170.0,225.16050807568877 150.0,225.16050807568877 140.0,207.84 150.0,190.51949192431124 170.0,190.51949192431124" fill="none" stroke="#00F0FF" stroke-width="0.5" opacity="0.06"/>
<polygon points="220.0,207.84 210.0,225.16050807568877 190.0,225.16050807568877 180.0,207.84 190.0,190.51949192431124 210.0,190.51949192431124" fill="none" stroke="#00F0FF" stroke-width="0.5" opacity="0.06"/>
<polygon points="260.0,207.84 250.0,225.16050807568877 230.0,225.16050807568877 220.0,207.84 230.0,190.51949192431124 250.0,190.51949192431124" fill="none" stroke="#00F0FF" stroke-width="0.5" opacity="0.06"/>
<polygon points="300.0,207.84 290.0,225.16050807568877 270.0,225.16050807568877 260.0,207.84 270.0,190.51949192431124 290.0,190.51949192431124" fill="none" stroke="#00F0FF" stroke-width="0.5" opacity="0.06"/>
<polygon points="340.0,207.84 330.0,225.16050807568877 310.0,225.16050807568877 300.0,207.84 310.0,190.51949192431124 330.0,190.51949192431124" fill="none" stroke="#00F0FF" stroke-width="0.5" opacity="0.06"/>
<polygon points="380.0,207.84 370.0,225.16050807568877 350.0,225.16050807568877 340.0,207.84 350.0,190.51949192431124 370.0,190.51949192431124" fill="none" stroke="#00F0FF" stroke-width="0.5" opacity="0.06"/>
<polygon points="420.0,207.84 410.0,225.16050807568877 390.0,225.16050807568877 380.0,207.84 390.0,190.51949192431124 410.0,190.51949192431124" fill="none" stroke="#00F0FF" stroke-width="0.5" opacity="0.06"/>
<polygon points="460.0,207.84 450.0,225.16050807568877 430.0,225.16050807568877 420.0,207.84 430.0,190.51949192431124 450.0,190.51949192431124" fill="none" stroke="#00F0FF" stroke-width="0.5" opacity="0.06"/>
<polygon points="-40.0,242.48000000000002 -50.0,259.8005080756888 -70.0,259.8005080756888 -80.0,242.48000000000002 -70.00000000000001,225.15949192431125 -50.0,225.15949192431125" fill="none" stroke="#00F0FF" stroke-width="0.5" opacity="0.06"/>
<polygon points="0.0,242.48000000000002 -9.999999999999998,259.8005080756888 -29.999999999999996,259.8005080756888 -40.0,242.48000000000002 -30.000000000000007,225.15949192431125 -9.999999999999998,225.15949192431125" fill="none" stroke="#00F0FF" stroke-width="0.5" opacity="0.06"/>
<polygon points="40.0,242.48000000000002 30.0,259.8005080756888 10.000000000000004,259.8005080756888 0.0,242.48000000000002 9.999999999999991,225.15949192431125 30.0,225.15949192431125" fill="none" stroke="#00F0FF" stroke-width="0.5" opacity="0.06"/>
<polygon points="80.0,242.48000000000002 70.0,259.8005080756888 50.0,259.8005080756888 40.0,242.48000000000002 49.99999999999999,225.15949192431125 70.0,225.15949192431125" fill="none" stroke="#00F0FF" stroke-width="0.5" opacity="0.06"/>
<polygon points="120.0,242.48000000000002 110.0,259.8005080756888 90.0,259.8005080756888 80.0,242.48000000000002 89.99999999999999,225.15949192431125 110.0,225.15949192431125" fill="none" stroke="#00F0FF" stroke-width="0.5" opacity="0.06"/>
<polygon points="160.0,242.48000000000002 150.0,259.8005080756888 130.0,259.8005080756888 120.0,242.48000000000002 130.0,225.15949192431125 150.0,225.15949192431125" fill="none" stroke="#00F0FF" stroke-width="0.5" opacity="0.06"/>
<polygon points="200.0,242.48000000000002 190.0,259.8005080756888 170.0,259.8005080756888 160.0,242.48000000000002 170.0,225.15949192431125 190.0,225.15949192431125" fill="none" stroke="#00F0FF" stroke-width="0.5" opacity="0.06"/>
<polygon points="240.0,242.48000000000002 230.0,259.8005080756888 210.0,259.8005080756888 200.0,242.48000000000002 210.0,225.15949192431125 230.0,225.15949192431125" fill="none" stroke="#00F0FF" stroke-width="0.5" opacity="0.06"/>
<polygon points="280.0,242.48000000000002 270.0,259.8005080756888 250.0,259.8005080756888 240.0,242.48000000000002 250.0,225.15949192431125 270.0,225.15949192431125" fill="none" stroke="#00F0FF" stroke-width="0.5" opacity="0.06"/>
<polygon points="320.0,242.48000000000002 310.0,259.8005080756888 290.0,259.8005080756888 280.0,242.48000000000002 290.0,225.15949192431125 310.0,225.15949192431125" fill="none" stroke="#00F0FF" stroke-width="0.5" opacity="0.06"/>
<polygon points="360.0,242.48000000000002 350.0,259.8005080756888 330.0,259.8005080756888 320.0,242.48000000000002 330.0,225.15949192431125 350.0,225.15949192431125" fill="none" stroke="#00F0FF" stroke-width="0.5" opacity="0.06"/>
<polygon points="400.0,242.48000000000002 390.0,259.8005080756888 370.0,259.8005080756888 360.0,242.48000000000002 370.0,225.15949192431125 390.0,225.15949192431125" fill="none" stroke="#00F0FF" stroke-width="0.5" opacity="0.06"/>
<polygon points="440.0,242.48000000000002 430.0,259.8005080756888 410.0,259.8005080756888 400.0,242.48000000000002 410.0,225.15949192431125 430.0,225.15949192431125" fill="none" stroke="#00F0FF" stroke-width="0.5" opacity="0.06"/>
<polygon points="480.0,242.48000000000002 470.0,259.8005080756888 450.0,259.8005080756888 440.0,242.48000000000002 450.0,225.15949192431125 470.0,225.15949192431125" fill="none" stroke="#00F0FF" stroke-width="0.5" opacity="0.06"/>
<polygon points="-60.0,277.12 -70.0,294.4405080756888 -90.0,294.4405080756888 -100.0,277.12 -90.00000000000001,259.7994919243112 -70.0,259.7994919243112" fill="none" stroke="#00F0FF" stroke-width="0.5" opacity="0.06"/>
<polygon points="-20.0,277.12 -30.0,294.4405080756888 -50.0,294.4405080756888 -60.0,277.12 -50.00000000000001,259.7994919243112 -30.0,259.7994919243112" fill="none" stroke="#00F0FF" stroke-width="0.5" opacity="0.06"/>
<polygon points="20.0,277.12 10.000000000000002,294.4405080756888 -9.999999999999996,294.4405080756888 -20.0,277.12 -10.000000000000009,259.7994919243112 10.000000000000002,259.7994919243112" fill="none" stroke="#00F0FF" stroke-width="0.5" opacity="0.06"/>
<polygon points="60.0,277.12 50.0,294.4405080756888 30.000000000000004,294.4405080756888 20.0,277.12 29.999999999999993,259.7994919243112 50.0,259.7994919243112" fill="none" stroke="#00F0FF" stroke-width="0.5" opacity="0.06"/>
<polygon points="100.0,277.12 90.0,294.4405080756888 70.0,294.4405080756888 60.0,277.12 69.99999999999999,259.7994919243112 90.0,259.7994919243112" fill="none" stroke="#00F0FF" stroke-width="0.5" opacity="0.06"/>
<polygon points="140.0,277.12 130.0,294.4405080756888 110.0,294.4405080756888 100.0,277.12 109.99999999999999,259.7994919243112 130.0,259.7994919243112" fill="none" stroke="#00F0FF" stroke-width="0.5" opacity="0.06"/>
<polygon points="180.0,277.12 170.0,294.4405080756888 150.0,294.4405080756888 140.0,277.12 150.0,259.7994919243112 170.0,259.7994919243112" fill="none" stroke="#00F0FF" stroke-width="0.5" opacity="0.06"/>
<polygon points="220.0,277.12 210.0,294.4405080756888 190.0,294.4405080756888 180.0,277.12 190.0,259.7994919243112 210.0,259.7994919243112" fill="none" stroke="#00F0FF" stroke-width="0.5" opacity="0.06"/>
<polygon points="260.0,277.12 250.0,294.4405080756888 230.0,294.4405080756888 220.0,277.12 230.0,259.7994919243112 250.0,259.7994919243112" fill="none" stroke="#00F0FF" stroke-width="0.5" opacity="0.06"/>
<polygon points="300.0,277.12 290.0,294.4405080756888 270.0,294.4405080756888 260.0,277.12 270.0,259.7994919243112 290.0,259.7994919243112" fill="none" stroke="#00F0FF" stroke-width="0.5" opacity="0.06"/>
<polygon points="340.0,277.12 330.0,294.4405080756888 310.0,294.4405080756888 300.0,277.12 310.0,259.7994919243112 330.0,259.7994919243112" fill="none" stroke="#00F0FF" stroke-width="0.5" opacity="0.06"/>
<polygon points="380.0,277.12 370.0,294.4405080756888 350.0,294.4405080756888 340.0,277.12 350.0,259.7994919243112 370.0,259.7994919243112" fill="none" stroke="#00F0FF" stroke-width="0.5" opacity="0.06"/>
<polygon points="420.0,277.12 410.0,294.4405080756888 390.0,294.4405080756888 380.0,277.12 390.0,259.7994919243112 410.0,259.7994919243112" fill="none" stroke="#00F0FF" stroke-width="0.5" opacity="0.06"/>
<polygon points="460.0,277.12 450.0,294.4405080756888 430.0,294.4405080756888 420.0,277.12 430.0,259.7994919243112 450.0,259.7994919243112" fill="none" stroke="#00F0FF" stroke-width="0.5" opacity="0.06"/>
<polygon points="-40.0,311.76 -50.0,329.0805080756888 -70.0,329.0805080756888 -80.0,311.76 -70.00000000000001,294.4394919243112 -50.0,294.4394919243112" fill="none" stroke="#00F0FF" stroke-width="0.5" opacity="0.06"/>
<polygon points="0.0,311.76 -9.999999999999998,329.0805080756888 -29.999999999999996,329.0805080756888 -40.0,311.76 -30.000000000000007,294.4394919243112 -9.999999999999998,294.4394919243112" fill="none" stroke="#00F0FF" stroke-width="0.5" opacity="0.06"/>
<polygon points="40.0,311.76 30.0,329.0805080756888 10.000000000000004,329.0805080756888 0.0,311.76 9.999999999999991,294.4394919243112 30.0,294.4394919243112" fill="none" stroke="#00F0FF" stroke-width="0.5" opacity="0.06"/>
<polygon points="80.0,311.76 70.0,329.0805080756888 50.0,329.0805080756888 40.0,311.76 49.99999999999999,294.4394919243112 70.0,294.4394919243112" fill="none" stroke="#00F0FF" stroke-width="0.5" opacity="0.06"/>
<polygon points="120.0,311.76 110.0,329.0805080756888 90.0,329.0805080756888 80.0,311.76 89.99999999999999,294.4394919243112 110.0,294.4394919243112" fill="none" stroke="#00F0FF" stroke-width="0.5" opacity="0.06"/>
<polygon points="160.0,311.76 150.0,329.0805080756888 130.0,329.0805080756888 120.0,311.76 130.0,294.4394919243112 150.0,294.4394919243112" fill="none" stroke="#00F0FF" stroke-width="0.5" opacity="0.06"/>
<polygon points="200.0,311.76 190.0,329.0805080756888 170.0,329.0805080756888 160.0,311.76 170.0,294.4394919243112 190.0,294.4394919243112" fill="none" stroke="#00F0FF" stroke-width="0.5" opacity="0.06"/>
<polygon points="240.0,311.76 230.0,329.0805080756888 210.0,329.0805080756888 200.0,311.76 210.0,294.4394919243112 230.0,294.4394919243112" fill="none" stroke="#00F0FF" stroke-width="0.5" opacity="0.06"/>
<polygon points="280.0,311.76 270.0,329.0805080756888 250.0,329.0805080756888 240.0,311.76 250.0,294.4394919243112 270.0,294.4394919243112" fill="none" stroke="#00F0FF" stroke-width="0.5" opacity="0.06"/>
<polygon points="320.0,311.76 310.0,329.0805080756888 290.0,329.0805080756888 280.0,311.76 290.0,294.4394919243112 310.0,294.4394919243112" fill="none" stroke="#00F0FF" stroke-width="0.5" opacity="0.06"/>
<polygon points="360.0,311.76 350.0,329.0805080756888 330.0,329.0805080756888 320.0,311.76 330.0,294.4394919243112 350.0,294.4394919243112" fill="none" stroke="#00F0FF" stroke-width="0.5" opacity="0.06"/>
<polygon points="400.0,311.76 390.0,329.0805080756888 370.0,329.0805080756888 360.0,311.76 370.0,294.4394919243112 390.0,294.4394919243112" fill="none" stroke="#00F0FF" stroke-width="0.5" opacity="0.06"/>
<polygon points="440.0,311.76 430.0,329.0805080756888 410.0,329.0805080756888 400.0,311.76 410.0,294.4394919243112 430.0,294.4394919243112" fill="none" stroke="#00F0FF" stroke-width="0.5" opacity="0.06"/>
<polygon points="480.0,311.76 470.0,329.0805080756888 450.0,329.0805080756888 440.0,311.76 450.0,294.4394919243112 470.0,294.4394919243112" fill="none" stroke="#00F0FF" stroke-width="0.5" opacity="0.06"/>
<polygon points="-60.0,346.4 -70.0,363.72050807568877 -90.0,363.72050807568877 -100.0,346.4 -90.00000000000001,329.0794919243112 -70.0,329.0794919243112" fill="none" stroke="#00F0FF" stroke-width="0.5" opacity="0.06"/>
<polygon points="-20.0,346.4 -30.0,363.72050807568877 -50.0,363.72050807568877 -60.0,346.4 -50.00000000000001,329.0794919243112 -30.0,329.0794919243112" fill="none" stroke="#00F0FF" stroke-width="0.5" opacity="0.06"/>
<polygon points="20.0,346.4 10.000000000000002,363.72050807568877 -9.999999999999996,363.72050807568877 -20.0,346.4 -10.000000000000009,329.0794919243112 10.000000000000002,329.0794919243112" fill="none" stroke="#00F0FF" stroke-width="0.5" opacity="0.06"/>
<polygon points="60.0,346.4 50.0,363.72050807568877 30.000000000000004,363.72050807568877 20.0,346.4 29.999999999999993,329.0794919243112 50.0,329.0794919243112" fill="none" stroke="#00F0FF" stroke-width="0.5" opacity="0.06"/>
<polygon points="100.0,346.4 90.0,363.72050807568877 70.0,363.72050807568877 60.0,346.4 69.99999999999999,329.0794919243112 90.0,329.0794919243112" fill="none" stroke="#00F0FF" stroke-width="0.5" opacity="0.06"/>
<polygon points="140.0,346.4 130.0,363.72050807568877 110.0,363.72050807568877 100.0,346.4 109.99999999999999,329.0794919243112 130.0,329.0794919243112" fill="none" stroke="#00F0FF" stroke-width="0.5" opacity="0.06"/>
<polygon points="180.0,346.4 170.0,363.72050807568877 150.0,363.72050807568877 140.0,346.4 150.0,329.0794919243112 170.0,329.0794919243112" fill="none" stroke="#00F0FF" stroke-width="0.5" opacity="0.06"/>
<polygon points="220.0,346.4 210.0,363.72050807568877 190.0,363.72050807568877 180.0,346.4 190.0,329.0794919243112 210.0,329.0794919243112" fill="none" stroke="#00F0FF" stroke-width="0.5" opacity="0.06"/>
<polygon points="260.0,346.4 250.0,363.72050807568877 230.0,363.72050807568877 220.0,346.4 230.0,329.0794919243112 250.0,329.0794919243112" fill="none" stroke="#00F0FF" stroke-width="0.5" opacity="0.06"/>
<polygon points="300.0,346.4 290.0,363.72050807568877 270.0,363.72050807568877 260.0,346.4 270.0,329.0794919243112 290.0,329.0794919243112" fill="none" stroke="#00F0FF" stroke-width="0.5" opacity="0.06"/>
<polygon points="340.0,346.4 330.0,363.72050807568877 310.0,363.72050807568877 300.0,346.4 310.0,329.0794919243112 330.0,329.0794919243112" fill="none" stroke="#00F0FF" stroke-width="0.5" opacity="0.06"/>
<polygon points="380.0,346.4 370.0,363.72050807568877 350.0,363.72050807568877 340.0,346.4 350.0,329.0794919243112 370.0,329.0794919243112" fill="none" stroke="#00F0FF" stroke-width="0.5" opacity="0.06"/>
<polygon points="420.0,346.4 410.0,363.72050807568877 390.0,363.72050807568877 380.0,346.4 390.0,329.0794919243112 410.0,329.0794919243112" fill="none" stroke="#00F0FF" stroke-width="0.5" opacity="0.06"/>
<polygon points="460.0,346.4 450.0,363.72050807568877 430.0,363.72050807568877 420.0,346.4 430.0,329.0794919243112 450.0,329.0794919243112" fill="none" stroke="#00F0FF" stroke-width="0.5" opacity="0.06"/>
<polygon points="-40.0,381.04 -50.0,398.3605080756888 -70.0,398.3605080756888 -80.0,381.04 -70.00000000000001,363.7194919243112 -50.0,363.7194919243112" fill="none" stroke="#00F0FF" stroke-width="0.5" opacity="0.06"/>
<polygon points="0.0,381.04 -9.999999999999998,398.3605080756888 -29.999999999999996,398.3605080756888 -40.0,381.04 -30.000000000000007,363.7194919243112 -9.999999999999998,363.7194919243112" fill="none" stroke="#00F0FF" stroke-width="0.5" opacity="0.06"/>
<polygon points="40.0,381.04 30.0,398.3605080756888 10.000000000000004,398.3605080756888 0.0,381.04 9.999999999999991,363.7194919243112 30.0,363.7194919243112" fill="none" stroke="#00F0FF" stroke-width="0.5" opacity="0.06"/>
<polygon points="80.0,381.04 70.0,398.3605080756888 50.0,398.3605080756888 40.0,381.04 49.99999999999999,363.7194919243112 70.0,363.7194919243112" fill="none" stroke="#00F0FF" stroke-width="0.5" opacity="0.06"/>
<polygon points="120.0,381.04 110.0,398.3605080756888 90.0,398.3605080756888 80.0,381.04 89.99999999999999,363.7194919243112 110.0,363.7194919243112" fill="none" stroke="#00F0FF" stroke-width="0.5" opacity="0.06"/>
<polygon points="160.0,381.04 150.0,398.3605080756888 130.0,398.3605080756888 120.0,381.04 130.0,363.7194919243112 150.0,363.7194919243112" fill="none" stroke="#00F0FF" stroke-width="0.5" opacity="0.06"/>
<polygon points="200.0,381.04 190.0,398.3605080756888 170.0,398.3605080756888 160.0,381.04 170.0,363.7194919243112 190.0,363.7194919243112" fill="none" stroke="#00F0FF" stroke-width="0.5" opacity="0.06"/>
<polygon points="240.0,381.04 230.0,398.3605080756888 210.0,398.3605080756888 200.0,381.04 210.0,363.7194919243112 230.0,363.7194919243112" fill="none" stroke="#00F0FF" stroke-width="0.5" opacity="0.06"/>
<polygon points="280.0,381.04 270.0,398.3605080756888 250.0,398.3605080756888 240.0,381.04 250.0,363.7194919243112 270.0,363.7194919243112" fill="none" stroke="#00F0FF" stroke-width="0.5" opacity="0.06"/>
<polygon points="320.0,381.04 310.0,398.3605080756888 290.0,398.3605080756888 280.0,381.04 290.0,363.7194919243112 310.0,363.7194919243112" fill="none" stroke="#00F0FF" stroke-width="0.5" opacity="0.06"/>
<polygon points="360.0,381.04 350.0,398.3605080756888 330.0,398.3605080756888 320.0,381.04 330.0,363.7194919243112 350.0,363.7194919243112" fill="none" stroke="#00F0FF" stroke-width="0.5" opacity="0.06"/>
<polygon points="400.0,381.04 390.0,398.3605080756888 370.0,398.3605080756888 360.0,381.04 370.0,363.7194919243112 390.0,363.7194919243112" fill="none" stroke="#00F0FF" stroke-width="0.5" opacity="0.06"/>
<polygon points="440.0,381.04 430.0,398.3605080756888 410.0,398.3605080756888 400.0,381.04 410.0,363.7194919243112 430.0,363.7194919243112" fill="none" stroke="#00F0FF" stroke-width="0.5" opacity="0.06"/>
<polygon points="480.0,381.04 470.0,398.3605080756888 450.0,398.3605080756888 440.0,381.04 450.0,363.7194919243112 470.0,363.7194919243112" fill="none" stroke="#00F0FF" stroke-width="0.5" opacity="0.06"/>
<polygon points="-60.0,415.68 -70.0,433.0005080756888 -90.0,433.0005080756888 -100.0,415.68 -90.00000000000001,398.3594919243112 -70.0,398.3594919243112" fill="none" stroke="#00F0FF" stroke-width="0.5" opacity="0.06"/>
<polygon points="-20.0,415.68 -30.0,433.0005080756888 -50.0,433.0005080756888 -60.0,415.68 -50.00000000000001,398.3594919243112 -30.0,398.3594919243112" fill="none" stroke="#00F0FF" stroke-width="0.5" opacity="0.06"/>
<polygon points="20.0,415.68 10.000000000000002,433.0005080756888 -9.999999999999996,433.0005080756888 -20.0,415.68 -10.000000000000009,398.3594919243112 10.000000000000002,398.3594919243112" fill="none" stroke="#00F0FF" stroke-width="0.5" opacity="0.06"/>
<polygon points="60.0,415.68 50.0,433.0005080756888 30.000000000000004,433.0005080756888 20.0,415.68 29.999999999999993,398.3594919243112 50.0,398.3594919243112" fill="none" stroke="#00F0FF" stroke-width="0.5" opacity="0.06"/>
<polygon points="100.0,415.68 90.0,433.0005080756888 70.0,433.0005080756888 60.0,415.68 69.99999999999999,398.3594919243112 90.0,398.3594919243112" fill="none" stroke="#00F0FF" stroke-width="0.5" opacity="0.06"/>
<polygon points="140.0,415.68 130.0,433.0005080756888 110.0,433.0005080756888 100.0,415.68 109.99999999999999,398.3594919243112 130.0,398.3594919243112" fill="none" stroke="#00F0FF" stroke-width="0.5" opacity="0.06"/>
<polygon points="180.0,415.68 170.0,433.0005080756888 150.0,433.0005080756888 140.0,415.68 150.0,398.3594919243112 170.0,398.3594919243112" fill="none" stroke="#00F0FF" stroke-width="0.5" opacity="0.06"/>
<polygon points="220.0,415.68 210.0,433.0005080756888 190.0,433.0005080756888 180.0,415.68 190.0,398.3594919243112 210.0,398.3594919243112" fill="none" stroke="#00F0FF" stroke-width="0.5" opacity="0.06"/>
<polygon points="260.0,415.68 250.0,433.0005080756888 230.0,433.0005080756888 220.0,415.68 230.0,398.3594919243112 250.0,398.3594919243112" fill="none" stroke="#00F0FF" stroke-width="0.5" opacity="0.06"/>
<polygon points="300.0,415.68 290.0,433.0005080756888 270.0,433.0005080756888 260.0,415.68 270.0,398.3594919243112 290.0,398.3594919243112" fill="none" stroke="#00F0FF" stroke-width="0.5" opacity="0.06"/>
<polygon points="340.0,415.68 330.0,433.0005080756888 310.0,433.0005080756888 300.0,415.68 310.0,398.3594919243112 330.0,398.3594919243112" fill="none" stroke="#00F0FF" stroke-width="0.5" opacity="0.06"/>
<polygon points="380.0,415.68 370.0,433.0005080756888 350.0,433.0005080756888 340.0,415.68 350.0,398.3594919243112 370.0,398.3594919243112" fill="none" stroke="#00F0FF" stroke-width="0.5" opacity="0.06"/>
<polygon points="420.0,415.68 410.0,433.0005080756888 390.0,433.0005080756888 380.0,415.68 390.0,398.3594919243112 410.0,398.3594919243112" fill="none" stroke="#00F0FF" stroke-width="0.5" opacity="0.06"/>
<polygon points="460.0,415.68 450.0,433.0005080756888 430.0,433.0005080756888 420.0,415.68 430.0,398.3594919243112 450.0,398.3594919243112" fill="none" stroke="#00F0FF" stroke-width="0.5" opacity="0.06"/>
<polygon points="-40.0,450.32 -50.0,467.6405080756888 -70.0,467.6405080756888 -80.0,450.32 -70.00000000000001,432.9994919243112 -50.0,432.9994919243112" fill="none" stroke="#00F0FF" stroke-width="0.5" opacity="0.06"/>
<polygon points="0.0,450.32 -9.999999999999998,467.6405080756888 -29.999999999999996,467.6405080756888 -40.0,450.32 -30.000000000000007,432.9994919243112 -9.999999999999998,432.9994919243112" fill="none" stroke="#00F0FF" stroke-width="0.5" opacity="0.06"/>
<polygon points="40.0,450.32 30.0,467.6405080756888 10.000000000000004,467.6405080756888 0.0,450.32 9.999999999999991,432.9994919243112 30.0,432.9994919243112" fill="none" stroke="#00F0FF" stroke-width="0.5" opacity="0.06"/>
<polygon points="80.0,450.32 70.0,467.6405080756888 50.0,467.6405080756888 40.0,450.32 49.99999999999999,432.9994919243112 70.0,432.9994919243112" fill="none" stroke="#00F0FF" stroke-width="0.5" opacity="0.06"/>
<polygon points="120.0,450.32 110.0,467.6405080756888 90.0,467.6405080756888 80.0,450.32 89.99999999999999,432.9994919243112 110.0,432.9994919243112" fill="none" stroke="#00F0FF" stroke-width="0.5" opacity="0.06"/>
<polygon points="160.0,450.32 150.0,467.6405080756888 130.0,467.6405080756888 120.0,450.32 130.0,432.9994919243112 150.0,432.9994919243112" fill="none" stroke="#00F0FF" stroke-width="0.5" opacity="0.06"/>
<polygon points="200.0,450.32 190.0,467.6405080756888 170.0,467.6405080756888 160.0,450.32 170.0,432.9994919243112 190.0,432.9994919243112" fill="none" stroke="#00F0FF" stroke-width="0.5" opacity="0.06"/>
<polygon points="240.0,450.32 230.0,467.6405080756888 210.0,467.6405080756888 200.0,450.32 210.0,432.9994919243112 230.0,432.9994919243112" fill="none" stroke="#00F0FF" stroke-width="0.5" opacity="0.06"/>
<polygon points="280.0,450.32 270.0,467.6405080756888 250.0,467.6405080756888 240.0,450.32 250.0,432.9994919243112 270.0,432.9994919243112" fill="none" stroke="#00F0FF" stroke-width="0.5" opacity="0.06"/>
<polygon points="320.0,450.32 310.0,467.6405080756888 290.0,467.6405080756888 280.0,450.32 290.0,432.9994919243112 310.0,432.9994919243112" fill="none" stroke="#00F0FF" stroke-width="0.5" opacity="0.06"/>
<polygon points="360.0,450.32 350.0,467.6405080756888 330.0,467.6405080756888 320.0,450.32 330.0,432.9994919243112 350.0,432.9994919243112" fill="none" stroke="#00F0FF" stroke-width="0.5" opacity="0.06"/>
<polygon points="400.0,450.32 390.0,467.6405080756888 370.0,467.6405080756888 360.0,450.32 370.0,432.9994919243112 390.0,432.9994919243112" fill="none" stroke="#00F0FF" stroke-width="0.5" opacity="0.06"/>
<polygon points="440.0,450.32 430.0,467.6405080756888 410.0,467.6405080756888 400.0,450.32 410.0,432.9994919243112 430.0,432.9994919243112" fill="none" stroke="#00F0FF" stroke-width="0.5" opacity="0.06"/>
<polygon points="480.0,450.32 470.0,467.6405080756888 450.0,467.6405080756888 440.0,450.32 450.0,432.9994919243112 470.0,432.9994919243112" fill="none" stroke="#00F0FF" stroke-width="0.5" opacity="0.06"/>

    </g>

    <g transform="translate(200, 240)">
        
        <circle cx="0" cy="0" r="160" fill="none" stroke="url(#cyber-cyan)" stroke-width="1.2" stroke-dasharray="2 8" opacity="0.5" filter="url(#glow-cyan)">
            <animateTransform attributeName="transform" type="rotate" from="0" to="360" dur="40s" repeatCount="indefinite"/>
        </circle>
        
        <circle cx="0" cy="0" r="140" fill="none" stroke="url(#cyber-cyan)" stroke-width="1.2" stroke-dasharray="20 10 5 10" opacity="0.5" filter="url(#glow-cyan)">
            <animateTransform attributeName="transform" type="rotate" from="0" to="-360" dur="25s" repeatCount="indefinite"/>
        </circle>
        
        <circle cx="0" cy="0" r="110" fill="none" stroke="url(#cyber-cyan)" stroke-width="1.2" stroke-dasharray="4 4" opacity="0.5" filter="url(#glow-cyan)">
            <animateTransform attributeName="transform" type="rotate" from="0" to="360" dur="15s" repeatCount="indefinite"/>
        </circle>
        
        
        <g opacity="0.4" font-family="'JetBrains Mono', monospace" font-size="6" fill="url(#platinum)" filter="url(#glow-cyan)" letter-spacing="3">
            <animateTransform attributeName="transform" type="rotate" from="360" to="0" dur="50s" repeatCount="indefinite"/>
            <text><textPath href="#data-ring" startOffset="0%">001101001101110110100101110101000001111111100001011111010101010001011010100110101100110001</textPath></text>
        </g>

        
        <line x1="-204.8" y1="25.0" x2="-99.3" y2="12.1" stroke="url(#cyber-cyan)" stroke-width="0.8" opacity="0.15"/>
        <circle cx="-204.8" cy="25.0" r="1.5" fill="#E2E8F0" opacity="0" filter="url(#glow-cyan)">
            <animate attributeName="opacity" values="0;0.8;0" dur="2.8979461049547193s" begin="0.46744873792429287s" repeatCount="indefinite"/>
            <animateTransform attributeName="transform" type="translate" values="0,0; 105.5,-12.9" dur="2.8979461049547193s" begin="0.46744873792429287s" repeatCount="indefinite"/>
        </circle>
        <circle cx="-99.3" cy="12.1" r="2.5" fill="#FFFFFF" opacity="0" filter="url(#glow-cyan)">
            <animate attributeName="opacity" values="0;1;0" dur="2.8979461049547193s" begin="3.165394842879012s" repeatCount="indefinite"/>
        </circle>
        
        <line x1="134.2" y1="233.6" x2="49.8" y2="86.7" stroke="url(#cyber-cyan)" stroke-width="0.8" opacity="0.15"/>
        <circle cx="134.2" cy="233.6" r="1.5" fill="#E2E8F0" opacity="0" filter="url(#glow-cyan)">
            <animate attributeName="opacity" values="0;0.8;0" dur="2.308693608640583s" begin="2.309836249169738s" repeatCount="indefinite"/>
            <animateTransform attributeName="transform" type="translate" values="0,0; -84.4,-146.9" dur="2.308693608640583s" begin="2.309836249169738s" repeatCount="indefinite"/>
        </circle>
        <circle cx="49.8" cy="86.7" r="2.5" fill="#FFFFFF" opacity="0" filter="url(#glow-cyan)">
            <animate attributeName="opacity" values="0;1;0" dur="2.308693608640583s" begin="4.418529857810321s" repeatCount="indefinite"/>
        </circle>
        
        <line x1="-171.6" y1="117.8" x2="-82.4" y2="56.6" stroke="url(#cyber-cyan)" stroke-width="0.8" opacity="0.15"/>
        <circle cx="-171.6" cy="117.8" r="1.5" fill="#E2E8F0" opacity="0" filter="url(#glow-cyan)">
            <animate attributeName="opacity" values="0;0.8;0" dur="2.552860152678131s" begin="3.6976145300512537s" repeatCount="indefinite"/>
            <animateTransform attributeName="transform" type="translate" values="0,0; 89.1,-61.2" dur="2.552860152678131s" begin="3.6976145300512537s" repeatCount="indefinite"/>
        </circle>
        <circle cx="-82.4" cy="56.6" r="2.5" fill="#FFFFFF" opacity="0" filter="url(#glow-cyan)">
            <animate attributeName="opacity" values="0;1;0" dur="2.552860152678131s" begin="6.0504746827293845s" repeatCount="indefinite"/>
        </circle>
        
        <line x1="-99.0" y1="-151.3" x2="-54.7" y2="-83.7" stroke="url(#cyber-cyan)" stroke-width="0.8" opacity="0.15"/>
        <circle cx="-99.0" cy="-151.3" r="1.5" fill="#E2E8F0" opacity="0" filter="url(#glow-cyan)">
            <animate attributeName="opacity" values="0;0.8;0" dur="3.522592879980105s" begin="0.930119093290712s" repeatCount="indefinite"/>
            <animateTransform attributeName="transform" type="translate" values="0,0; 44.2,67.6" dur="3.522592879980105s" begin="0.930119093290712s" repeatCount="indefinite"/>
        </circle>
        <circle cx="-54.7" cy="-83.7" r="2.5" fill="#FFFFFF" opacity="0" filter="url(#glow-cyan)">
            <animate attributeName="opacity" values="0;1;0" dur="3.522592879980105s" begin="4.252711973270817s" repeatCount="indefinite"/>
        </circle>
        
        <line x1="-158.1" y1="-197.9" x2="-62.4" y2="-78.1" stroke="url(#cyber-cyan)" stroke-width="0.8" opacity="0.15"/>
        <circle cx="-158.1" cy="-197.9" r="1.5" fill="#E2E8F0" opacity="0" filter="url(#glow-cyan)">
            <animate attributeName="opacity" values="0;0.8;0" dur="3.8372298644375817s" begin="0.12935576804782478s" repeatCount="indefinite"/>
            <animateTransform attributeName="transform" type="translate" values="0,0; 95.7,119.8" dur="3.8372298644375817s" begin="0.12935576804782478s" repeatCount="indefinite"/>
        </circle>
        <circle cx="-62.4" cy="-78.1" r="2.5" fill="#FFFFFF" opacity="0" filter="url(#glow-cyan)">
            <animate attributeName="opacity" values="0;1;0" dur="3.8372298644375817s" begin="3.7665856324854063s" repeatCount="indefinite"/>
        </circle>
        
        <line x1="91.1" y1="247.5" x2="34.6" y2="93.8" stroke="url(#cyber-cyan)" stroke-width="0.8" opacity="0.15"/>
        <circle cx="91.1" cy="247.5" r="1.5" fill="#E2E8F0" opacity="0" filter="url(#glow-cyan)">
            <animate attributeName="opacity" values="0;0.8;0" dur="2.5091463707413073s" begin="2.1929551995055303s" repeatCount="indefinite"/>
            <animateTransform attributeName="transform" type="translate" values="0,0; -56.6,-153.7" dur="2.5091463707413073s" begin="2.1929551995055303s" repeatCount="indefinite"/>
        </circle>
        <circle cx="34.6" cy="93.8" r="2.5" fill="#FFFFFF" opacity="0" filter="url(#glow-cyan)">
            <animate attributeName="opacity" values="0;1;0" dur="2.5091463707413073s" begin="4.502101570246837s" repeatCount="indefinite"/>
        </circle>
        
        <line x1="-170.4" y1="151.8" x2="-74.7" y2="66.5" stroke="url(#cyber-cyan)" stroke-width="0.8" opacity="0.15"/>
        <circle cx="-170.4" cy="151.8" r="1.5" fill="#E2E8F0" opacity="0" filter="url(#glow-cyan)">
            <animate attributeName="opacity" values="0;0.8;0" dur="2.9913954494729795s" begin="0.05918463998256707s" repeatCount="indefinite"/>
            <animateTransform attributeName="transform" type="translate" values="0,0; 95.7,-85.3" dur="2.9913954494729795s" begin="0.05918463998256707s" repeatCount="indefinite"/>
        </circle>
        <circle cx="-74.7" cy="66.5" r="2.5" fill="#FFFFFF" opacity="0" filter="url(#glow-cyan)">
            <animate attributeName="opacity" values="0;1;0" dur="2.9913954494729795s" begin="2.8505800894555464s" repeatCount="indefinite"/>
        </circle>
        
        <line x1="-40.4" y1="-276.2" x2="-14.5" y2="-98.9" stroke="url(#cyber-cyan)" stroke-width="0.8" opacity="0.15"/>
        <circle cx="-40.4" cy="-276.2" r="1.5" fill="#E2E8F0" opacity="0" filter="url(#glow-cyan)">
            <animate attributeName="opacity" values="0;0.8;0" dur="2.7199396099326867s" begin="0.46930121798803626s" repeatCount="indefinite"/>
            <animateTransform attributeName="transform" type="translate" values="0,0; 25.9,177.2" dur="2.7199396099326867s" begin="0.46930121798803626s" repeatCount="indefinite"/>
        </circle>
        <circle cx="-14.5" cy="-98.9" r="2.5" fill="#FFFFFF" opacity="0" filter="url(#glow-cyan)">
            <animate attributeName="opacity" values="0;1;0" dur="2.7199396099326867s" begin="2.9892408279207228s" repeatCount="indefinite"/>
        </circle>
        
        <line x1="200.8" y1="78.6" x2="93.1" y2="36.4" stroke="url(#cyber-cyan)" stroke-width="0.8" opacity="0.15"/>
        <circle cx="200.8" cy="78.6" r="1.5" fill="#E2E8F0" opacity="0" filter="url(#glow-cyan)">
            <animate attributeName="opacity" values="0;0.8;0" dur="3.5769327531652433s" begin="1.9799076623888348s" repeatCount="indefinite"/>
            <animateTransform attributeName="transform" type="translate" values="0,0; -107.7,-42.1" dur="3.5769327531652433s" begin="1.9799076623888348s" repeatCount="indefinite"/>
        </circle>
        <circle cx="93.1" cy="36.4" r="2.5" fill="#FFFFFF" opacity="0" filter="url(#glow-cyan)">
            <animate attributeName="opacity" values="0;1;0" dur="3.5769327531652433s" begin="5.356840415554077s" repeatCount="indefinite"/>
        </circle>
        
        <line x1="-66.3" y1="222.4" x2="-28.6" y2="95.8" stroke="url(#cyber-cyan)" stroke-width="0.8" opacity="0.15"/>
        <circle cx="-66.3" cy="222.4" r="1.5" fill="#E2E8F0" opacity="0" filter="url(#glow-cyan)">
            <animate attributeName="opacity" values="0;0.8;0" dur="3.3573089876388167s" begin="3.123112782032414s" repeatCount="indefinite"/>
            <animateTransform attributeName="transform" type="translate" values="0,0; 37.8,-126.6" dur="3.3573089876388167s" begin="3.123112782032414s" repeatCount="indefinite"/>
        </circle>
        <circle cx="-28.6" cy="95.8" r="2.5" fill="#FFFFFF" opacity="0" filter="url(#glow-cyan)">
            <animate attributeName="opacity" values="0;1;0" dur="3.3573089876388167s" begin="6.28042176967123s" repeatCount="indefinite"/>
        </circle>
        
        <line x1="140.4" y1="-141.7" x2="70.4" y2="-71.0" stroke="url(#cyber-cyan)" stroke-width="0.8" opacity="0.15"/>
        <circle cx="140.4" cy="-141.7" r="1.5" fill="#E2E8F0" opacity="0" filter="url(#glow-cyan)">
            <animate attributeName="opacity" values="0;0.8;0" dur="3.1185001937571784s" begin="3.8390738670974134s" repeatCount="indefinite"/>
            <animateTransform attributeName="transform" type="translate" values="0,0; -70.0,70.7" dur="3.1185001937571784s" begin="3.8390738670974134s" repeatCount="indefinite"/>
        </circle>
        <circle cx="70.4" cy="-71.0" r="2.5" fill="#FFFFFF" opacity="0" filter="url(#glow-cyan)">
            <animate attributeName="opacity" values="0;1;0" dur="3.1185001937571784s" begin="6.757574060854592s" repeatCount="indefinite"/>
        </circle>
        
        <line x1="-191.4" y1="-134.3" x2="-81.9" y2="-57.4" stroke="url(#cyber-cyan)" stroke-width="0.8" opacity="0.15"/>
        <circle cx="-191.4" cy="-134.3" r="1.5" fill="#E2E8F0" opacity="0" filter="url(#glow-cyan)">
            <animate attributeName="opacity" values="0;0.8;0" dur="2.8490668685418115s" begin="3.266096066027946s" repeatCount="indefinite"/>
            <animateTransform attributeName="transform" type="translate" values="0,0; 109.6,76.9" dur="2.8490668685418115s" begin="3.266096066027946s" repeatCount="indefinite"/>
        </circle>
        <circle cx="-81.9" cy="-57.4" r="2.5" fill="#FFFFFF" opacity="0" filter="url(#glow-cyan)">
            <animate attributeName="opacity" values="0;1;0" dur="2.8490668685418115s" begin="5.915162934569757s" repeatCount="indefinite"/>
        </circle>
        
        <line x1="102.2" y1="-199.6" x2="45.6" y2="-89.0" stroke="url(#cyber-cyan)" stroke-width="0.8" opacity="0.15"/>
        <circle cx="102.2" cy="-199.6" r="1.5" fill="#E2E8F0" opacity="0" filter="url(#glow-cyan)">
            <animate attributeName="opacity" values="0;0.8;0" dur="3.1718851565063018s" begin="0.6592423860995043s" repeatCount="indefinite"/>
            <animateTransform attributeName="transform" type="translate" values="0,0; -56.6,110.6" dur="3.1718851565063018s" begin="0.6592423860995043s" repeatCount="indefinite"/>
        </circle>
        <circle cx="45.6" cy="-89.0" r="2.5" fill="#FFFFFF" opacity="0" filter="url(#glow-cyan)">
            <animate attributeName="opacity" values="0;1;0" dur="3.1718851565063018s" begin="3.631127542605806s" repeatCount="indefinite"/>
        </circle>
        
        <line x1="-192.7" y1="-185.2" x2="-72.1" y2="-69.3" stroke="url(#cyber-cyan)" stroke-width="0.8" opacity="0.15"/>
        <circle cx="-192.7" cy="-185.2" r="1.5" fill="#E2E8F0" opacity="0" filter="url(#glow-cyan)">
            <animate attributeName="opacity" values="0;0.8;0" dur="2.3231170530745073s" begin="3.2837973653027066s" repeatCount="indefinite"/>
            <animateTransform attributeName="transform" type="translate" values="0,0; 120.6,115.9" dur="2.3231170530745073s" begin="3.2837973653027066s" repeatCount="indefinite"/>
        </circle>
        <circle cx="-72.1" cy="-69.3" r="2.5" fill="#FFFFFF" opacity="0" filter="url(#glow-cyan)">
            <animate attributeName="opacity" values="0;1;0" dur="2.3231170530745073s" begin="5.406914418377213s" repeatCount="indefinite"/>
        </circle>
        
        <line x1="-193.6" y1="6.5" x2="-99.9" y2="3.3" stroke="url(#cyber-cyan)" stroke-width="0.8" opacity="0.15"/>
        <circle cx="-193.6" cy="6.5" r="1.5" fill="#E2E8F0" opacity="0" filter="url(#glow-cyan)">
            <animate attributeName="opacity" values="0;0.8;0" dur="2.7673820184740174s" begin="0.8921827545002641s" repeatCount="indefinite"/>
            <animateTransform attributeName="transform" type="translate" values="0,0; 93.7,-3.1" dur="2.7673820184740174s" begin="0.8921827545002641s" repeatCount="indefinite"/>
        </circle>
        <circle cx="-99.9" cy="3.3" r="2.5" fill="#FFFFFF" opacity="0" filter="url(#glow-cyan)">
            <animate attributeName="opacity" values="0;1;0" dur="2.7673820184740174s" begin="3.4595647729742813s" repeatCount="indefinite"/>
        </circle>
        
        <line x1="-60.6" y1="225.1" x2="-26.0" y2="96.6" stroke="url(#cyber-cyan)" stroke-width="0.8" opacity="0.15"/>
        <circle cx="-60.6" cy="225.1" r="1.5" fill="#E2E8F0" opacity="0" filter="url(#glow-cyan)">
            <animate attributeName="opacity" values="0;0.8;0" dur="3.70396737805718s" begin="1.3425061934263556s" repeatCount="indefinite"/>
            <animateTransform attributeName="transform" type="translate" values="0,0; 34.6,-128.5" dur="3.70396737805718s" begin="1.3425061934263556s" repeatCount="indefinite"/>
        </circle>
        <circle cx="-26.0" cy="96.6" r="2.5" fill="#FFFFFF" opacity="0" filter="url(#glow-cyan)">
            <animate attributeName="opacity" values="0;1;0" dur="3.70396737805718s" begin="4.846473571483535s" repeatCount="indefinite"/>
        </circle>
        
        <line x1="-214.7" y1="78.1" x2="-94.0" y2="34.2" stroke="url(#cyber-cyan)" stroke-width="0.8" opacity="0.15"/>
        <circle cx="-214.7" cy="78.1" r="1.5" fill="#E2E8F0" opacity="0" filter="url(#glow-cyan)">
            <animate attributeName="opacity" values="0;0.8;0" dur="3.420303057466475s" begin="1.3805796881742505s" repeatCount="indefinite"/>
            <animateTransform attributeName="transform" type="translate" values="0,0; 120.7,-43.9" dur="3.420303057466475s" begin="1.3805796881742505s" repeatCount="indefinite"/>
        </circle>
        <circle cx="-94.0" cy="34.2" r="2.5" fill="#FFFFFF" opacity="0" filter="url(#glow-cyan)">
            <animate attributeName="opacity" values="0;1;0" dur="3.420303057466475s" begin="4.6008827456407255s" repeatCount="indefinite"/>
        </circle>
        
        <line x1="254.4" y1="-4.4" x2="100.0" y2="-1.7" stroke="url(#cyber-cyan)" stroke-width="0.8" opacity="0.15"/>
        <circle cx="254.4" cy="-4.4" r="1.5" fill="#E2E8F0" opacity="0" filter="url(#glow-cyan)">
            <animate attributeName="opacity" values="0;0.8;0" dur="2.171359980325447s" begin="0.9374616648025382s" repeatCount="indefinite"/>
            <animateTransform attributeName="transform" type="translate" values="0,0; -154.4,2.7" dur="2.171359980325447s" begin="0.9374616648025382s" repeatCount="indefinite"/>
        </circle>
        <circle cx="100.0" cy="-1.7" r="2.5" fill="#FFFFFF" opacity="0" filter="url(#glow-cyan)">
            <animate attributeName="opacity" values="0;1;0" dur="2.171359980325447s" begin="2.908821645127985s" repeatCount="indefinite"/>
        </circle>
        
        <line x1="-246.1" y1="-40.0" x2="-98.7" y2="-16.0" stroke="url(#cyber-cyan)" stroke-width="0.8" opacity="0.15"/>
        <circle cx="-246.1" cy="-40.0" r="1.5" fill="#E2E8F0" opacity="0" filter="url(#glow-cyan)">
            <animate attributeName="opacity" values="0;0.8;0" dur="2.1122618562260556s" begin="2.21863399129836s" repeatCount="indefinite"/>
            <animateTransform attributeName="transform" type="translate" values="0,0; 147.4,24.0" dur="2.1122618562260556s" begin="2.21863399129836s" repeatCount="indefinite"/>
        </circle>
        <circle cx="-98.7" cy="-16.0" r="2.5" fill="#FFFFFF" opacity="0" filter="url(#glow-cyan)">
            <animate attributeName="opacity" values="0;1;0" dur="2.1122618562260556s" begin="4.130895847524415s" repeatCount="indefinite"/>
        </circle>
        
        <line x1="-212.9" y1="-24.6" x2="-99.3" y2="-11.5" stroke="url(#cyber-cyan)" stroke-width="0.8" opacity="0.15"/>
        <circle cx="-212.9" cy="-24.6" r="1.5" fill="#E2E8F0" opacity="0" filter="url(#glow-cyan)">
            <animate attributeName="opacity" values="0;0.8;0" dur="3.4453980605674737s" begin="1.233619706234387s" repeatCount="indefinite"/>
            <animateTransform attributeName="transform" type="translate" values="0,0; 113.6,13.1" dur="3.4453980605674737s" begin="1.233619706234387s" repeatCount="indefinite"/>
        </circle>
        <circle cx="-99.3" cy="-11.5" r="2.5" fill="#FFFFFF" opacity="0" filter="url(#glow-cyan)">
            <animate attributeName="opacity" values="0;1;0" dur="3.4453980605674737s" begin="4.479017766801861s" repeatCount="indefinite"/>
        </circle>
        
        <line x1="-126.7" y1="-220.6" x2="-49.8" y2="-86.7" stroke="url(#cyber-cyan)" stroke-width="0.8" opacity="0.15"/>
        <circle cx="-126.7" cy="-220.6" r="1.5" fill="#E2E8F0" opacity="0" filter="url(#glow-cyan)">
            <animate attributeName="opacity" values="0;0.8;0" dur="2.9894993256956517s" begin="2.440012376752307s" repeatCount="indefinite"/>
            <animateTransform attributeName="transform" type="translate" values="0,0; 76.9,133.9" dur="2.9894993256956517s" begin="2.440012376752307s" repeatCount="indefinite"/>
        </circle>
        <circle cx="-49.8" cy="-86.7" r="2.5" fill="#FFFFFF" opacity="0" filter="url(#glow-cyan)">
            <animate attributeName="opacity" values="0;1;0" dur="2.9894993256956517s" begin="5.229511702447959s" repeatCount="indefinite"/>
        </circle>
        
        <line x1="-206.7" y1="91.1" x2="-91.5" y2="40.3" stroke="url(#cyber-cyan)" stroke-width="0.8" opacity="0.15"/>
        <circle cx="-206.7" cy="91.1" r="1.5" fill="#E2E8F0" opacity="0" filter="url(#glow-cyan)">
            <animate attributeName="opacity" values="0;0.8;0" dur="3.6441681054779376s" begin="2.712974475170505s" repeatCount="indefinite"/>
            <animateTransform attributeName="transform" type="translate" values="0,0; 115.2,-50.8" dur="3.6441681054779376s" begin="2.712974475170505s" repeatCount="indefinite"/>
        </circle>
        <circle cx="-91.5" cy="40.3" r="2.5" fill="#FFFFFF" opacity="0" filter="url(#glow-cyan)">
            <animate attributeName="opacity" values="0;1;0" dur="3.6441681054779376s" begin="6.1571425806484426s" repeatCount="indefinite"/>
        </circle>
        
        <line x1="-194.3" y1="-195.8" x2="-70.4" y2="-71.0" stroke="url(#cyber-cyan)" stroke-width="0.8" opacity="0.15"/>
        <circle cx="-194.3" cy="-195.8" r="1.5" fill="#E2E8F0" opacity="0" filter="url(#glow-cyan)">
            <animate attributeName="opacity" values="0;0.8;0" dur="2.8942378973397505s" begin="0.645835316459781s" repeatCount="indefinite"/>
            <animateTransform attributeName="transform" type="translate" values="0,0; 123.8,124.8" dur="2.8942378973397505s" begin="0.645835316459781s" repeatCount="indefinite"/>
        </circle>
        <circle cx="-70.4" cy="-71.0" r="2.5" fill="#FFFFFF" opacity="0" filter="url(#glow-cyan)">
            <animate attributeName="opacity" values="0;1;0" dur="2.8942378973397505s" begin="3.3400732137995313s" repeatCount="indefinite"/>
        </circle>
        
        <line x1="-194.5" y1="-179.4" x2="-73.5" y2="-67.8" stroke="url(#cyber-cyan)" stroke-width="0.8" opacity="0.15"/>
        <circle cx="-194.5" cy="-179.4" r="1.5" fill="#E2E8F0" opacity="0" filter="url(#glow-cyan)">
            <animate attributeName="opacity" values="0;0.8;0" dur="2.869386798090366s" begin="2.7386150651851997s" repeatCount="indefinite"/>
            <animateTransform attributeName="transform" type="translate" values="0,0; 121.0,111.6" dur="2.869386798090366s" begin="2.7386150651851997s" repeatCount="indefinite"/>
        </circle>
        <circle cx="-73.5" cy="-67.8" r="2.5" fill="#FFFFFF" opacity="0" filter="url(#glow-cyan)">
            <animate attributeName="opacity" values="0;1;0" dur="2.869386798090366s" begin="5.408001863275565s" repeatCount="indefinite"/>
        </circle>
        
        <line x1="-220.3" y1="-4.2" x2="-100.0" y2="-1.9" stroke="url(#cyber-cyan)" stroke-width="0.8" opacity="0.15"/>
        <circle cx="-220.3" cy="-4.2" r="1.5" fill="#E2E8F0" opacity="0" filter="url(#glow-cyan)">
            <animate attributeName="opacity" values="0;0.8;0" dur="3.9034862634290417s" begin="0.125604656400216s" repeatCount="indefinite"/>
            <animateTransform attributeName="transform" type="translate" values="0,0; 120.3,2.3" dur="3.9034862634290417s" begin="0.125604656400216s" repeatCount="indefinite"/>
        </circle>
        <circle cx="-100.0" cy="-1.9" r="2.5" fill="#FFFFFF" opacity="0" filter="url(#glow-cyan)">
            <animate attributeName="opacity" values="0;1;0" dur="3.9034862634290417s" begin="3.829090919829258s" repeatCount="indefinite"/>
        </circle>
        
        <line x1="-134.7" y1="-137.7" x2="-69.9" y2="-71.5" stroke="url(#cyber-cyan)" stroke-width="0.8" opacity="0.15"/>
        <circle cx="-134.7" cy="-137.7" r="1.5" fill="#E2E8F0" opacity="0" filter="url(#glow-cyan)">
            <animate attributeName="opacity" values="0;0.8;0" dur="3.695474609552551s" begin="2.3116063865481746s" repeatCount="indefinite"/>
            <animateTransform attributeName="transform" type="translate" values="0,0; 64.8,66.2" dur="3.695474609552551s" begin="2.3116063865481746s" repeatCount="indefinite"/>
        </circle>
        <circle cx="-69.9" cy="-71.5" r="2.5" fill="#FFFFFF" opacity="0" filter="url(#glow-cyan)">
            <animate attributeName="opacity" values="0;1;0" dur="3.695474609552551s" begin="5.8070809961007255s" repeatCount="indefinite"/>
        </circle>
        
        <line x1="-140.5" y1="230.1" x2="-52.1" y2="85.4" stroke="url(#cyber-cyan)" stroke-width="0.8" opacity="0.15"/>
        <circle cx="-140.5" cy="230.1" r="1.5" fill="#E2E8F0" opacity="0" filter="url(#glow-cyan)">
            <animate attributeName="opacity" values="0;0.8;0" dur="2.256340184632077s" begin="3.933674930147019s" repeatCount="indefinite"/>
            <animateTransform attributeName="transform" type="translate" values="0,0; 88.4,-144.8" dur="2.256340184632077s" begin="3.933674930147019s" repeatCount="indefinite"/>
        </circle>
        <circle cx="-52.1" cy="85.4" r="2.5" fill="#FFFFFF" opacity="0" filter="url(#glow-cyan)">
            <animate attributeName="opacity" values="0;1;0" dur="2.256340184632077s" begin="5.990015114779095s" repeatCount="indefinite"/>
        </circle>
        
        <line x1="-222.2" y1="47.5" x2="-97.8" y2="20.9" stroke="url(#cyber-cyan)" stroke-width="0.8" opacity="0.15"/>
        <circle cx="-222.2" cy="47.5" r="1.5" fill="#E2E8F0" opacity="0" filter="url(#glow-cyan)">
            <animate attributeName="opacity" values="0;0.8;0" dur="2.548872040642901s" begin="3.93362311680392s" repeatCount="indefinite"/>
            <animateTransform attributeName="transform" type="translate" values="0,0; 124.4,-26.6" dur="2.548872040642901s" begin="3.93362311680392s" repeatCount="indefinite"/>
        </circle>
        <circle cx="-97.8" cy="20.9" r="2.5" fill="#FFFFFF" opacity="0" filter="url(#glow-cyan)">
            <animate attributeName="opacity" values="0;1;0" dur="2.548872040642901s" begin="6.282495157446821s" repeatCount="indefinite"/>
        </circle>
        
        <line x1="-137.6" y1="-148.0" x2="-68.1" y2="-73.2" stroke="url(#cyber-cyan)" stroke-width="0.8" opacity="0.15"/>
        <circle cx="-137.6" cy="-148.0" r="1.5" fill="#E2E8F0" opacity="0" filter="url(#glow-cyan)">
            <animate attributeName="opacity" values="0;0.8;0" dur="3.7765900566408277s" begin="2.211691900868497s" repeatCount="indefinite"/>
            <animateTransform attributeName="transform" type="translate" values="0,0; 69.5,74.8" dur="3.7765900566408277s" begin="2.211691900868497s" repeatCount="indefinite"/>
        </circle>
        <circle cx="-68.1" cy="-73.2" r="2.5" fill="#FFFFFF" opacity="0" filter="url(#glow-cyan)">
            <animate attributeName="opacity" values="0;1;0" dur="3.7765900566408277s" begin="5.788281957509325s" repeatCount="indefinite"/>
        </circle>
        
        <line x1="36.3" y1="-276.5" x2="13.0" y2="-99.1" stroke="url(#cyber-cyan)" stroke-width="0.8" opacity="0.15"/>
        <circle cx="36.3" cy="-276.5" r="1.5" fill="#E2E8F0" opacity="0" filter="url(#glow-cyan)">
            <animate attributeName="opacity" values="0;0.8;0" dur="2.264381005729348s" begin="2.1881917519006007s" repeatCount="indefinite"/>
            <animateTransform attributeName="transform" type="translate" values="0,0; -23.3,177.3" dur="2.264381005729348s" begin="2.1881917519006007s" repeatCount="indefinite"/>
        </circle>
        <circle cx="13.0" cy="-99.1" r="2.5" fill="#FFFFFF" opacity="0" filter="url(#glow-cyan)">
            <animate attributeName="opacity" values="0;1;0" dur="2.264381005729348s" begin="4.252572757629948s" repeatCount="indefinite"/>
        </circle>
        

        <g>
            <animateTransform attributeName="transform" type="translate" values="0,-4; 0,4; 0,-4" dur="5s" ease="ease-in-out" repeatCount="indefinite"/>
            
        <g transform="scale(1.0)">
            <animateTransform attributeName="transform" type="rotate" from="0" to="360" dur="30s" repeatCount="indefinite"/>
            <polygon points="0,-100 86.6,-50 86.6,50 0,100 -86.6,50 -86.6,-50" fill="rgba(0, 240, 255, 0.03)" stroke="url(#cyber-cyan)" stroke-width="1.5" filter="url(#glow-cyan)"/>
            <polygon points="0,-100 86.6,-50 86.6,50 0,100 -86.6,50 -86.6,-50" fill="none" stroke="url(#platinum)" stroke-width="0.8" stroke-dasharray="10 5" opacity="0.4"/>
        </g>
        
        <g transform="scale(0.85)">
            <animateTransform attributeName="transform" type="rotate" from="0" to="-360" dur="45s" repeatCount="indefinite"/>
            <polygon points="0,-100 86.6,-50 86.6,50 0,100 -86.6,50 -86.6,-50" fill="rgba(0, 240, 255, 0.03)" stroke="url(#cyber-cyan)" stroke-width="1.5" filter="url(#glow-cyan)"/>
            <polygon points="0,-100 86.6,-50 86.6,50 0,100 -86.6,50 -86.6,-50" fill="none" stroke="url(#platinum)" stroke-width="0.8" stroke-dasharray="10 5" opacity="0.4"/>
        </g>
        
        <g transform="scale(0.7)">
            <animateTransform attributeName="transform" type="rotate" from="0" to="360" dur="60s" repeatCount="indefinite"/>
            <polygon points="0,-100 86.6,-50 86.6,50 0,100 -86.6,50 -86.6,-50" fill="rgba(0, 240, 255, 0.03)" stroke="url(#cyber-cyan)" stroke-width="1.5" filter="url(#glow-cyan)"/>
            <polygon points="0,-100 86.6,-50 86.6,50 0,100 -86.6,50 -86.6,-50" fill="none" stroke="url(#platinum)" stroke-width="0.8" stroke-dasharray="10 5" opacity="0.4"/>
        </g>
        
            
            <polygon points="0,-40 34.6,-20 34.6,20 0,40 -34.6,20 -34.6,-20" fill="rgba(0, 240, 255, 0.1)" stroke="url(#cyber-cyan)" stroke-width="2.5" filter="url(#glow-cyan)"/>
            <polygon points="0,-25 21.6,-12.5 21.6,12.5 0,25 -21.6,12.5 -21.6,-12.5" fill="#04070D" stroke="url(#platinum)" stroke-width="1.5"/>
            
            <circle cx="0" cy="0" r="8" fill="url(#cyber-cyan)" filter="url(#glow-cyan)">
                <animate attributeName="r" values="6;9;6" dur="3s" repeatCount="indefinite"/>
            </circle>
            
            <path d="M 0 -40 L 0 -100 M 34.6 -20 L 86.6 -50 M 34.6 20 L 86.6 50 M 0 40 L 0 100 M -34.6 20 L -86.6 50 M -34.6 -20 L -86.6 -50" stroke="url(#platinum)" stroke-width="1.2" opacity="0.5" filter="url(#glow-cyan)"/>
        </g>
    </g>

    <g transform="translate(200, 510)" filter="url(#shield-shadow)">
        <polygon points="-160,-42 160,-42 175,0 160,42 -160,42 -175,0" fill="#060912" stroke="url(#cyber-cyan)" stroke-width="2"/>
        <polygon points="-152,-34 152,-34 162,0 152,34 -152,34 -162,0" fill="none" stroke="url(#platinum)" stroke-width="0.8" stroke-dasharray="10 6" opacity="0.4"/>
        
        <text x="0" y="-22" text-anchor="middle" class="acm-text" font-size="9" fill="url(#platinum)" opacity="0.9">ACM</text>
        
        <text x="0" y="10" text-anchor="middle" class="ccs-title" font-size="36" fill="url(#cyber-cyan)" filter="url(#glow-cyan)">CCS</text>
        
        <path d="M-80 18 L0 17.5 L80 18 L0 18.5 Z" fill="url(#cyber-cyan)" opacity="0.6"/>
        <polygon points="0,16.5 2,18 0,19.5 -2,18" fill="#FFF"/>

        <text x="0" y="25" text-anchor="middle" class="full-name" font-size="6" fill="#FFFFFF" opacity="0.95">COMPUTER AND COMMUNICATIONS SECURITY</text>
        
        <text x="0" y="31" text-anchor="middle" class="tagline" font-size="4" fill="url(#platinum)" opacity="0.7">FLAGSHIP CONFERENCE  ❖  SECURE ENCLAVE</text>

        <circle cx="-145" cy="0" r="2.5" fill="url(#cyber-cyan)" filter="url(#glow-cyan)">
            <animate attributeName="opacity" values="1;0.4;1" dur="2s" repeatCount="indefinite"/>
        </circle>
        <circle cx="145" cy="0" r="2.5" fill="url(#cyber-cyan)" filter="url(#glow-cyan)">
            <animate attributeName="opacity" values="0.4;1;0.4" dur="2s" repeatCount="indefinite"/>
        </circle>
    </g>
</svg>