<svg viewBox="0 0 60 76" xmlns="http://www.w3.org/2000/svg">
  <defs>
    <filter id="git-glow" x="-20%" y="-20%" width="140%" height="140%">
      <feDropShadow dx="0" dy="2" stdDeviation="3" flood-color="#f03c2e" flood-opacity="0.4"/>
    </filter>
  </defs>
  <g filter="url(#git-glow)">
    <g style="transform-origin: 30px 30px;">
      <animateTransform attributeName="transform" type="scale" values="1; 1.06; 1" dur="2.5s" repeatCount="indefinite" />
      <g transform="translate(0, -4)">
        <path fill="#f03c2e" d="M50.67 29.25L32.138 10.72c-1.066-1.067-2.797-1.067-3.865 0l-3.847 3.848 4.88 4.88c1.135-.383 2.435-.125 3.337.777a3.25 3.25 0 0 1 .771 3.36l4.704 4.704c1.125-.392 2.45-.137 3.36.77a3.25 3.25 0 0 1-1.459 5.441 3.25 3.25 0 0 1-3.141-.842c-.955-.956-1.19-2.36-.707-3.537l-4.375-4.375v11.545c.3.154.602.357.86.615 1.27 1.27 1.27 3.328 0 4.6a3.25 3.25 0 0 1-4.599 0c-1.27-1.273-1.27-3.33 0-4.6a3.27 3.27 0 0 1 1.065-.71V25.546c-.375-.16-.75-.394-1.065-.7a3.25 3.25 0 0 1-.7-3.555l-4.812-4.813L9.83 29.163a2.74 2.74 0 0 0 0 3.866l18.533 18.53c1.066 1.067 2.797 1.067 3.865 0L50.67 33.116a2.74 2.74 0 0 0 0-3.866" />
      </g>
      <text x="30" y="68" font-family="'Segoe UI', Arial, sans-serif" font-weight="bold" font-size="12" fill="#555" text-anchor="middle">GIT</text>
    </g>
  </g>
</svg>